<?xml version="1.0" standalone="no"?>
<!DOCTYPE svg PUBLIC "-//W3C//DTD SVG 1.1//EN" "http://www.w3.org/Graphics/SVG/1.1/DTD/svg11.dtd" >
<svg xmlns="http://www.w3.org/2000/svg" xmlns:xlink="http://www.w3.org/1999/xlink" version="1.1">
<metadata>
Created by FontForge 20150824 at Thu Jan 28 06:07:36 2016
 By Everything Fonts
Copyright (c) 2012 by Fontfabric LLC. All rights reserved.
</metadata>
<defs>
<font id="PantonBlackCaps" horiz-adv-x="698" >
  <font-face 
    font-family="PantonBlackCaps"
    font-weight="900"
    font-variant="small-caps"
    font-stretch="normal"
    units-per-em="1024"
    panose-1="0 0 0 0 0 0 0 0 0 0"
    ascent="819"
    descent="-205"
    x-height="727"
    cap-height="727"
    bbox="-212 -266 1291 1015"
    underline-thickness="1"
    underline-position="-2"
    unicode-range="U+000D-FB02"
  />
<missing-glyph horiz-adv-x="543" 
d="M51 102h307v523h-307v-131v-392zM0 676h410v-625h-206h-204v625z" />
    <glyph glyph-name=".notdef" horiz-adv-x="543" 
d="M51 102h307v523h-307v-131v-392zM0 676h410v-625h-206h-204v625z" />
    <glyph glyph-name=".null" horiz-adv-x="0" 
 />
    <glyph glyph-name=".null" horiz-adv-x="0" 
 />
    <glyph glyph-name="nonmarkingreturn" unicode="&#xd;" horiz-adv-x="0" 
 />
    <glyph glyph-name="space" unicode=" " horiz-adv-x="184" 
 />
    <glyph glyph-name="exclam" unicode="!" horiz-adv-x="291" 
d="M204 757h-116q-22 0 -31 -8t-9 -27v-3q6 -147 17 -441q0 -22 8 -31q8 -8 30 -8h84q22 0 30 8q8 9 8 31q6 147 19 441v3q0 19 -9 27t-31 8zM170 187h-51q-46 0 -63 -17t-17 -62v-36q0 -46 17 -63t63 -17h8h43q46 0 63 17q18 17 18 63v36q0 45 -18 62q-17 17 -63 17z" />
    <glyph glyph-name="quotedbl" unicode="&#x22;" horiz-adv-x="420" 
d="M181 489q6 51 23 203v9q0 15 -6 20q-9 6 -30 6h-90q-22 0 -29 -6q-7 -7 -7 -29v-203q0 -22 7 -27t29 -5h62q23 0 31 5t10 27zM368 489q5 51 21 203q1 5 1 9q0 15 -7 20q-8 6 -30 6h-90q-21 0 -28 -6q-7 -7 -7 -29v-203q0 -22 7 -27t28 -5h63q23 0 31 5t11 27z" />
    <glyph glyph-name="numbersign" unicode="#" horiz-adv-x="785" 
d="M732 552h-59q7 25 28 98q7 21 1 30q-7 9 -28 9h-94q-23 0 -33 -9q-11 -9 -18 -30q-9 -33 -28 -98h-90q7 25 28 98q6 21 0 30t-28 9h-94q-21 0 -32 -9q-12 -9 -18 -30q-9 -33 -28 -98h-60q-22 0 -33 -7q-12 -7 -18 -29q-9 -28 -27 -85q-7 -21 1 -29q7 -9 29 -9h60
q-7 -25 -29 -99h-59q-23 0 -34 -8q-12 -7 -18 -28q-9 -28 -26 -85q-3 -10 -3 -17q0 -8 3 -13q7 -9 28 -9h61q-7 -24 -28 -95q-7 -21 0 -30q6 -9 28 -9h93q22 0 33 9t17 30q10 32 29 95h90q-7 -24 -29 -95q-6 -21 0 -30q7 -9 29 -9h20h74q22 0 32 9q11 9 17 30q10 32 29 95
h58q23 0 35 8q11 8 17 29q10 28 28 85q7 21 0 29q-7 9 -30 9h-61q7 25 30 99h59q22 0 34 8t18 28q8 28 25 85q3 10 3 18t-3 12q-7 8 -29 8zM423 294h-90q7 25 31 99h90q-8 -25 -31 -99z" />
    <glyph glyph-name="dollar" unicode="$" horiz-adv-x="636" 
d="M373 779h-107q-22 0 -30 -8q-9 -8 -9 -31v-34q-96 -17 -145 -69t-49 -133q0 -92 45 -136t105 -62q32 -10 65 -16q33 -5 62 -9q43 -6 71 -16q29 -10 29 -36q0 -27 -25 -38t-73 -11q-42 0 -66 13t-35 37q-11 23 -23 27q-13 3 -35 -5q-32 -11 -96 -34q-21 -8 -28 -20
q-2 -6 -2 -13q0 -9 4 -21q21 -59 70 -95q49 -35 126 -46v-34q0 -23 9 -31q8 -9 30 -9h107q21 0 30 9q9 8 9 31v36q95 17 146 70q51 52 51 136q0 50 -13 85q-14 35 -36 59q-42 44 -104 58q-63 14 -117 21q-45 6 -75 16q-31 10 -31 36q0 24 20 35q19 11 65 11q40 0 59 -12
q20 -13 34 -38q11 -23 22 -27t32 5q33 15 99 44q23 10 29 23q6 12 -5 34q-26 51 -68 82t-108 43v34t-9 31t-30 8z" />
    <glyph glyph-name="percent" unicode="%" horiz-adv-x="925" 
d="M26 583v-78q0 -73 46 -115q47 -43 136 -43t136 43q46 42 46 115v78q0 73 -46 116q-47 43 -136 43t-136 -43q-46 -43 -46 -116zM781 727h-98q-35 0 -49 -6t-31 -30q-159 -216 -476 -648q-9 -12 -9 -22q0 -4 2 -8q5 -13 28 -13h20h74q38 0 52 7q14 6 33 31q158 216 475 648
q8 11 8 21q0 4 -2 8q-5 12 -27 12zM251 573v-57q0 -18 -11 -28t-32 -10q-22 0 -33 10t-11 28v57q0 18 11 28q11 9 33 9q21 0 32 -9q11 -10 11 -28zM535 220v-77q0 -73 46 -116q47 -42 136 -42t135 42q47 43 47 116v77q0 75 -47 118q-46 43 -135 43t-136 -43
q-46 -43 -46 -118zM761 211v-57q0 -18 -11 -28q-11 -9 -32 -9q-22 0 -33 9q-11 10 -11 28v57q0 18 11 28q11 9 33 9q21 0 32 -9q11 -10 11 -28z" />
    <glyph glyph-name="ampersand" unicode="&#x26;" horiz-adv-x="715" 
d="M97 540q0 -36 12 -70t34 -62q-54 -31 -88 -78q-33 -47 -33 -118q0 -105 66 -166q67 -61 174 -61q53 0 101 14q48 15 102 59q11 -12 34 -35q12 -14 24 -19q12 -4 33 -4h132q24 0 28 11q1 3 1 5q1 10 -11 22q-41 44 -123 133q14 14 56 55q14 14 13 24q0 11 -10 21
q-25 25 -74 73q-12 12 -25 12q-14 0 -26 -12l-49 -49q-17 18 -67 72q3 1 10 5q54 32 81 75q26 44 26 104q0 82 -60 137q-60 54 -147 54q-106 0 -160 -61q-54 -62 -54 -141zM354 553q0 -18 -8 -32q-9 -14 -31 -26l-21 -12q-16 20 -23 34q-6 15 -6 32q0 20 12 33q12 14 34 14
q19 0 31 -12t12 -31zM254 287q25 -27 98 -106q-16 -14 -34 -25q-18 -12 -45 -12q-32 0 -51 19q-19 18 -19 48q0 19 10 40q10 20 41 36z" />
    <glyph glyph-name="quotesingle" unicode="'" horiz-adv-x="233" 
d="M181 489q6 51 23 203v9q0 15 -6 20q-9 6 -30 6h-90q-22 0 -29 -6q-7 -7 -7 -29v-203q0 -22 7 -27t29 -5h62q23 0 31 5t10 27z" />
    <glyph glyph-name="parenleft" unicode="(" horiz-adv-x="326" 
d="M42 609v-53v-437q0 -110 40 -174t116 -99q11 -5 20 -5q6 0 11 3q11 6 22 27q16 34 49 101q6 13 7 22q0 5 -2 9q-6 11 -26 23q-27 14 -40 36q-12 22 -12 62v480q0 39 12 62q13 22 40 36q20 12 25 22q5 11 -4 32q-16 33 -49 100q-11 22 -22 28q-5 3 -11 3q-9 0 -20 -5
q-76 -35 -116 -99t-40 -174z" />
    <glyph glyph-name="parenright" unicode=")" horiz-adv-x="326" 
d="M75 856q-13 -25 -49 -100q-7 -13 -7 -23q0 -5 2 -9q5 -10 26 -22q27 -14 39 -36q11 -23 11 -62v-480q0 -40 -11 -62q-12 -22 -39 -36q-21 -12 -26 -22q-5 -11 5 -32q16 -33 49 -101q11 -21 22 -27q4 -3 11 -3q8 0 20 5q74 35 115 99q40 64 40 174v490q0 110 -40 174
q-41 64 -115 99q-12 5 -20 5q-7 0 -11 -3q-11 -6 -22 -28z" />
    <glyph glyph-name="asterisk" unicode="*" horiz-adv-x="357" 
d="M198 696h-40q-16 0 -22 -7q-6 -8 -3 -22q4 -24 12 -71q-15 8 -63 33q-15 7 -24 4q-8 -4 -13 -20q-4 -12 -13 -36q-3 -8 -3 -14t2 -10q5 -8 22 -10q24 -4 71 -12q-13 -12 -51 -50q-13 -11 -12 -20t14 -19q11 -8 35 -25q8 -7 16 -7q2 0 5 1q9 3 15 17q11 21 32 61
q8 -15 31 -61q8 -15 17 -16q10 -1 23 8q11 7 33 22q13 9 13 19q-1 10 -11 20q-17 17 -51 50q18 3 71 12q17 2 22 10q2 4 2 10q0 5 -2 12q-5 13 -14 38q-5 17 -13 20q-8 4 -24 -4l-63 -33q3 18 11 71q3 15 -2 22q-6 7 -23 7z" />
    <glyph glyph-name="plus" unicode="+" horiz-adv-x="565" 
d="M496 420h-129v128q0 24 -10 34q-10 9 -34 9h-81q-25 0 -35 -9q-9 -10 -9 -34v-128h-128q-25 0 -34 -10t-9 -34v-81q0 -25 9 -34q9 -10 34 -10h128v-129q0 -25 9 -34q10 -9 35 -9h81q24 0 34 9t10 34v129h129q24 0 33 10q10 9 10 34v81q0 24 -10 34q-9 10 -33 10z" />
    <glyph glyph-name="comma" unicode="," horiz-adv-x="267" 
d="M158 -86q19 56 75 224q5 13 5 22q0 10 -5 17q-8 13 -39 13h-96q-27 0 -38 -11q-11 -12 -14 -41q-9 -78 -29 -233v-7q0 -12 4 -17q6 -6 25 -6h57q24 0 36 9q11 9 19 30z" />
    <glyph glyph-name="hyphen" unicode="-" horiz-adv-x="412" 
d="M325 357h-238q-24 0 -33 -9q-10 -9 -10 -34v-22v-65q0 -24 10 -33q9 -10 33 -10h238q23 0 33 10q10 9 10 33v87q0 25 -10 34t-33 9z" />
    <glyph glyph-name="period" unicode="." horiz-adv-x="269" 
d="M155 195h-39q-46 0 -64 -18q-17 -18 -17 -63v-11v-31q0 -46 17 -63q18 -17 64 -17h39q45 0 62 17t17 63v42q0 45 -17 63t-62 18z" />
    <glyph glyph-name="slash" unicode="/" horiz-adv-x="505" 
d="M216 -26q67 180 266 717q4 11 4 18q0 6 -2 10q-6 8 -27 8h-115q-22 0 -33 -7t-19 -29l-267 -717q-4 -10 -4 -17q0 -6 2 -10q6 -8 28 -8h115q22 0 33 7q11 8 19 28z" />
    <glyph glyph-name="zero" unicode="0" horiz-adv-x="664" 
d="M40 476v-24v-200q0 -124 76 -196q77 -71 216 -71t215 71q77 72 77 196v224q0 122 -77 194q-76 72 -215 72t-216 -72q-76 -72 -76 -194zM421 484v-240q0 -39 -24 -59q-24 -21 -65 -21q-42 0 -66 21q-23 20 -23 59v60v180q0 38 23 59q24 20 66 20q41 0 65 -20
q24 -21 24 -59z" />
    <glyph glyph-name="one" unicode="1" horiz-adv-x="460" 
d="M354 727h-61q-20 0 -32 -3q-12 -4 -30 -14q-66 -39 -199 -115q-21 -13 -27 -26q-1 -4 -1 -9q-1 -10 7 -24l48 -87q12 -22 27 -27t40 9l69 39v-427q0 -24 9 -33q10 -10 35 -10h24h91q25 0 34 10q9 9 9 33v641q0 24 -9 33q-9 10 -34 10z" />
    <glyph glyph-name="two" unicode="2" horiz-adv-x="628" 
d="M40 563q-9 -22 -2 -34q6 -13 29 -21q36 -13 108 -40q23 -8 34 -2t21 30q17 36 37 51q20 16 52 16q34 0 52 -19t18 -48q0 -59 -48 -88t-110 -55q-25 -10 -50 -22t-48 -27q-42 -27 -71 -69t-29 -110v-82q0 -24 9 -33q10 -10 35 -10h98h363q24 0 34 10q10 9 10 33v86
q0 25 -10 34q-10 10 -34 10h-294v6q0 19 39 30q40 10 82 23q116 42 174 98q57 56 57 175q0 98 -71 168q-70 69 -199 69q-119 0 -187 -49q-68 -50 -99 -130z" />
    <glyph glyph-name="three" unicode="3" horiz-adv-x="641" 
d="M588 530q0 96 -65 154t-188 58q-125 0 -198 -46q-72 -47 -104 -133q-8 -22 -2 -35q6 -12 29 -20q34 -12 101 -36q23 -8 35 -2t20 30q14 34 34 50q19 16 62 16q36 0 53 -13q17 -14 17 -43q0 -31 -20 -44q-20 -12 -50 -12h-45q-24 0 -34 -10q-9 -10 -9 -34v-85q0 -24 9 -34
q10 -9 34 -9h63q33 0 50 -14t17 -47q0 -31 -20 -45q-20 -15 -60 -15q-43 0 -67 17q-24 16 -36 49q-9 24 -21 30q-11 6 -34 -2q-34 -12 -101 -36q-23 -8 -29 -20q-3 -6 -3 -13q0 -10 5 -22q31 -86 104 -133q73 -46 198 -46q140 0 208 59t68 165q0 55 -24 100q-25 44 -77 72
q38 25 59 63t21 86z" />
    <glyph glyph-name="four" unicode="4" horiz-adv-x="673" 
d="M612 302h-52v382q0 24 -9 33q-10 10 -34 10h-101q-26 0 -39 -6q-12 -7 -28 -25q-104 -124 -311 -371q-15 -18 -19 -31q-4 -14 -4 -39v-10v-58q0 -23 10 -33t33 -10h311v-101q0 -24 9 -33q9 -10 34 -10h22h83q24 0 34 10q9 9 9 33v101h52q24 0 34 10q9 10 9 33v72
q0 24 -9 33q-10 10 -34 10zM369 302h-144q36 43 144 173v-173z" />
    <glyph glyph-name="five" unicode="5" horiz-adv-x="628" 
d="M525 728h-374q-37 0 -51 -13q-14 -14 -18 -48q-11 -102 -32 -305q-2 -26 8 -38t37 -12h213q40 0 61 -17q21 -18 21 -52q0 -39 -20 -57q-20 -19 -56 -19q-43 0 -65 15t-34 42q-9 24 -21 29q-11 5 -32 -3q-37 -14 -110 -41q-22 -9 -28 -20q-3 -6 -3 -13q0 -9 5 -22
q32 -86 103 -128q71 -41 195 -41q132 0 205 71q72 72 72 177q0 103 -63 173q-64 71 -205 71h-69q2 18 7 72h254q25 0 35 9q9 9 9 34v92q0 25 -9 34q-10 10 -35 10z" />
    <glyph glyph-name="six" unicode="6" horiz-adv-x="667" 
d="M242 454v14q0 50 23 73q24 22 75 22q41 0 65 -12q24 -11 36 -36q13 -22 23 -30q11 -7 34 1q32 13 97 38q23 9 30 21q6 12 -2 35q-33 83 -103 122q-69 40 -183 40q-145 0 -221 -71q-76 -72 -76 -204v-52v-155q0 -132 75 -204q76 -71 222 -71q139 0 218 62t79 178
q0 120 -69 178q-69 59 -217 59q-35 0 -61 -2q-26 -3 -45 -6zM242 238v38q13 5 36 9q24 4 59 4q54 0 74 -16q21 -16 21 -49q0 -31 -21 -49q-20 -17 -74 -17q-52 0 -74 21q-21 21 -21 59z" />
    <glyph glyph-name="seven" unicode="7" horiz-adv-x="582" 
d="M525 727h-464q-24 0 -34 -10q-10 -9 -10 -33v-14v-78q0 -25 10 -34q10 -10 34 -10h273q-59 -126 -236 -505q-9 -20 -5 -31q3 -12 27 -12h24h88q41 0 55 7q15 7 26 31l243 516q8 18 10 30t2 30v70q0 24 -9 33q-9 10 -34 10z" />
    <glyph glyph-name="eight" unicode="8" horiz-adv-x="664" 
d="M55 523q0 -57 21 -97q22 -39 56 -62q-36 -23 -69 -65q-32 -42 -32 -105q0 -95 69 -152t231 -57q161 0 231 64q70 63 70 164q0 67 -28 108q-27 40 -68 65q26 22 49 59q23 36 23 92q0 98 -71 152q-70 53 -206 53q-128 0 -202 -57t-74 -162zM408 519q0 -26 -14 -43
q-13 -18 -30 -30q-11 3 -31 9q-35 10 -54 23q-19 14 -19 41q0 26 18 40q17 14 54 14q38 0 57 -14t19 -40zM421 211q0 -26 -21 -43q-21 -16 -70 -16q-51 0 -74 16t-23 45q0 30 17 48q16 19 35 31q68 -20 102 -33q34 -12 34 -48z" />
    <glyph glyph-name="nine" unicode="9" horiz-adv-x="667" 
d="M425 273v-14q0 -50 -24 -73q-24 -22 -74 -22q-42 0 -66 12q-23 11 -36 36q-12 22 -23 30q-10 7 -33 -1q-32 -13 -97 -38q-23 -9 -30 -21q-6 -12 2 -35q32 -82 102 -122t184 -40q145 0 221 71q76 72 76 204v207q0 132 -76 204q-75 71 -221 71q-139 0 -218 -62t-79 -178
q0 -120 69 -178q69 -59 216 -59q36 0 62 2q26 3 45 6zM425 489v-38q-13 -5 -37 -9q-23 -4 -58 -4q-54 0 -75 16q-21 17 -21 49q0 31 21 49q21 17 75 17q52 0 73 -21q22 -21 22 -59z" />
    <glyph glyph-name="colon" unicode=":" horiz-adv-x="291" 
d="M165 553h-39q-46 0 -64 -18q-17 -18 -17 -63v-42q0 -45 17 -63q18 -17 64 -17h39q46 0 63 17q18 18 18 63v42q0 45 -18 63q-17 18 -63 18zM165 195h-39q-46 0 -64 -18q-17 -18 -17 -63v-42q0 -46 17 -63q18 -17 64 -17h39q46 0 63 17q18 17 18 63v42q0 45 -18 63
q-17 18 -63 18z" />
    <glyph glyph-name="semicolon" unicode=";" horiz-adv-x="292" 
d="M173 553h-39q-45 0 -63 -18t-18 -63v-42q0 -45 18 -63q18 -17 63 -17h39q46 0 64 17q17 18 17 63v42q0 45 -17 63q-18 18 -64 18zM164 -86l76 224q4 13 4 22q0 10 -4 17q-9 13 -40 13h-95q-26 0 -38 -11q-12 -12 -15 -41q-9 -78 -28 -233q-1 -4 -1 -7q0 -12 5 -17
q6 -6 24 -6h58q23 0 35 9q11 9 19 30z" />
    <glyph glyph-name="less" unicode="&#x3c;" horiz-adv-x="505" 
d="M413 620q-89 -49 -355 -193q-19 -10 -27 -21q-7 -11 -7 -33v-78q0 -22 7 -33q8 -10 27 -20q118 -65 355 -194q14 -8 24 -8q6 0 10 3q11 9 11 38v103q0 36 -9 48q-8 11 -31 23q-55 27 -165 80v4q41 20 166 80q22 11 30 23q9 12 9 47v98q0 28 -11 37q-4 4 -10 4
q-10 0 -24 -8z" />
    <glyph glyph-name="equal" unicode="=" horiz-adv-x="610" 
d="M518 536h-426q-24 0 -34 -10q-9 -10 -9 -34v-22v-66q0 -23 9 -33q10 -10 34 -10h426q25 0 34 10t9 33v88q0 24 -9 34t-34 10zM518 307h-426q-24 0 -34 -9q-9 -10 -9 -34v-22v-65q0 -24 9 -34q10 -10 34 -10h426q25 0 34 10t9 34v87q0 24 -9 34q-9 9 -34 9z" />
    <glyph glyph-name="greater" unicode="&#x3e;" horiz-adv-x="505" 
d="M47 588v-101q0 -35 8 -47t31 -23q55 -27 165 -80v-5q-41 -20 -164 -79q-24 -12 -32 -23q-8 -12 -8 -48v-101q0 -29 10 -37q4 -4 10 -4q10 0 25 8q118 65 354 194q20 10 27 20q8 11 8 33v79q0 21 -8 32q-7 11 -27 21q-118 64 -354 193q-15 8 -25 8q-6 0 -10 -4
q-10 -9 -10 -36z" />
    <glyph glyph-name="question" unicode="?" horiz-adv-x="607" 
d="M26 578q-5 -13 -5 -23q0 -7 3 -12q6 -13 28 -21q33 -12 99 -37q23 -7 33 -2q11 6 22 30q20 45 42 66q23 21 63 21q36 0 54 -16q17 -17 17 -42q0 -51 -35 -71q-34 -19 -73 -43q-33 -20 -59 -56q-27 -36 -27 -109q0 -24 10 -32q9 -9 32 -9h93q23 0 32 9q10 8 10 32
q0 19 10 32q11 13 27 24q17 12 37 22q20 11 41 25q39 24 71 65q32 40 32 113q0 93 -71 153t-200 60q-119 0 -186 -50q-68 -50 -100 -129zM304 187h-51q-46 0 -64 -17q-17 -17 -17 -62v-36q0 -46 17 -63q18 -17 64 -17h8h43q45 0 63 17q17 17 17 63v36q0 45 -17 62
q-18 17 -63 17z" />
    <glyph glyph-name="at" unicode="@" horiz-adv-x="927" 
d="M32 338v-77q0 -183 109 -289q109 -107 320 -107q84 0 142 9q58 8 83 14q19 4 25 11t6 27v57q0 17 -6 21t-27 0q-33 -5 -101 -13t-122 -8q-147 0 -222 71t-75 205v81q0 133 75 209q75 77 222 77t223 -77q75 -76 75 -209v-81q0 -58 -17 -80q-18 -21 -37 -21q-14 0 -25 6
q-10 7 -10 24v278q0 22 -6 32q-7 10 -28 18q-32 12 -84 23t-120 11q-100 0 -147 -48q-47 -47 -47 -133v-140q0 -85 47 -132q47 -48 147 -48q46 0 94 7q48 6 85 19q20 -18 40 -28q19 -10 55 -10q77 0 131 58q54 59 54 166v77q0 183 -109 294q-109 110 -321 110
q-211 0 -320 -110q-109 -111 -109 -294zM521 417q5 -1 7 -4q1 -2 1 -5v-226q-7 -2 -29 -4t-51 -2q-38 0 -55 13q-16 13 -16 43v134q0 30 16 43q17 14 55 14q19 0 40 -2q20 -1 32 -4z" />
    <glyph glyph-name="A" unicode="A" horiz-adv-x="705" 
d="M700 42q-59 163 -236 651q-8 20 -19 27q-12 7 -34 7h-117q-22 0 -34 -7t-19 -29q-79 -216 -236 -649q-4 -12 -4 -21q0 -6 2 -10q6 -11 30 -11h107q39 0 53 10q14 9 22 33q8 25 24 74h221q6 -19 23 -74q6 -24 22 -33q15 -10 55 -10h24h87q23 0 30 11q3 5 3 12q0 8 -4 19z
M376 397q9 -30 38 -119h-128q9 30 38 120q15 52 18 62l3 9h8l4 -10q3 -9 19 -62zM287 277h-2h2z" />
    <glyph glyph-name="B" unicode="B" horiz-adv-x="674" 
d="M395 728h-300q-24 0 -34 -10q-10 -9 -10 -34v-94v-547q0 -24 10 -33q10 -10 34 -10h65h239q109 0 180 52q72 52 72 151q0 67 -27 110q-27 44 -76 66v4q39 27 56 63q18 36 18 88q0 93 -61 144q-60 50 -166 50zM416 506q0 -30 -16 -43q-16 -12 -47 -12h-99v112h99
q31 0 47 -13q16 -14 16 -44zM438 226q0 -32 -16 -46t-49 -14h-119v120h119q33 0 49 -15q16 -14 16 -45z" />
    <glyph glyph-name="C" unicode="C" horiz-adv-x="667" 
d="M34 456v-21v-164q0 -133 82 -209q82 -77 233 -77q118 0 193 46q74 47 106 133q4 12 4 22q0 7 -2 13q-6 12 -29 20q-37 13 -110 39q-23 8 -35 2q-11 -6 -20 -30q-13 -33 -38 -49q-26 -17 -69 -17q-60 0 -86 26q-26 27 -26 80v187q0 53 26 80q26 26 86 26q43 0 68 -16
t39 -50q8 -24 20 -30q11 -5 35 2q36 13 110 39q23 8 29 20q6 13 -2 35q-32 86 -106 133q-75 46 -193 46q-151 0 -233 -77q-82 -76 -82 -209z" />
    <glyph glyph-name="D" unicode="D" horiz-adv-x="693" 
d="M345 727h-250q-24 0 -34 -10q-10 -9 -10 -33v-94v-547q0 -24 10 -33q10 -10 34 -10h54h196q151 0 233 77q81 78 81 210v153q0 133 -81 210q-82 77 -233 77zM457 437v-147q0 -55 -29 -83q-28 -28 -90 -28h-84v369h84q62 0 90 -28q29 -28 29 -83z" />
    <glyph glyph-name="E" unicode="E" horiz-adv-x="602" 
d="M524 727h-429q-24 0 -34 -10q-10 -9 -10 -33v-94v-547q0 -24 10 -33q10 -10 34 -10h94h345q23 0 33 10q10 9 10 33v93q0 25 -10 34t-33 9h-280v99h216q25 0 34 9q10 10 10 35v92q0 24 -10 33q-9 10 -34 10h-216v91h270q25 0 35 10q9 9 9 34v92q0 24 -9 33q-10 10 -35 10z
" />
    <glyph glyph-name="F" unicode="F" horiz-adv-x="589" 
d="M524 727h-429q-24 0 -34 -10q-10 -9 -10 -33v-94v-547q0 -24 10 -33q10 -10 34 -10h25h91q25 0 34 10q9 9 9 33v207h216q25 0 34 10q10 9 10 34v92q0 24 -10 33q-9 10 -34 10h-216v119h270q25 0 35 10q9 9 9 34v92q0 24 -9 33q-10 10 -35 10z" />
    <glyph glyph-name="G" unicode="G" horiz-adv-x="693" 
d="M621 418h-260q-23 0 -33 -10t-10 -34v-77q0 -25 10 -34t33 -9h99v-21q0 -33 -30 -51q-29 -18 -81 -18q-60 0 -86 26q-26 27 -26 80v187q0 53 26 80q26 26 86 26q43 0 68 -16t39 -50q8 -24 20 -30q11 -6 35 2q36 13 110 39q23 8 29 20q6 13 -2 35q-32 86 -106 133
q-75 46 -193 46q-151 0 -233 -77q-82 -76 -82 -209v-28v-157q0 -133 82 -209q82 -77 233 -77t233 72q82 73 82 182v135q0 24 -10 34q-9 10 -33 10z" />
    <glyph glyph-name="H" unicode="H" horiz-adv-x="707" 
d="M612 728h-116q-24 0 -34 -10q-9 -9 -9 -34v-226h-199v226q0 25 -9 34q-9 10 -34 10h-116q-24 0 -34 -10q-10 -9 -10 -34v-94v-547q0 -24 10 -33q10 -10 34 -10h116q25 0 34 10q9 9 9 33v236h199v-236q0 -24 9 -33q10 -10 34 -10h24h92q24 0 34 10q9 9 9 33v641
q0 25 -9 34q-10 10 -34 10z" />
    <glyph glyph-name="I" unicode="I" horiz-adv-x="306" 
d="M51 686v-121v-524q0 -23 9 -32t32 -9h26h95q23 0 32 9t9 32v645q0 23 -9 32t-32 9h-121q-23 0 -32 -9t-9 -32z" />
    <glyph glyph-name="J" unicode="J" horiz-adv-x="601" 
d="M512 728h-118q-24 0 -34 -10q-9 -9 -9 -33v-433q0 -45 -18 -66q-19 -22 -57 -22q-30 0 -48 16t-31 46q-10 23 -22 28q-13 5 -36 -3q-35 -13 -106 -38q-23 -8 -29 -21q-3 -5 -3 -13q0 -9 5 -21q30 -82 95 -128q65 -45 171 -45q139 0 211 71q71 71 71 197v432q0 24 -9 33
q-9 10 -33 10z" />
    <glyph glyph-name="K" unicode="K" horiz-adv-x="671" 
d="M659 50q-33 64 -135 256q-13 26 -28 46q-15 19 -34 33l186 297q12 20 6 32q-7 13 -30 13h-118q-40 0 -54 -7q-13 -7 -28 -31q-49 -77 -148 -232h-22v227q0 24 -9 33q-9 10 -34 10h-116q-24 0 -34 -10q-10 -9 -10 -33v-94v-547q0 -24 10 -33q10 -10 34 -10h25h91
q25 0 34 10q9 9 9 33v235h18q30 0 44 -14q14 -13 26 -38q30 -61 89 -183q13 -27 32 -35t59 -8h111q25 0 31 15q2 5 2 11q0 11 -7 24z" />
    <glyph glyph-name="L" unicode="L" horiz-adv-x="555" 
d="M211 727h-116q-24 0 -34 -10q-10 -9 -10 -33v-94v-547q0 -24 10 -33q10 -10 34 -10h87h319q24 0 33 10q10 9 10 33v93q0 25 -10 34q-9 9 -33 9h-247v505q0 24 -9 33q-9 10 -34 10z" />
    <glyph glyph-name="M" unicode="M" horiz-adv-x="845" 
d="M750 728h-103q-25 0 -36 -6q-10 -6 -21 -27q-56 -110 -169 -330q-42 82 -169 331q-11 20 -22 26q-12 6 -39 6h-96q-24 0 -34 -9t-10 -34v-94v-549q0 -24 10 -33t34 -9h105q24 0 34 9t10 33v145q0 53 -1 77q0 23 -1 73q-1 14 0 14q0 1 6 -1q20 -47 12 -30q-7 16 15 -32
q21 -39 61 -116q8 -17 18 -23q10 -7 31 -7h69q20 0 30 8q10 7 19 22q19 39 57 116q20 39 25 49q4 10 10 3q0 9 0 6q0 -4 0 -3q1 -56 0 -80v-75v-146q0 -24 9 -33t34 -9h24h88q24 0 34 9t10 33v643q0 25 -10 34t-34 9z" />
    <glyph glyph-name="N" unicode="N" horiz-adv-x="717" 
d="M623 727h-105q-24 0 -34 -10q-9 -9 -9 -33v-168v-34v-27q0 -34 -1 -48v-35q0 -1 -2 0q-2 0 2 -3q-35 55 -24 37q12 -17 -23 38q-56 88 -168 263q-7 10 -16 15t-27 5h-121q-24 0 -34 -10q-10 -9 -10 -33v-94v-547q0 -24 10 -33q10 -10 34 -10h104q24 0 34 10q10 9 10 33
v167v38v28q-1 38 -1 53t-1 40q0 -1 1 -2t-1 0q16 -24 24 -37q8 -14 42 -67q53 -81 158 -243q7 -10 16 -15q10 -5 26 -5h24h92q23 0 33 10q10 9 10 33v641q0 24 -10 33q-10 10 -33 10z" />
    <glyph glyph-name="O" unicode="O" 
d="M34 456v-21v-164q0 -133 81 -209q82 -77 234 -77q151 0 233 77q82 76 82 209v185q0 133 -82 209q-82 77 -233 77q-152 0 -234 -77q-81 -76 -81 -209zM461 465v-203q0 -48 -30 -73q-29 -25 -82 -25q-54 0 -83 25t-29 73v203q0 48 29 73t83 25q53 0 82 -25q30 -25 30 -73z
" />
    <glyph glyph-name="P" unicode="P" horiz-adv-x="663" 
d="M378 727h-283q-24 0 -34 -10q-10 -9 -10 -33v-94v-547q0 -24 10 -33q10 -10 34 -10h25h91q25 0 34 10q9 9 9 33v175h126q119 0 190 66q72 66 72 187q0 122 -72 189t-192 67zM355 397h-101v151h101q36 0 57 -21q20 -21 20 -55t-20 -54q-21 -21 -57 -21z" />
    <glyph glyph-name="Q" unicode="Q" horiz-adv-x="712" 
d="M673 36q-14 16 -57 66q24 34 36 76q12 43 12 93v185q0 133 -82 209q-82 77 -233 77q-152 0 -234 -77q-81 -76 -81 -209v-28v-157q0 -133 81 -209q82 -77 234 -77q32 0 61 3q30 4 55 11q22 -26 66 -79q16 -18 30 -19h1q13 0 30 14q25 20 76 59q18 17 19 30v2q0 12 -14 30z
M237 262v203q0 48 29 73t83 25q53 0 82 -25q30 -25 30 -73v-203q0 -48 -30 -73q-29 -25 -82 -25q-54 0 -83 25t-29 73z" />
    <glyph glyph-name="R" unicode="R" horiz-adv-x="677" 
d="M387 727h-292q-24 0 -34 -10q-10 -9 -10 -33v-94v-547q0 -24 10 -33q10 -10 34 -10h25h91q25 0 34 10q9 9 9 33v199h24q31 0 47 -13t29 -40q22 -46 66 -140q12 -27 33 -38q20 -11 61 -11h111q25 0 31 15q2 5 2 11q0 11 -7 24q-30 59 -92 175q-6 13 -13 23q-7 11 -15 21
q53 29 82 83q29 53 29 128q0 119 -69 183q-70 64 -186 64zM432 481q0 -31 -18 -50q-17 -18 -49 -18h-111v135h111q33 0 50 -18t17 -49z" />
    <glyph glyph-name="S" unicode="S" horiz-adv-x="663" 
d="M29 513q0 -52 14 -89t38 -62q44 -46 111 -62q66 -16 124 -24q51 -6 86 -18q34 -12 34 -42q0 -33 -29 -46q-29 -12 -80 -12q-43 0 -73 13q-29 14 -43 41q-12 22 -25 26q-12 4 -35 -4q-33 -11 -97 -34q-22 -9 -29 -21q-3 -6 -3 -14q0 -9 5 -22q29 -80 106 -119t192 -39
q136 0 226 60q91 60 91 173q0 94 -42 142q-42 47 -101 68q-31 12 -65 18q-33 6 -64 11q-56 7 -95 18t-39 44q0 27 22 40q23 13 75 13q35 0 62 -12t41 -41q13 -22 24 -26q11 -5 32 5q34 14 102 44q23 9 29 22t-5 35q-36 74 -104 109q-68 34 -181 34q-147 0 -226 -64
q-78 -64 -78 -165z" />
    <glyph glyph-name="T" unicode="T" horiz-adv-x="617" 
d="M562 727h-507q-24 0 -33 -10q-10 -9 -10 -33v-14v-78q0 -25 10 -34q9 -10 33 -10h153v-505q0 -24 9 -33q9 -10 34 -10h24h92q24 0 34 10q10 9 10 33v505h151q25 0 34 10q10 9 10 34v92q0 24 -10 33q-9 10 -34 10z" />
    <glyph glyph-name="U" unicode="U" horiz-adv-x="709" 
d="M249 258v426q0 24 -10 33q-10 10 -34 10h-116q-24 0 -34 -10q-9 -9 -9 -33v-104v-313q0 -129 79 -206q78 -76 229 -76q152 0 231 76q79 77 79 206v417q0 24 -10 33q-10 10 -34 10h-116q-25 0 -34 -10q-9 -9 -9 -33v-426q0 -45 -27 -70q-27 -24 -80 -24t-79 24
q-26 25 -26 70z" />
    <glyph glyph-name="V" unicode="V" 
d="M666 727h-116q-38 0 -53 -10q-15 -9 -21 -33q-32 -117 -97 -351q-13 -46 -20 -67l-6 -22h-5l-5 22q-5 23 -17 68q-33 117 -98 350q-6 24 -22 33q-15 10 -54 10h-117q-23 0 -30 -11q-4 -5 -4 -12q0 -8 4 -19q76 -217 227 -651q7 -20 19 -27t35 -7h27h101q22 0 34 7
q11 7 19 29q75 216 226 649q4 11 5 20q0 7 -3 11q-6 11 -29 11z" />
    <glyph glyph-name="W" unicode="W" horiz-adv-x="962" 
d="M921 727h-114q-28 0 -41 -7t-17 -31q-15 -89 -43 -268q-7 -42 -8 -55q-2 -12 -8 -47h-5q-8 33 -11 46q-2 12 -11 56q-21 89 -63 268q-5 24 -19 31t-38 7h-111q-24 0 -38 -7q-14 -6 -19 -31q-21 -89 -64 -268q-8 -42 -11 -53q-2 -12 -10 -41h-4l-7 42t-9 52
q-15 89 -45 268q-4 24 -17 31t-40 7h-126q-24 0 -28 -10q-3 -5 -3 -12q0 -9 3 -20l162 -651q5 -21 18 -27q13 -7 35 -7h118q22 0 34 7q13 7 19 29q18 79 55 236l13 65t11 50h3q8 -37 11 -51q2 -15 12 -64q18 -79 55 -238q5 -20 18 -27t35 -7h26h94q22 0 34 7q13 7 18 29
q55 216 163 649q3 11 3 20q0 7 -2 12q-5 10 -28 10z" />
    <glyph glyph-name="X" unicode="X" horiz-adv-x="680" 
d="M671 43q-54 82 -213 328q50 79 202 315q11 17 6 29q-4 12 -26 12h-131q-35 0 -50 -5q-14 -5 -29 -31q-30 -52 -91 -157q-23 39 -92 157q-15 24 -30 30t-55 6h-122q-22 0 -27 -12t5 -29l201 -315q-52 -82 -210 -328q-8 -13 -8 -23q0 -4 1 -8q6 -12 29 -12h126q41 0 56 7
q14 7 29 31q31 56 94 168q24 -42 97 -168q15 -26 30 -32t54 -6h28h104q24 0 29 13q2 4 1 8q0 10 -8 22z" />
    <glyph glyph-name="Y" unicode="Y" horiz-adv-x="691" 
d="M662 727h-118q-38 0 -54 -5q-16 -6 -30 -33q-38 -69 -113 -209q-27 52 -109 209q-15 27 -31 33q-16 5 -54 5h-123q-24 0 -28 -13q-1 -3 -2 -7q0 -10 8 -23q79 -134 236 -402v-239q0 -24 9 -33q10 -10 35 -10h24h91q25 0 34 10q9 9 9 33v239q60 100 237 402q7 12 7 22
q0 4 -1 8q-4 13 -27 13z" />
    <glyph glyph-name="Z" unicode="Z" horiz-adv-x="626" 
d="M550 727h-475q-24 0 -34 -10q-9 -9 -9 -33v-92q0 -25 9 -34q10 -10 34 -10h250l-284 -400q-7 -9 -11 -19q-3 -10 -3 -24v-62q0 -24 9 -33q10 -10 34 -10h103h382q25 0 34 10q9 9 9 33v93q0 25 -9 34t-34 9h-259q71 100 284 399q6 10 10 20q3 10 3 25v61q0 24 -9 33
q-10 10 -34 10z" />
    <glyph glyph-name="bracketleft" unicode="[" horiz-adv-x="362" 
d="M307 877h-217q-24 0 -32 -8q-7 -8 -7 -31v-238v-712q0 -24 7 -31q8 -8 32 -8h217q25 0 31 7q7 7 7 31v73q0 25 -7 31q-6 7 -31 7h-73v732h73q25 0 31 7q7 6 7 31v71q0 24 -7 31q-6 7 -31 7z" />
    <glyph glyph-name="backslash" unicode="\" horiz-adv-x="506" 
d="M23 691q67 -179 268 -717q7 -20 19 -28q11 -7 33 -7h115q21 0 27 8q2 4 2 10q0 7 -4 17q-89 239 -268 717q-8 22 -19 29t-33 7h-115q-21 0 -27 -9q-2 -4 -2 -9q0 -8 4 -18z" />
    <glyph glyph-name="bracketright" unicode="]" horiz-adv-x="362" 
d="M272 877h-217q-24 0 -31 -7t-7 -31v-11v-60q0 -25 7 -31q7 -7 31 -7h73v-732h-73q-24 0 -31 -7q-7 -6 -7 -31v-73q0 -24 7 -31t31 -7h217q25 0 32 8q7 7 7 31v950q0 23 -7 31t-32 8z" />
    <glyph glyph-name="asciicircum" unicode="^" horiz-adv-x="651" 
d="M358 829h-65q-24 0 -37 -7q-13 -8 -30 -27l-186 -216q-14 -17 -14 -28q0 -3 2 -6q6 -13 33 -13h101q34 0 50 6t35 29q25 32 76 97h4q18 -25 72 -97q18 -22 33 -28q14 -7 50 -7h108q28 0 34 12q1 3 1 6q0 11 -14 29q-62 72 -187 216q-16 19 -27 27q-12 7 -39 7z" />
    <glyph glyph-name="underscore" unicode="_" horiz-adv-x="517" 
d="M461 0h-57h-348q-24 0 -33 -10q-10 -9 -10 -33v-13v-74q0 -25 10 -34q9 -9 33 -9h405q24 0 34 9q9 9 9 34v87q0 24 -9 33q-10 10 -34 10z" />
    <glyph glyph-name="grave" unicode="`" horiz-adv-x="263" 
d="M61 750q-13 -15 -54 -58q-13 -15 -13 -24q0 -10 18 -17q62 -20 185 -61q18 -6 29 -7h1q10 0 18 10q9 11 28 34q12 14 12 22v1q0 8 -14 16q-47 28 -142 86q-18 10 -35 12q-2 1 -4 1q-15 0 -29 -15z" />
    <glyph glyph-name="a" unicode="a" horiz-adv-x="705" 
d="M700 42q-59 163 -236 651q-8 20 -19 27q-12 7 -34 7h-117q-22 0 -34 -7t-19 -29q-79 -216 -236 -649q-4 -12 -4 -21q0 -6 2 -10q6 -11 30 -11h107q39 0 53 10q14 9 22 33q8 25 24 74h221q6 -19 23 -74q6 -24 22 -33q15 -10 55 -10h24h87q23 0 30 11q3 5 3 12q0 8 -4 19z
M376 397q9 -30 38 -119h-128q9 30 38 120q15 52 18 60l3 8h8l4 -8q3 -8 19 -61z" />
    <glyph glyph-name="b" unicode="b" horiz-adv-x="674" 
d="M395 728h-300q-24 0 -34 -10q-10 -9 -10 -34v-94v-547q0 -24 10 -33q10 -10 34 -10h65h239q109 0 180 52q72 52 72 151q0 67 -27 110q-27 44 -76 66v4q39 27 56 63q18 36 18 88q0 93 -61 144q-60 50 -166 50zM416 506q0 -30 -16 -43q-16 -12 -47 -12h-99v112h99
q31 0 47 -13q16 -14 16 -44zM438 226q0 -32 -16 -46t-49 -14h-119v120h119q33 0 49 -15q16 -14 16 -45z" />
    <glyph glyph-name="c" unicode="c" horiz-adv-x="667" 
d="M34 456v-21v-164q0 -133 82 -209q82 -77 233 -77q118 0 193 46q74 47 106 133q4 12 4 22q0 7 -2 13q-6 12 -29 20q-37 13 -110 39q-23 8 -35 2q-11 -6 -20 -30q-13 -33 -38 -49q-26 -17 -69 -17q-60 0 -86 26q-26 27 -26 80v187q0 53 26 80q26 26 86 26q43 0 68 -16
t39 -50q8 -24 20 -30q11 -5 35 2q36 13 110 39q23 8 29 20q6 13 -2 35q-32 86 -106 133q-75 46 -193 46q-151 0 -233 -77q-82 -76 -82 -209z" />
    <glyph glyph-name="d" unicode="d" horiz-adv-x="693" 
d="M345 727h-250q-24 0 -34 -10q-10 -9 -10 -33v-94v-547q0 -24 10 -33q10 -10 34 -10h54h196q151 0 233 77q81 78 81 210v153q0 133 -81 210q-82 77 -233 77zM457 437v-147q0 -55 -29 -83q-28 -28 -90 -28h-84v369h84q62 0 90 -28q29 -28 29 -83z" />
    <glyph glyph-name="e" unicode="e" horiz-adv-x="602" 
d="M524 727h-429q-24 0 -34 -10q-10 -9 -10 -33v-94v-547q0 -24 10 -33q10 -10 34 -10h94h345q23 0 33 10q10 9 10 33v93q0 25 -10 34t-33 9h-280v99h216q25 0 34 9q10 10 10 35v92q0 24 -10 33q-9 10 -34 10h-216v91h270q25 0 35 10q9 9 9 34v92q0 24 -9 33q-10 10 -35 10z
" />
    <glyph glyph-name="f" unicode="f" horiz-adv-x="589" 
d="M524 727h-429q-24 0 -34 -10q-10 -9 -10 -33v-94v-547q0 -24 10 -33q10 -10 34 -10h25h91q25 0 34 10q9 9 9 33v207h216q25 0 34 10q10 9 10 34v92q0 24 -10 33q-9 10 -34 10h-216v119h270q25 0 35 10q9 9 9 34v92q0 24 -9 33q-10 10 -35 10z" />
    <glyph glyph-name="g" unicode="g" horiz-adv-x="693" 
d="M621 418h-260q-23 0 -33 -10t-10 -34v-77q0 -25 10 -34t33 -9h99v-21q0 -33 -30 -51q-29 -18 -81 -18q-60 0 -86 26q-26 27 -26 80v187q0 53 26 80q26 26 86 26q43 0 68 -16t39 -50q8 -24 20 -30q11 -6 35 2q36 13 110 39q23 8 29 20q6 13 -2 35q-32 86 -106 133
q-75 46 -193 46q-151 0 -233 -77q-82 -76 -82 -209v-28v-157q0 -133 82 -209q82 -77 233 -77t233 72q82 73 82 182v135q0 24 -10 34q-9 10 -33 10z" />
    <glyph glyph-name="h" unicode="h" horiz-adv-x="707" 
d="M612 728h-116q-24 0 -34 -10q-9 -9 -9 -34v-226h-199v226q0 25 -9 34q-9 10 -34 10h-116q-24 0 -34 -10q-10 -9 -10 -34v-94v-547q0 -24 10 -33q10 -10 34 -10h116q25 0 34 10q9 9 9 33v236h199v-236q0 -24 9 -33q10 -10 34 -10h24h92q24 0 34 10q9 9 9 33v641
q0 25 -9 34q-10 10 -34 10z" />
    <glyph glyph-name="i" unicode="i" horiz-adv-x="306" 
d="M51 686v-121v-524q0 -23 9 -32t32 -9h26h95q23 0 32 9t9 32v645q0 23 -9 32t-32 9h-121q-23 0 -32 -9t-9 -32z" />
    <glyph glyph-name="j" unicode="j" horiz-adv-x="601" 
d="M512 728h-118q-24 0 -34 -10q-9 -9 -9 -33v-433q0 -45 -18 -66q-19 -22 -57 -22q-30 0 -48 16t-31 46q-10 23 -22 28q-13 5 -36 -3q-35 -13 -106 -38q-23 -8 -29 -21q-3 -5 -3 -13q0 -9 5 -21q30 -82 95 -128q65 -45 171 -45q139 0 211 71q71 71 71 197v432q0 24 -9 33
q-9 10 -33 10z" />
    <glyph glyph-name="k" unicode="k" horiz-adv-x="671" 
d="M659 50q-33 64 -135 256q-13 26 -28 46q-15 19 -34 33l186 297q12 20 6 32q-7 13 -30 13h-118q-40 0 -54 -7q-13 -7 -28 -31q-49 -77 -148 -232h-22v227q0 24 -9 33q-9 10 -34 10h-116q-24 0 -34 -10q-10 -9 -10 -33v-94v-547q0 -24 10 -33q10 -10 34 -10h25h91
q25 0 34 10q9 9 9 33v235h18q30 0 44 -14q14 -13 26 -38q30 -61 89 -183q13 -27 32 -35t59 -8h111q25 0 31 15q2 5 2 11q0 11 -7 24z" />
    <glyph glyph-name="l" unicode="l" horiz-adv-x="555" 
d="M211 727h-116q-24 0 -34 -10q-10 -9 -10 -33v-94v-547q0 -24 10 -33q10 -10 34 -10h87h319q24 0 33 10q10 9 10 33v93q0 25 -10 34q-9 9 -33 9h-247v505q0 24 -9 33q-9 10 -34 10z" />
    <glyph glyph-name="m" unicode="m" horiz-adv-x="845" 
d="M750 728h-103q-25 0 -36 -6q-10 -6 -21 -27q-56 -110 -169 -330q-42 82 -169 331q-11 20 -22 26q-12 6 -39 6h-96q-24 0 -34 -9t-10 -34v-94v-549q0 -24 10 -33t34 -9h105q24 0 34 9t10 33v145q0 53 -1 71q0 18 -1 69h7q6 0 8 -5t18 -34q21 -39 61 -116q8 -17 18 -23
q10 -7 31 -7h69q20 0 30 8q10 7 19 22q19 39 57 116q16 31 20 37q4 5 7 5h8q1 -56 0 -73v-69v-146q0 -24 9 -33t34 -9h24h88q24 0 34 9t10 33v643q0 25 -10 34t-34 9z" />
    <glyph glyph-name="n" unicode="n" horiz-adv-x="717" 
d="M623 727h-105q-24 0 -34 -10q-9 -9 -9 -33v-168v-40v-30v-37t-1 -20h-11q-2 1 -6 7q-5 6 -30 48q-56 88 -168 263q-7 10 -16 15t-27 5h-121q-24 0 -34 -10q-10 -9 -10 -33v-94v-547q0 -24 10 -33q10 -10 34 -10h104q24 0 34 10q10 9 10 33v167v44v31q-1 30 -1 37
q0 8 1 14h18q34 -56 23 -38t23 -35q53 -81 158 -243q7 -10 16 -15q10 -5 26 -5h24h92q23 0 33 10q10 9 10 33v641q0 24 -10 33q-10 10 -33 10z" />
    <glyph glyph-name="o" unicode="o" 
d="M34 456v-21v-164q0 -133 81 -209q82 -77 234 -77q151 0 233 77q82 76 82 209v185q0 133 -82 209q-82 77 -233 77q-152 0 -234 -77q-81 -76 -81 -209zM461 465v-203q0 -48 -30 -73q-29 -25 -82 -25q-54 0 -83 25t-29 73v203q0 48 29 73t83 25q53 0 82 -25q30 -25 30 -73z
" />
    <glyph glyph-name="p" unicode="p" horiz-adv-x="663" 
d="M378 727h-283q-24 0 -34 -10q-10 -9 -10 -33v-94v-547q0 -24 10 -33q10 -10 34 -10h25h91q25 0 34 10q9 9 9 33v175h126q119 0 190 66q72 66 72 187q0 122 -72 189t-192 67zM355 397h-101v151h101q36 0 57 -21q20 -21 20 -55t-20 -54q-21 -21 -57 -21z" />
    <glyph glyph-name="q" unicode="q" horiz-adv-x="712" 
d="M673 36q-14 16 -57 66q24 34 36 76q12 43 12 93v185q0 133 -82 209q-82 77 -233 77q-152 0 -234 -77q-81 -76 -81 -209v-28v-157q0 -133 81 -209q82 -77 234 -77q32 0 61 3q30 4 55 11q22 -26 66 -79q16 -18 30 -19h1q13 0 30 14q25 20 76 59q18 17 19 30v2q0 12 -14 30z
M237 262v203q0 48 29 73t83 25q53 0 82 -25q30 -25 30 -73v-203q0 -48 -30 -73q-29 -25 -82 -25q-54 0 -83 25t-29 73z" />
    <glyph glyph-name="r" unicode="r" horiz-adv-x="677" 
d="M387 727h-292q-24 0 -34 -10q-10 -9 -10 -33v-94v-547q0 -24 10 -33q10 -10 34 -10h25h91q25 0 34 10q9 9 9 33v199h24q31 0 47 -13t29 -40q22 -46 66 -140q12 -27 33 -38q20 -11 61 -11h111q25 0 31 15q2 5 2 11q0 11 -7 24q-30 59 -92 175q-6 13 -13 23q-7 11 -15 21
q53 29 82 83q29 53 29 128q0 119 -69 183q-70 64 -186 64zM432 481q0 -31 -18 -50q-17 -18 -49 -18h-111v135h111q33 0 50 -18t17 -49z" />
    <glyph glyph-name="s" unicode="s" horiz-adv-x="663" 
d="M29 513q0 -52 14 -89t38 -62q44 -46 111 -62q66 -16 124 -24q51 -6 86 -18q34 -12 34 -42q0 -33 -29 -46q-29 -12 -80 -12q-43 0 -73 13q-29 14 -43 41q-12 22 -25 26q-12 4 -35 -4q-33 -11 -97 -34q-22 -9 -29 -21q-3 -6 -3 -14q0 -9 5 -22q29 -80 106 -119t192 -39
q136 0 226 60q91 60 91 173q0 94 -42 142q-42 47 -101 68q-31 12 -65 18q-33 6 -64 11q-56 7 -95 18t-39 44q0 27 22 40q23 13 75 13q35 0 62 -12t41 -41q13 -22 24 -26q11 -5 32 5q34 14 102 44q23 9 29 22t-5 35q-36 74 -104 109q-68 34 -181 34q-147 0 -226 -64
q-78 -64 -78 -165z" />
    <glyph glyph-name="t" unicode="t" horiz-adv-x="617" 
d="M562 727h-507q-24 0 -33 -10q-10 -9 -10 -33v-14v-78q0 -25 10 -34q9 -10 33 -10h153v-505q0 -24 9 -33q9 -10 34 -10h24h92q24 0 34 10q10 9 10 33v505h151q25 0 34 10q10 9 10 34v92q0 24 -10 33q-9 10 -34 10z" />
    <glyph glyph-name="u" unicode="u" horiz-adv-x="709" 
d="M249 258v426q0 24 -10 33q-10 10 -34 10h-116q-24 0 -34 -10q-9 -9 -9 -33v-104v-313q0 -129 79 -206q78 -76 229 -76q152 0 231 76q79 77 79 206v417q0 24 -10 33q-10 10 -34 10h-116q-25 0 -34 -10q-9 -9 -9 -33v-426q0 -45 -27 -70q-27 -24 -80 -24t-79 24
q-26 25 -26 70z" />
    <glyph glyph-name="v" unicode="v" 
d="M666 727h-116q-38 0 -53 -10q-15 -9 -21 -33q-32 -117 -97 -351q-13 -46 -20 -67l-6 -22q-1 0 -3 2l-6 21q-6 22 -18 67q-33 117 -98 350q-6 24 -22 33q-15 10 -54 10h-117q-23 0 -30 -11q-4 -5 -4 -12q0 -8 4 -19q76 -217 227 -651q7 -20 19 -27t35 -7h27h101q22 0 34 7
q11 7 19 29q75 216 226 649q4 11 5 20q0 7 -3 11q-6 11 -29 11z" />
    <glyph glyph-name="w" unicode="w" horiz-adv-x="962" 
d="M921 727h-114q-28 0 -41 -7t-17 -31q-15 -89 -43 -268q-7 -42 -9 -56q-2 -13 -7 -46h-5q-6 28 -8 33q-1 4 0 5q-3 11 -6 26q-4 15 -8 38q-21 89 -63 268q-5 24 -19 31t-38 7h-111q-24 0 -38 -7q-14 -6 -19 -31q-21 -89 -64 -268q-9 -42 -11 -55q-2 -12 -8 -45q-3 2 -4 1
q-2 -2 -3 0q-4 35 -6 47t-9 52q-15 89 -45 268q-4 24 -17 31t-40 7h-126q-24 0 -28 -10q-3 -5 -3 -12q0 -9 3 -20l162 -651q5 -21 18 -27q13 -7 35 -7h118q22 0 34 7q13 7 19 29q18 79 55 236q10 50 14 64q3 14 8 43h5q7 -31 10 -44q3 -14 13 -63q18 -79 55 -238
q5 -20 18 -27t35 -7h26h94q22 0 34 7q13 7 18 29q55 216 163 649q3 11 3 20q0 7 -2 12q-5 10 -28 10z" />
    <glyph glyph-name="x" unicode="x" horiz-adv-x="680" 
d="M671 43q-54 82 -213 328q50 79 202 315q11 17 6 29q-4 12 -26 12h-131q-35 0 -50 -5q-14 -5 -29 -31q-30 -52 -91 -157q-23 39 -92 157q-15 24 -30 30t-55 6h-122q-22 0 -27 -12t5 -29l201 -315q-52 -82 -210 -328q-8 -13 -8 -23q0 -4 1 -8q6 -12 29 -12h126q41 0 56 7
q14 7 29 31q31 56 94 168q24 -42 97 -168q15 -26 30 -32t54 -6h28h104q24 0 29 13q2 4 1 8q0 10 -8 22z" />
    <glyph glyph-name="y" unicode="y" horiz-adv-x="691" 
d="M662 727h-118q-38 0 -54 -5q-16 -6 -30 -33q-38 -69 -113 -209q-27 52 -109 209q-15 27 -31 33q-16 5 -54 5h-123q-24 0 -28 -13q-1 -3 -2 -7q0 -10 8 -23q79 -134 236 -402v-239q0 -24 9 -33q10 -10 35 -10h24h91q25 0 34 10q9 9 9 33v239q60 100 237 402q7 12 7 22
q0 4 -1 8q-4 13 -27 13z" />
    <glyph glyph-name="z" unicode="z" horiz-adv-x="626" 
d="M550 727h-475q-24 0 -34 -10q-9 -9 -9 -33v-92q0 -25 9 -34q10 -10 34 -10h250l-284 -400q-7 -9 -11 -19q-3 -10 -3 -24v-62q0 -24 9 -33q10 -10 34 -10h103h382q25 0 34 10q9 9 9 33v93q0 25 -9 34t-34 9h-259q71 100 284 399q6 10 10 20q3 10 3 25v61q0 24 -9 33
q-10 10 -34 10z" />
    <glyph glyph-name="braceleft" unicode="{" horiz-adv-x="420" 
d="M364 877h-102q-86 0 -120 -36q-34 -35 -34 -112v-192q0 -33 -14 -60q-13 -26 -51 -26h-6q-19 0 -26 -10q-7 -9 -7 -29v-21v-83q0 -21 8 -30q7 -9 25 -9h6q38 0 51 -26q14 -27 14 -60v-187q0 -77 34 -112t123 -35h99q21 0 30 9q8 9 8 30v86q0 23 -8 31q-9 8 -30 8h-51
q-10 0 -16 7q-7 7 -7 17v183q0 52 -19 87q-18 36 -60 53q33 20 56 55q23 34 23 85v189q0 10 7 17q6 7 16 7h51q21 0 30 8q8 8 8 31v86q0 21 -8 30q-9 9 -30 9z" />
    <glyph glyph-name="bar" unicode="|" horiz-adv-x="286" 
d="M197 877h-107q-22 0 -30 -9q-9 -9 -9 -30v-238v-712q0 -21 9 -30q8 -9 30 -9h107q22 0 30 9q9 9 9 30v950q0 21 -9 30q-8 9 -30 9z" />
    <glyph glyph-name="braceright" unicode="}" horiz-adv-x="420" 
d="M158 877h-101q-22 0 -30 -9q-9 -9 -9 -30v-13v-73q0 -23 9 -31q8 -8 30 -8h49q11 0 18 -7t7 -17v-189q0 -51 23 -85q23 -35 55 -55q-42 -17 -60 -53q-18 -35 -18 -87v-183q0 -10 -7 -17q-6 -7 -16 -7h-51q-22 0 -30 -8q-9 -8 -9 -31v-86q0 -21 9 -30q8 -9 30 -9h99
q88 0 123 35q34 35 34 112v187q0 33 13 60q12 26 51 26h6q18 0 25 9q8 9 8 30v104q0 20 -7 29q-7 10 -25 10h-7q-39 0 -51 26q-13 27 -13 60v192q0 77 -34 112q-35 36 -121 36z" />
    <glyph glyph-name="asciitilde" unicode="~" horiz-adv-x="584" 
d="M50 378q-18 -16 -18 -30h1q0 -14 17 -31l66 -60q16 -16 26 -17q11 -1 30 15q11 8 25 14q14 5 32 5q41 0 73 -17t95 -17q42 0 76 14q33 14 59 38q19 16 19 30v1q-1 14 -19 30q-21 20 -64 61q-17 16 -27 16h-1q-10 1 -28 -14q-12 -9 -26 -15t-32 -6q-40 0 -73 18
q-33 17 -96 17q-41 0 -75 -14q-33 -14 -60 -38z" />
    <glyph glyph-name="exclamdown" unicode="&#xa1;" horiz-adv-x="284" 
d="M116 344h51q46 0 63 17q18 18 18 64v35q0 46 -18 63q-17 17 -63 17h-51q-46 0 -64 -17q-17 -17 -17 -63v-35q0 -46 17 -64q18 -17 64 -17zM84 -225h117q22 0 31 8q8 9 8 28v3q-6 146 -18 440q-1 22 -8 31q-8 8 -31 8h-83q-22 0 -30 -8q-8 -9 -9 -31q-5 -147 -16 -440v-3
q0 -19 8 -28q9 -8 31 -8z" />
    <glyph glyph-name="cent" unicode="&#xa2;" horiz-adv-x="558" 
d="M498 182q-25 8 -99 30q-23 8 -35 3q-12 -6 -21 -29t-23 -32q-14 -10 -37 -10q-26 0 -41 15q-14 15 -14 41v133q0 26 14 41q14 14 41 14q23 0 37 -9q14 -10 23 -33t21 -29t35 1q32 11 97 32q21 8 28 20q6 12 -2 36q-16 45 -52 81q-37 35 -95 51v47q0 22 -9 30q-9 9 -30 9
h-94q-23 0 -31 -9q-8 -8 -8 -30v-46q-85 -20 -125 -76q-40 -57 -40 -140v-17v-95q0 -88 39 -145q40 -57 126 -74v-38q0 -22 8 -31q8 -8 31 -8h94q21 0 30 8q9 9 9 31v42q56 14 93 48q36 34 56 82q6 14 6 24q0 7 -3 13q-7 12 -29 19z" />
    <glyph glyph-name="sterling" unicode="&#xa3;" horiz-adv-x="691" 
d="M110 509v-100h-32t-34 -10q-9 -10 -9 -34v-63q0 -24 9 -34q10 -10 34 -10h27v-21q-1 -25 -12 -43q-10 -17 -32 -24q-2 0 -6 -1q-13 -2 -16 -13q-4 -11 -4 -26v-87q0 -24 9 -33q8 -10 33 -10h114h418q25 0 35 10q9 9 9 33v86q0 25 -9 34q-10 10 -35 10h-183q-64 0 -106 -9
q-42 -8 -52 -10q0 2 -1 6q18 12 30 30q13 17 14 50v18h177q25 0 35 10q9 10 9 34v63q0 24 -9 34q-10 10 -35 10h-172v91q0 27 17 45t49 18q31 0 49 -14q19 -14 36 -47q11 -24 22 -30q10 -6 33 2q36 13 109 40q22 8 29 20q3 6 3 13q0 9 -6 22q-30 77 -97 125t-184 48
q-128 0 -197 -68t-69 -165z" />
    <glyph glyph-name="currency" unicode="&#xa4;" horiz-adv-x="662" 
d="M612 193l-54 54q9 23 15 47q6 25 6 51t-6 51q-6 24 -15 47q18 18 54 55q16 15 16 27q0 13 -16 28q-24 25 -73 74q-16 15 -28 15t-28 -15q-18 -19 -55 -56q-22 10 -46 16q-24 5 -50 5t-51 -5q-24 -6 -48 -16q-18 19 -55 56q-15 15 -27 15q-13 0 -28 -15l-74 -74
q-15 -15 -15 -28q0 -12 15 -27q19 -19 56 -57q-10 -22 -15 -46t-5 -50t5 -50t15 -46q-18 -19 -56 -56q-15 -16 -15 -28t15 -28q25 -24 74 -74q15 -15 28 -15q12 0 27 15q19 19 55 56q24 -10 48 -15q25 -6 51 -6t50 6q24 5 46 15q18 -19 55 -56q16 -15 28 -15t28 15
q24 25 73 74q16 16 16 28t-16 28zM332 428q34 0 59 -24q24 -24 24 -59t-24 -60q-25 -24 -59 -24q-36 0 -60 24q-24 25 -25 60q1 35 25 59t60 24z" />
    <glyph glyph-name="yen" unicode="&#xa5;" horiz-adv-x="721" 
d="M672 727h-113q-38 0 -54 -5q-16 -6 -30 -33q-37 -69 -113 -209q-27 52 -109 209q-15 27 -31 33q-16 5 -54 5h-119q-24 0 -28 -13q-2 -3 -2 -7q0 -10 9 -23q60 -93 180 -281h-53q-22 0 -31 -8q-8 -9 -8 -30v-50q0 -21 8 -30q9 -9 31 -9h108v-35h-108q-22 0 -31 -9
q-8 -9 -8 -30v-49q0 -22 8 -31q9 -8 31 -8h104v-71q0 -24 10 -33q10 -10 34 -10h25h91q24 0 34 10q9 9 9 33v71h104q22 0 30 8q9 9 9 31v49q0 21 -9 30q-8 9 -30 9h-108v35h108q22 0 30 9q9 9 9 30v50q0 21 -9 30q-8 8 -30 8h-53q45 71 181 281q8 12 8 22q0 5 -2 8
q-4 13 -28 13z" />
    <glyph glyph-name="brokenbar" unicode="&#xa6;" horiz-adv-x="292" 
d="M200 877h-107q-22 0 -30 -9q-9 -9 -9 -30v-95v-281q0 -22 9 -30q8 -8 30 -8h107q21 0 29 8q9 8 9 30v376q0 21 -9 30q-8 9 -29 9zM200 303h-107q-22 0 -30 -8q-9 -8 -9 -30v-94v-282q0 -21 9 -30q8 -9 30 -9h107q21 0 29 9q9 9 9 30v376q0 22 -9 30q-8 8 -29 8z" />
    <glyph glyph-name="section" unicode="&#xa7;" horiz-adv-x="638" 
d="M51 532q0 -57 19 -92t48 -56q-39 -25 -60 -62t-21 -83q0 -47 15 -79t40 -53q46 -39 112 -50t117 -20q33 -6 55 -15q22 -10 22 -31q0 -26 -20 -39t-66 -13q-43 0 -67 12t-36 44q-10 24 -23 31q-12 6 -36 -3l-84 -33q-24 -9 -31 -22q-4 -6 -4 -15t5 -22q30 -78 102 -117
q73 -38 179 -38q140 0 213 58t73 152q0 59 -18 95q-18 35 -48 56q30 25 45 58q16 34 16 75q0 82 -43 121q-42 40 -98 58q-30 10 -60 16q-31 7 -57 12q-37 8 -61 19q-25 10 -25 33q0 25 17 37q18 13 55 13q33 0 56 -12q22 -11 38 -41q13 -23 25 -28q13 -4 35 6q27 11 81 35
q25 11 31 25q5 13 -6 36q-34 72 -95 107t-164 35q-139 0 -207 -56q-69 -56 -69 -154zM307 321q36 -8 62 -22q25 -13 26 -43q1 -3 0 -7q0 -18 -7 -32q-9 -16 -21 -28q-11 1 -31 4q-39 5 -66 17q-27 13 -27 48q-1 3 -1 6q0 19 10 34q11 17 24 29q8 -3 16 -4q8 -2 15 -2z" />
    <glyph glyph-name="dieresis" unicode="&#xa8;" horiz-adv-x="450" 
d="M116 751h-8q-43 0 -58 -16q-16 -16 -16 -57v-13q0 -41 16 -58q15 -16 58 -16h8q43 0 59 16q16 17 16 58v13q0 41 -16 57t-59 16zM336 751h-7q-43 0 -60 -16q-16 -16 -16 -57v-13q0 -41 16 -58q17 -16 60 -16h7q43 0 59 16q16 17 16 58v13q0 41 -16 57t-59 16z" />
    <glyph glyph-name="copyright" unicode="&#xa9;" horiz-adv-x="796" 
d="M30 358q0 -53 14 -102t40 -91q49 -79 131 -126q83 -48 183 -48q101 0 183 47q83 47 131 126q26 42 40 91q14 50 14 103q0 54 -14 104q-15 49 -40 92q-49 78 -131 126q-82 47 -183 47q-54 0 -103 -14q-49 -15 -92 -41q-78 -48 -126 -131q-47 -82 -47 -183zM650 358
q0 -106 -72 -179q-73 -74 -180 -74t-180 74q-73 73 -73 179q0 109 73 181t180 72t180 -72q72 -72 72 -181zM238 409v-103q0 -67 41 -108q42 -40 118 -40q62 0 101 25t56 74q7 21 3 29q-5 9 -21 15q-17 6 -50 17q-16 7 -25 2q-8 -5 -16 -23q-6 -15 -17 -23q-12 -7 -31 -7
q-22 0 -34 11q-12 10 -12 28v104q0 18 12 27t34 9q20 0 31 -5q12 -6 18 -23q7 -19 15 -23t25 1q17 6 50 18q16 5 21 14q1 4 1 9q0 9 -4 22q-17 49 -57 73q-40 25 -100 25q-76 0 -118 -40q-41 -40 -41 -108z" />
    <glyph glyph-name="ordfeminine" unicode="&#xaa;" horiz-adv-x="362" 
d="M45 634q-11 -16 -7 -27q4 -10 22 -18q13 -7 38 -20q19 -7 29 -5q9 2 23 15q6 5 12 9q7 5 15 5q10 0 14 -5q5 -4 5 -16v-16q-4 1 -8 1h-7q-87 0 -118 -27q-31 -26 -31 -72q0 -45 29 -71q30 -27 118 -27q37 0 64 5t45 11q22 8 30 18q8 11 8 33v132q0 57 -31 94
q-32 36 -114 36q-43 0 -79 -14q-35 -13 -57 -41zM177 480h19v-30q0 -2 -1 -2l-1 -1h-6q-4 -1 -11 -1q-10 0 -14 4q-4 3 -4 14q0 8 4 12t14 4z" />
    <glyph glyph-name="guillemotleft" unicode="&#xab;" horiz-adv-x="655" 
d="M336 156q-29 29 -117 115q30 30 119 120q14 14 14 24t-14 24q-19 19 -55 58q-13 13 -24 13h-1q-11 0 -25 -13l-201 -204q-14 -14 -14 -25q0 -10 14 -24q65 -66 196 -197q13 -12 24 -13h1q11 1 23 13q20 20 60 59q13 14 13 25q0 12 -13 25zM606 156q-29 29 -117 115
q30 30 119 120q14 14 14 24t-14 24q-18 19 -55 58q-13 13 -24 13h-1q-11 0 -24 -13q-67 -68 -202 -204q-14 -14 -14 -25v0q0 -11 14 -24l197 -197q13 -12 23 -13h1q11 1 24 13l59 59q13 14 13 25q0 12 -13 25z" />
    <glyph glyph-name="logicalnot" unicode="&#xac;" horiz-adv-x="612" 
d="M524 434h-448q-22 0 -30 -8q-9 -8 -9 -31v-22v-68q0 -22 9 -31q8 -9 30 -9h298v-96q0 -22 8 -31q9 -9 31 -9h111q22 0 30 9q9 9 9 31v226q0 23 -9 31q-8 8 -30 8z" />
    <glyph glyph-name="registered" unicode="&#xae;" horiz-adv-x="466" 
d="M28 528q0 -85 60 -145q61 -59 145 -59t144 59q60 60 60 145q0 84 -60 145q-60 60 -144 60t-145 -60q-60 -61 -60 -145zM93 528q0 59 41 100t100 41q58 0 99 -41t41 -100q0 -58 -41 -99q-41 -42 -99 -42q-59 0 -100 42q-41 41 -41 99zM251 630h-84q-11 0 -14 -4t-3 -14
v-42v-128q0 -9 3 -12t14 -3h32q9 0 12 3t3 12v42h9q7 -10 26 -42q5 -9 10 -12q4 -3 17 -3h27q20 0 23 8q3 7 -7 22q-8 12 -25 37q16 8 25 24t9 38q0 35 -21 54q-22 20 -56 20zM246 542h-32v27h32q7 0 10 -4q4 -4 4 -9q0 -7 -4 -11q-3 -3 -10 -3z" />
    <glyph glyph-name="macron" unicode="&#xaf;" horiz-adv-x="360" 
d="M307 727h-250q-19 0 -28 -7q-9 -8 -9 -30v-43q0 -22 8 -29q8 -8 29 -8h250q22 0 29 8q8 7 8 29v43q0 22 -8 30q-7 7 -29 7z" />
    <glyph glyph-name="degree" unicode="&#xb0;" horiz-adv-x="430" 
d="M410 568q0 84 -56 139q-57 56 -138 56q-83 0 -139 -56q-57 -55 -57 -139q0 -82 57 -139q56 -56 139 -56q81 0 137 58q57 57 57 137zM157 567q0 24 17 42t42 18q24 0 41 -18t17 -42t-17 -40q-17 -17 -41 -17q-25 0 -42 17q-17 16 -17 40z" />
    <glyph glyph-name="plusminus" unicode="&#xb1;" horiz-adv-x="601" 
d="M513 515h-130v59q0 25 -10 35q-9 9 -33 9h-80q-24 0 -34 -9q-10 -10 -10 -35v-59h-129q-25 0 -34 -9t-9 -34v-19v-58q0 -24 9 -34q9 -9 34 -9h129v-58q0 -25 10 -34t34 -9h80q24 0 33 9q10 9 10 34v58h130q25 0 34 9q10 10 10 34v77q0 25 -10 34q-9 9 -34 9zM514 226
h-426q-25 0 -34 -9q-10 -10 -10 -34v-20v-62q0 -23 10 -33q9 -10 34 -10h62h364q25 0 34 10t9 33v82q0 24 -9 34q-9 9 -34 9z" />
    <glyph glyph-name="twosuperior" unicode="&#xb2;" horiz-adv-x="384" 
d="M32 732q-6 -15 -6 -26q0 -6 2 -10q5 -12 25 -20q17 -6 51 -19q23 -8 32 -2q9 7 20 27q7 14 16 19t19 5q12 0 18 -7q5 -7 5 -17q0 -18 -8 -26q-9 -8 -28 -15q-18 -6 -54 -19q-58 -20 -78 -51q-19 -30 -19 -87v-33q0 -19 8 -27t28 -8h253q21 0 28 8t7 27v48q0 20 -7 28
q-8 8 -30 8h-118v2q0 3 6 5q6 3 15 5q15 4 44 12q55 16 76 52t21 87q0 60 -41 95q-42 35 -118 35q-71 0 -110 -25q-39 -26 -57 -71z" />
    <glyph glyph-name="threesuperior" unicode="&#xb3;" horiz-adv-x="389" 
d="M27 735q-7 -20 -1 -30t19 -16q13 -5 38 -16q24 -10 35 -4q11 7 18 24q9 19 22 25q12 7 31 7q17 0 24 -5q8 -6 8 -17q0 -13 -8 -17q-9 -5 -24 -5h-19q-21 0 -26 -7q-6 -6 -6 -25v-51q0 -18 6 -24q5 -6 23 -6h29q18 0 25 -5q6 -6 6 -18q0 -10 -8 -15q-9 -6 -26 -6
q-18 0 -33 5q-14 5 -23 23q-9 19 -19 24q-11 5 -34 -3q-15 -5 -45 -16q-17 -6 -20 -17q-1 -4 -1 -10q0 -8 4 -20q16 -52 61 -75q45 -22 116 -22q83 0 125 32q43 32 43 89q0 29 -12 55q-11 26 -41 42q24 17 32 36t8 47q0 57 -41 88q-41 32 -114 32t-114 -25t-58 -74z" />
    <glyph glyph-name="acute" unicode="&#xb4;" horiz-adv-x="263" 
d="M151 752q-36 -22 -143 -86q-13 -8 -13 -16v-1q0 -8 11 -22q10 -12 30 -34q7 -10 17 -10h1q11 1 29 7q61 20 184 61q19 7 19 17q0 9 -14 24q-18 19 -54 58q-14 15 -29 15q-2 0 -4 -1q-17 -2 -34 -12z" />
    <glyph glyph-name="paragraph" unicode="&#xb6;" horiz-adv-x="716" 
d="M620 727h-342q-114 0 -185 -71q-70 -70 -70 -184q0 -112 69 -183q69 -70 180 -72v-269q0 -22 9 -30q8 -9 30 -9h89q23 0 31 9q8 8 8 30v601h53v-601q0 -22 8 -30q9 -9 30 -9h90q22 0 31 9q8 8 8 30v740q0 22 -8 30q-9 9 -31 9z" />
    <glyph glyph-name="periodcentered" unicode="&#xb7;" horiz-adv-x="288" 
d="M164 418h-39q-46 0 -64 -18q-17 -18 -17 -63v-42q0 -45 17 -63q18 -17 64 -17h39q45 0 62 17q18 18 18 63v42q0 45 -18 63q-17 18 -62 18z" />
    <glyph glyph-name="cedilla" unicode="&#xb8;" horiz-adv-x="257" 
d="M177 -47h-9q4 12 17 47h-24h-73q-10 -22 -39 -87q-7 -16 -3 -23q3 -8 17 -8h22q25 -1 34 -6t9 -16q0 -10 -8 -17t-27 -7q-18 0 -31 4q-12 5 -26 12q-17 9 -24 3q-8 -5 -8 -20v-8v-35q0 -11 5 -18q6 -7 22 -14q20 -7 39 -9q20 -2 38 -2q53 0 100 21q46 21 53 82q1 7 1 14
q0 32 -19 57q-22 29 -66 30z" />
    <glyph glyph-name="onesuperior" unicode="&#xb9;" horiz-adv-x="304" 
d="M217 825h-34q-15 0 -26 -2q-11 -3 -22 -9q-36 -21 -107 -62q-20 -11 -23 -24q-1 -3 -1 -7q0 -10 7 -24q8 -13 25 -41q11 -17 25 -21q13 -4 34 7q9 5 28 15v-195q0 -22 8 -32q9 -9 34 -9h55q26 0 35 9q9 10 9 32v320q0 26 -8 35q-9 8 -39 8z" />
    <glyph glyph-name="ordmasculine" unicode="&#xba;" horiz-adv-x="360" 
d="M31 556v-62q0 -63 38 -98q38 -36 111 -36q74 0 112 36q38 35 38 98v62q0 62 -38 98t-112 36q-73 0 -111 -36t-38 -98zM204 558v-65q0 -9 -6 -14q-6 -6 -18 -6q-11 0 -17 6q-6 5 -6 14v65q0 9 6 14q6 6 17 6q12 0 18 -6q6 -5 6 -14z" />
    <glyph glyph-name="guillemotright" unicode="&#xbb;" horiz-adv-x="655" 
d="M47 391l120 -120q-30 -29 -118 -115q-13 -13 -13 -25q0 -11 13 -25q20 -19 60 -59q12 -13 23 -13h1q11 1 24 13l197 197q14 13 14 23v1q-1 11 -14 25q-67 68 -202 204q-13 13 -24 13h-1q-11 0 -25 -13q-18 -19 -55 -58q-13 -13 -13 -23v-1q0 -10 13 -24zM317 391
q30 -30 119 -120q-29 -29 -117 -115q-13 -13 -13 -25q0 -11 13 -25q20 -19 60 -59q12 -12 23 -13h1q11 1 24 13q66 66 198 197q13 14 13 24q0 11 -13 25q-68 68 -203 204q-12 13 -24 13h-1q-12 0 -24 -13q-19 -19 -56 -58q-13 -14 -13 -24t13 -24z" />
    <glyph glyph-name="onequarter" unicode="&#xbc;" horiz-adv-x="880" 
d="M745 727h-73q-36 0 -49 -6q-14 -6 -31 -30l-477 -648q-10 -12 -10 -22q0 -4 2 -8q6 -13 29 -13h15h54q38 0 52 7q14 6 33 31q159 216 476 648q9 13 9 23q0 3 -2 6q-4 12 -28 12zM233 724h-32q-16 0 -27 -3q-11 -2 -22 -9q-36 -21 -107 -62q-19 -11 -23 -23q-1 -3 -1 -7
q0 -11 8 -24q8 -14 24 -41q12 -18 25 -23q13 -4 35 9q9 5 26 15v-196q0 -22 9 -31q9 -10 34 -10h56q25 0 34 10q9 9 9 31v321q0 26 -9 35q-9 8 -39 8zM765 404h-52q-25 0 -35 -4q-11 -5 -25 -21q-54 -66 -164 -197q-9 -11 -11 -19t-2 -26v-31q0 -19 7 -27t29 -8h164v-36
q0 -19 6 -27t26 -8h14h52q18 0 25 8q8 8 8 27v36h10q22 0 29 6q6 7 6 25v48q0 16 -6 23q-7 7 -29 7h-10v184q0 23 -9 32q-8 8 -33 8zM676 248v-68h-56z" />
    <glyph glyph-name="onehalf" unicode="&#xbd;" horiz-adv-x="891" 
d="M233 727h-32q-16 0 -27 -3q-11 -2 -22 -8q-36 -21 -107 -63q-19 -10 -23 -23q-1 -3 -1 -7q0 -11 8 -24q8 -14 24 -41q12 -18 25 -22t35 8q9 5 26 15v-195q0 -23 9 -32t34 -9h56q25 0 34 9t9 32v320q0 26 -9 35q-9 8 -39 8zM731 727h-74q-35 0 -48 -6q-14 -6 -31 -30
q-160 -216 -478 -648q-8 -12 -9 -22q0 -4 2 -8q6 -13 30 -13h15h53q39 0 52 7q14 6 32 31l477 648q9 13 8 23q0 3 -1 6q-5 12 -28 12zM531 315q-6 -15 -6 -25q0 -6 2 -10q5 -12 26 -20l51 -18q22 -9 32 -2q9 6 19 26q7 13 16 18t20 5q12 0 17 -7q6 -7 6 -16q0 -17 -9 -26
q-8 -9 -27 -16l-54 -18q-58 -20 -78 -50q-20 -31 -20 -87v-34q0 -19 8 -27t29 -8h54h199q21 0 28 8t7 27v48q0 20 -8 28q-7 8 -28 8h-120v1q0 4 6 6q7 3 16 4q14 4 44 13q55 16 76 52q21 35 21 87q0 59 -42 95q-41 36 -117 36q-71 0 -110 -26t-58 -72z" />
    <glyph glyph-name="threequarters" unicode="&#xbe;" horiz-adv-x="899" 
d="M34 644q-7 -21 -1 -31t19 -15q13 -6 38 -17q24 -10 35 -4q11 7 18 25q10 19 22 25t32 6q16 0 24 -6q7 -5 7 -16q0 -13 -8 -17q-9 -5 -23 -5h-20q-21 0 -26 -6q-6 -7 -6 -26v-51q0 -19 6 -24q5 -6 23 -6h29q18 0 25 -5q6 -6 6 -18q0 -10 -8 -15q-9 -5 -26 -5q-18 0 -33 5
q-14 4 -23 22q-9 19 -19 24q-11 6 -34 -3q-15 -5 -45 -16q-17 -6 -20 -18q-1 -4 -1 -9q0 -9 4 -20q17 -52 61 -74q45 -22 116 -22q84 0 126 29q42 30 42 87q0 30 -12 57q-12 26 -40 45q23 17 31 35q8 19 8 48q0 56 -40 88q-41 31 -115 31q-72 0 -113 -25q-42 -25 -59 -73z
M779 727h-73q-36 0 -50 -6q-13 -6 -30 -30q-159 -216 -478 -648q-9 -12 -9 -22q0 -5 2 -8q6 -13 29 -13h15h54q38 0 52 7q14 6 33 31q158 216 476 648q9 13 9 23l-2 6q-5 12 -28 12zM787 404h-52q-24 0 -35 -4q-10 -5 -24 -21q-55 -66 -164 -197q-9 -11 -12 -19
q-2 -8 -2 -26v-31q0 -19 7 -27q8 -8 30 -8h162v-36q0 -19 7 -27t25 -8h14h53q18 0 25 8t7 27v36h12q22 0 28 6q5 7 5 25v48q0 16 -5 23q-6 7 -28 7h-12v184q0 23 -8 32q-8 8 -33 8zM642 180q14 17 55 68v-68h-55z" />
    <glyph glyph-name="questiondown" unicode="&#xbf;" horiz-adv-x="603" 
d="M302 343h51q46 0 63 17q18 17 18 63v36q0 45 -18 62q-17 18 -63 18h-51q-46 0 -63 -18q-18 -17 -18 -62v-36q0 -46 18 -63q17 -17 63 -17zM580 -48q5 13 5 23q0 7 -3 12q-7 13 -29 21q-33 12 -98 37q-23 8 -34 2t-22 -30q-20 -44 -42 -65q-22 -22 -62 -22q-37 0 -54 17
q-18 16 -18 42q0 50 35 69q34 20 73 44q34 20 60 56t26 109q0 23 -10 32q-9 9 -31 9h-93q-23 0 -32 -9t-9 -32q0 -18 -11 -31q-11 -14 -28 -25q-30 -21 -72 -43t-72 -62q-16 -22 -26 -52q-9 -29 -9 -68q0 -93 70 -153q71 -59 200 -59q118 0 186 49q68 50 100 129z" />
    <glyph glyph-name="Agrave" unicode="&#xc0;" horiz-adv-x="705" 
d="M278 936q-14 -15 -53 -62q-13 -16 -13 -25t19 -15q62 -20 186 -58q18 -6 28 -6h1q10 0 18 10q9 12 29 35q11 13 11 22v1q-1 8 -15 16q-48 28 -144 85q-18 10 -35 12h-4q-16 0 -28 -15zM700 42q-59 163 -236 651q-8 20 -19 27q-12 7 -34 7h-117q-22 0 -34 -7t-19 -29
q-79 -216 -236 -649q-4 -12 -4 -21q0 -6 2 -10q6 -11 30 -11h107q39 0 53 10q14 9 22 33q8 25 24 74h221q6 -19 23 -74q6 -24 22 -33q15 -10 55 -10h24h87q23 0 30 11q3 5 3 12q0 8 -4 19zM376 397q9 -30 38 -119h-128q9 30 38 120q15 52 17 97l2 46h10l4 -46q3 -45 19 -98z
" />
    <glyph glyph-name="Aacute" unicode="&#xc1;" horiz-adv-x="705" 
d="M362 936q-36 -21 -144 -83q-13 -8 -14 -16v-1q0 -8 12 -22q9 -11 28 -34q8 -10 18 -10t29 5q62 19 186 58q19 6 19 16q0 9 -14 24q-17 20 -52 60q-14 15 -29 15h-4q-17 -2 -35 -12zM700 42q-59 163 -236 651q-8 20 -19 27q-12 7 -34 7h-117q-22 0 -34 -7t-19 -29
q-79 -216 -236 -649q-4 -12 -4 -21q0 -6 2 -10q6 -11 30 -11h107q39 0 53 10q14 9 22 33q8 25 24 74h221q6 -19 23 -74q6 -24 22 -33q15 -10 55 -10h24h87q23 0 30 11q3 5 3 12q0 8 -4 19zM376 397q9 -30 38 -119h-128q9 30 38 120q15 52 17 97l2 46h10l4 -46q3 -45 19 -98z
" />
    <glyph glyph-name="Acircumflex" unicode="&#xc2;" horiz-adv-x="705" 
d="M374 942h-33q-33 0 -46 -5q-12 -5 -33 -26q-35 -34 -104 -104q-11 -11 -11 -21v-3q1 -11 26 -11h81q28 0 41 4q12 3 26 19q10 12 31 35q8 -9 30 -36q11 -15 25 -18q13 -4 43 -4h86q25 0 26 11v2q0 11 -11 22q-35 35 -105 104q-20 21 -33 26q-12 5 -39 5zM700 42
q-59 163 -236 651q-8 20 -19 27q-12 7 -34 7h-117q-22 0 -34 -7t-19 -29q-79 -216 -236 -649q-4 -12 -4 -21q0 -6 2 -10q6 -11 30 -11h107q39 0 53 10q14 9 22 33q8 25 24 74h221q6 -19 23 -74q6 -24 22 -33q15 -10 55 -10h24h87q23 0 30 11q3 5 3 12q0 8 -4 19zM376 397
q9 -30 38 -119h-128q9 30 38 120q15 52 17 97l2 46h10l4 -46q3 -45 19 -98z" />
    <glyph glyph-name="Atilde" unicode="&#xc3;" horiz-adv-x="705" 
d="M502 931h-62q-11 0 -15 -5q-4 -4 -4 -15q0 -12 -4 -17q-5 -5 -11 -5q-26 0 -53 21q-28 21 -87 21q-44 0 -71 -27q-26 -26 -26 -99q0 -12 5 -18t19 -6h62q11 0 15 5t4 16t5 17q4 5 11 5q25 0 52 -21q27 -22 84 -22q48 0 74 28q26 27 26 98q0 13 -5 18q-5 6 -19 6zM700 42
q-59 163 -236 651q-8 20 -19 27q-12 7 -34 7h-117q-22 0 -34 -7t-19 -29q-79 -216 -236 -649q-4 -12 -4 -21q0 -6 2 -10q6 -11 30 -11h107q39 0 53 10q14 9 22 33q8 25 24 74h221q6 -19 23 -74q6 -24 22 -33q15 -10 55 -10h24h87q23 0 30 11q3 5 3 12q0 8 -4 19zM376 397
q9 -30 38 -119h-128q9 30 38 120q15 52 17 97l2 46h10l4 -46q3 -45 19 -98z" />
    <glyph glyph-name="Adieresis" unicode="&#xc4;" horiz-adv-x="705" 
d="M246 936h-8q-43 0 -58 -16q-16 -15 -16 -57v-13q0 -41 16 -57q15 -16 58 -16h8q43 0 59 16q17 16 17 57v13q0 42 -17 57q-16 16 -59 16zM466 936h-7q-43 0 -60 -16q-16 -15 -16 -57v-13q0 -41 16 -57q17 -16 60 -16h7q43 0 59 16t16 57v13q0 42 -16 57q-16 16 -59 16z
M700 42q-59 163 -236 651q-8 20 -19 27q-12 7 -34 7h-117q-22 0 -34 -7t-19 -29q-79 -216 -236 -649q-4 -12 -4 -21q0 -6 2 -10q6 -11 30 -11h107q39 0 53 10q14 9 22 33q8 25 24 74h221q6 -19 23 -74q6 -24 22 -33q15 -10 55 -10h24h87q23 0 30 11q3 5 3 12q0 8 -4 19z
M376 397q9 -30 38 -119h-128q9 30 38 120q15 52 17 97l2 46h10l4 -46q3 -45 19 -98z" />
    <glyph glyph-name="Aring" unicode="&#xc5;" horiz-adv-x="705" 
d="M205 779q0 -28 10 -51t29 -40q-80 -215 -239 -646q-4 -12 -4 -21q0 -6 2 -10q6 -11 30 -11h107q39 0 53 10q14 9 22 33q8 25 24 74h221q6 -19 23 -74q6 -24 22 -33q15 -10 55 -10h24h87q23 0 30 11q3 5 3 12q0 8 -4 19q-79 216 -238 647q19 16 28 39q10 24 10 51
q0 62 -41 99q-40 36 -105 36t-107 -35t-42 -100zM395 777q0 -19 -11 -30q-12 -11 -30 -11q-20 0 -33 12t-13 29q0 19 13 31q13 11 33 11q18 0 30 -11q11 -12 11 -31zM377 397q9 -30 37 -119h-128q9 30 37 120q15 52 17 96l3 45h10l4 -45q4 -44 20 -97z" />
    <glyph glyph-name="AE" unicode="&#xc6;" horiz-adv-x="927" 
d="M858 179h-209v99h147q23 0 33 9q10 10 10 35v92q0 24 -10 33q-10 10 -33 10h-147v91h201q24 0 34 10q9 9 9 34v92q0 24 -9 33q-10 10 -34 10h-374q-22 0 -31 -8q-10 -8 -22 -28q-141 -216 -424 -649q-6 -11 -6 -20q0 -6 3 -11q7 -11 31 -11h105q41 0 54 9q14 9 26 29
q15 23 44 70h205v-65q0 -24 10 -33q9 -10 34 -10h75h278q25 0 34 10q9 9 9 33v93q0 25 -9 34t-34 9zM461 262h-106q27 42 106 167v-167z" />
    <glyph glyph-name="Ccedilla" unicode="&#xc7;" horiz-adv-x="667" 
d="M621 219q-28 10 -110 39q-23 8 -35 2q-11 -6 -20 -30q-13 -33 -38 -49q-26 -17 -69 -17q-60 0 -86 26q-26 27 -26 80v187q0 53 26 80q26 26 86 26q43 0 68 -16t39 -50q8 -24 20 -30q11 -5 35 2q36 13 110 39q23 8 29 20q2 6 2 13q0 10 -4 22q-32 86 -106 133
q-75 46 -193 46q-151 0 -233 -77q-82 -76 -82 -209v-28v-157q0 -120 68 -195t194 -88l-33 -75q-8 -16 -4 -23q3 -8 17 -8h22q25 -1 34 -6t9 -16q0 -10 -8 -17t-27 -7q-18 0 -31 4q-12 5 -26 12q-17 9 -24 3q-8 -5 -8 -20v-43q0 -11 6 -18t22 -14q19 -7 38 -9q20 -2 38 -2
q53 0 100 21t54 82q5 41 -18 71q-23 29 -67 30h-9q3 8 13 34q99 7 162 53t92 124q8 22 2 35q-6 12 -29 20z" />
    <glyph glyph-name="Egrave" unicode="&#xc8;" horiz-adv-x="602" 
d="M236 936q-14 -15 -53 -62q-13 -16 -13 -25t18 -15q63 -20 187 -58q18 -6 28 -6v0q10 0 19 10q9 12 28 35q11 13 12 22v1q-1 8 -15 16q-48 28 -144 85q-18 10 -35 12h-4q-16 0 -28 -15zM524 727h-429q-24 0 -34 -10q-10 -9 -10 -33v-94v-547q0 -24 10 -33q10 -10 34 -10
h94h345q23 0 33 10q10 9 10 33v93q0 25 -10 34t-33 9h-280v99h216q25 0 34 9q10 10 10 35v92q0 24 -10 33q-9 10 -34 10h-216v91h270q25 0 35 10q9 9 9 34v92q0 24 -9 33q-10 10 -35 10z" />
    <glyph glyph-name="Eacute" unicode="&#xc9;" horiz-adv-x="602" 
d="M321 936q-37 -21 -145 -83q-13 -8 -14 -16v-1q0 -8 11 -22q10 -11 29 -34q7 -10 18 -10q10 0 29 5q62 19 185 58q19 6 20 16v0q0 10 -14 24q-17 20 -52 60q-14 15 -29 15h-4q-17 -2 -34 -12zM524 727h-429q-24 0 -34 -10q-10 -9 -10 -33v-94v-547q0 -24 10 -33
q10 -10 34 -10h94h345q23 0 33 10q10 9 10 33v93q0 25 -10 34t-33 9h-280v99h216q25 0 34 9q10 10 10 35v92q0 24 -10 33q-9 10 -34 10h-216v91h270q25 0 35 10q9 9 9 34v92q0 24 -9 33q-10 10 -35 10z" />
    <glyph glyph-name="Ecircumflex" unicode="&#xca;" horiz-adv-x="602" 
d="M331 942h-33q-32 0 -45 -5t-33 -26q-35 -34 -104 -104q-12 -11 -12 -22q0 -1 1 -2q1 -11 26 -11h80q29 0 42 4q12 3 26 19q10 12 31 35q8 -9 30 -36q11 -15 24 -18q13 -4 44 -4h86q24 0 26 11v3q0 10 -11 21q-35 35 -105 104q-21 21 -33 26q-13 5 -40 5zM524 727h-429
q-24 0 -34 -10q-10 -9 -10 -33v-94v-547q0 -24 10 -33q10 -10 34 -10h94h345q23 0 33 10q10 9 10 33v93q0 25 -10 34t-33 9h-280v99h216q25 0 34 9q10 10 10 35v92q0 24 -10 33q-9 10 -34 10h-216v91h270q25 0 35 10q9 9 9 34v92q0 24 -9 33q-10 10 -35 10z" />
    <glyph glyph-name="Edieresis" unicode="&#xcb;" horiz-adv-x="602" 
d="M204 936h-8q-43 0 -58 -16q-16 -15 -16 -57v-13q0 -41 16 -57q15 -16 58 -16h8q42 0 58 16q17 16 17 57v13q0 42 -17 57q-16 16 -58 16zM424 936h-7q-43 0 -60 -16q-16 -15 -16 -57v-13q0 -41 16 -57q17 -16 60 -16h7q42 0 58 16t16 57v13q0 42 -16 57q-16 16 -58 16z
M524 727h-429q-24 0 -34 -10q-10 -9 -10 -33v-94v-547q0 -24 10 -33q10 -10 34 -10h94h345q23 0 33 10q10 9 10 33v93q0 25 -10 34t-33 9h-280v99h216q25 0 34 9q10 10 10 35v92q0 24 -10 33q-9 10 -34 10h-216v91h270q25 0 35 10q9 9 9 34v92q0 24 -9 33q-10 10 -35 10z
" />
    <glyph glyph-name="Igrave" unicode="&#xcc;" horiz-adv-x="306" 
d="M79 936q-13 -15 -52 -62q-13 -16 -14 -25q0 -9 19 -15q62 -20 186 -58q17 -6 28 -6v0q11 0 19 10q9 12 28 35q12 13 12 22v1q0 8 -14 16q-48 28 -145 85q-17 10 -35 12h-4q-15 0 -28 -15zM51 686v-121v-524q0 -23 9 -32t32 -9h26h95q23 0 32 9t9 32v645q0 23 -9 32t-32 9
h-121q-23 0 -32 -9t-9 -32z" />
    <glyph glyph-name="Iacute" unicode="&#xcd;" horiz-adv-x="306" 
d="M164 936q-36 -21 -145 -83q-13 -8 -14 -16v-1q0 -8 11 -22q10 -11 29 -34q8 -10 18 -10q11 0 29 5q62 19 186 58q18 6 18 16v0q0 10 -12 24q-18 20 -53 60q-13 15 -28 15h-4q-17 -2 -35 -12zM51 686v-121v-524q0 -23 9 -32t32 -9h26h95q23 0 32 9t9 32v645q0 23 -9 32
t-32 9h-121q-23 0 -32 -9t-9 -32z" />
    <glyph glyph-name="Icircumflex" unicode="&#xce;" horiz-adv-x="306" 
d="M174 942h-33q-32 0 -45 -5t-34 -26l-104 -104q-10 -11 -10 -21v-3q1 -11 26 -11h80q29 0 42 4q13 3 25 19q11 12 33 35l28 -36q12 -15 25 -18q13 -4 44 -4h86q24 0 26 11v3q0 10 -11 21q-35 35 -105 104q-21 21 -33 26t-40 5zM51 686v-121v-524q0 -23 9 -32t32 -9h26h95
q23 0 32 9t9 32v645q0 23 -9 32t-32 9h-121q-23 0 -32 -9t-9 -32z" />
    <glyph glyph-name="Idieresis" unicode="&#xcf;" horiz-adv-x="306" 
d="M47 936h-8q-43 0 -58 -16q-16 -15 -16 -57v-13q0 -41 16 -57q15 -16 58 -16h8q42 0 59 16q16 16 16 57v13q0 42 -16 57q-17 16 -59 16zM267 936h-7q-43 0 -59 -16q-17 -15 -17 -57v-13q0 -41 17 -57q16 -16 59 -16h7q43 0 58 16q16 16 16 57v13q0 42 -16 57
q-15 16 -58 16zM51 686v-121v-524q0 -23 9 -32t32 -9h26h95q23 0 32 9t9 32v645q0 23 -9 32t-32 9h-121q-23 0 -32 -9t-9 -32z" />
    <glyph glyph-name="Eth" unicode="&#xd0;" horiz-adv-x="723" 
d="M375 727h-250q-24 0 -33 -10q-10 -9 -10 -33v-250h-47q-13 0 -20 -5q-6 -6 -6 -21v-12v-66q0 -16 6 -22q5 -5 20 -5h47v-260q0 -24 10 -33q9 -10 33 -10h54h196q152 0 234 77q81 78 81 210v153q0 133 -81 210q-82 77 -234 77zM487 437v-147q0 -55 -28 -83t-91 -28h-83
v124h84q14 0 19 5q5 6 5 22v78q0 15 -5 21q-5 5 -19 5h-84v114h83t91 -28t28 -83z" />
    <glyph glyph-name="Ntilde" unicode="&#xd1;" horiz-adv-x="717" 
d="M511 931h-61q-12 0 -16 -5q-4 -4 -4 -15q0 -12 -4 -17t-11 -5q-26 0 -53 21t-87 21q-44 0 -70 -27q-27 -26 -27 -99q0 -12 5 -18q6 -6 19 -6h62q11 0 15 5q5 5 5 16t4 17q4 5 11 5q25 0 52 -21q27 -22 84 -22q49 0 75 28q26 27 26 98q0 13 -5 18q-5 6 -20 6zM623 727
h-105q-24 0 -34 -10q-9 -9 -9 -33v-168q0 -27 1 -50q2 -23 4 -44q5 -39 15 -76q10 -38 26 -89h-8q-25 58 -38 96q-14 38 -48 91q-56 88 -168 263q-7 10 -16 15t-27 5h-121q-24 0 -34 -10q-10 -9 -10 -33v-94v-547q0 -24 10 -33q10 -10 34 -10h104q24 0 34 10q10 9 10 33v167
q0 85 -9 138q-9 52 -25 126h8q21 -69 39 -113q17 -45 51 -98q53 -81 158 -243q7 -10 16 -15q10 -5 26 -5h24h92q23 0 33 10q10 9 10 33v641q0 24 -10 33q-10 10 -33 10z" />
    <glyph glyph-name="Ograve" unicode="&#xd2;" 
d="M274 946q-13 -15 -52 -61q-13 -16 -13 -26q0 -9 18 -15q62 -19 187 -58q17 -5 28 -6v0q10 1 19 11q9 11 27 34q12 14 12 22v1q0 9 -14 16q-48 29 -144 85q-18 10 -35 12h-4q-16 0 -29 -15zM34 456v-21v-164q0 -133 81 -209q82 -77 234 -77q151 0 233 77q82 76 82 209v185
q0 133 -82 209q-82 77 -233 77q-152 0 -234 -77q-81 -76 -81 -209zM461 465v-203q0 -48 -30 -73q-29 -25 -82 -25q-54 0 -83 25t-29 73v203q0 48 29 73t83 25q53 0 82 -25q30 -25 30 -73z" />
    <glyph glyph-name="Oacute" unicode="&#xd3;" 
d="M359 946q-36 -21 -144 -83q-13 -7 -14 -16v-1q0 -8 11 -22q10 -11 29 -33q7 -11 18 -11q10 0 29 5q62 20 185 58q19 7 20 16v1q0 9 -14 24q-17 20 -52 59q-14 15 -29 15h-4q-17 -2 -35 -12zM34 456v-21v-164q0 -133 81 -209q82 -77 234 -77q151 0 233 77q82 76 82 209
v185q0 133 -82 209q-82 77 -233 77q-152 0 -234 -77q-81 -76 -81 -209zM461 465v-203q0 -48 -30 -73q-29 -25 -82 -25q-54 0 -83 25t-29 73v203q0 48 29 73t83 25q53 0 82 -25q30 -25 30 -73z" />
    <glyph glyph-name="Ocircumflex" unicode="&#xd4;" 
d="M370 952h-33q-32 0 -45 -5t-33 -25q-35 -35 -104 -105q-12 -11 -12 -22v-1q2 -12 27 -12h80q29 0 42 4q12 4 25 19q11 12 32 36q8 -10 30 -37q11 -15 24 -18q13 -4 43 -4h86q25 0 27 12v2q0 10 -11 21l-105 105q-21 20 -33 25q-13 5 -40 5zM34 456v-21v-164
q0 -133 81 -209q82 -77 234 -77q151 0 233 77q82 76 82 209v185q0 133 -82 209q-82 77 -233 77q-152 0 -234 -77q-81 -76 -81 -209zM461 465v-203q0 -48 -30 -73q-29 -25 -82 -25q-54 0 -83 25t-29 73v203q0 48 29 73t83 25q53 0 82 -25q30 -25 30 -73z" />
    <glyph glyph-name="Otilde" unicode="&#xd5;" 
d="M499 941h-62q-11 0 -15 -4q-4 -5 -4 -15q0 -13 -4 -18q-5 -5 -12 -5q-25 0 -52 21q-28 21 -87 21q-44 0 -71 -26q-27 -27 -27 -100q0 -11 5 -17q6 -6 19 -6h63q11 0 15 4q4 5 4 16q0 12 5 17q4 6 11 6q25 0 52 -22q27 -21 84 -21q48 0 74 27q25 27 25 99q0 12 -5 17
q-4 6 -18 6zM34 456v-21v-164q0 -133 81 -209q82 -77 234 -77q151 0 233 77q82 76 82 209v185q0 133 -82 209q-82 77 -233 77q-152 0 -234 -77q-81 -76 -81 -209zM461 465v-203q0 -48 -30 -73q-29 -25 -82 -25q-54 0 -83 25t-29 73v203q0 48 29 73t83 25q53 0 82 -25
q30 -25 30 -73z" />
    <glyph glyph-name="Odieresis" unicode="&#xd6;" 
d="M243 946h-9q-42 0 -57 -15q-16 -16 -16 -58v-13q0 -41 16 -57q15 -16 57 -16h9q42 0 58 16t16 57v13q0 42 -16 58q-16 15 -58 15zM463 946h-7q-43 0 -60 -15q-16 -16 -16 -58v-13q0 -41 16 -57q17 -16 60 -16h7q42 0 58 16t16 57v13q0 42 -16 58q-16 15 -58 15zM34 456
v-21v-164q0 -133 81 -209q82 -77 234 -77q151 0 233 77q82 76 82 209v185q0 133 -82 209q-82 77 -233 77q-152 0 -234 -77q-81 -76 -81 -209zM461 465v-203q0 -48 -30 -73q-29 -25 -82 -25q-54 0 -83 25t-29 73v203q0 48 29 73t83 25q53 0 82 -25q30 -25 30 -73z" />
    <glyph glyph-name="multiply" unicode="&#xd7;" horiz-adv-x="548" 
d="M500 224q-27 27 -108 109l108 108q16 16 16 29t-16 30q-20 20 -60 59q-16 16 -28 16q-13 0 -30 -16q-36 -36 -109 -108q-26 26 -106 107q-17 16 -30 16q-12 0 -28 -16q-21 -20 -61 -59q-16 -16 -16 -29v-1q0 -12 16 -29q36 -36 108 -107l-108 -108q-16 -17 -16 -29
q1 -13 16 -29q20 -20 61 -59q16 -17 28 -17q13 0 30 17q35 35 106 107q28 -27 109 -109q17 -16 30 -16q12 0 28 16l60 60q16 16 16 29t-16 29z" />
    <glyph glyph-name="Oslash" unicode="&#xd8;" 
d="M670 771h-99q-14 0 -20 -2q-7 -3 -14 -14q-10 -14 -28 -42q-33 14 -73 22q-40 7 -87 7q-152 0 -234 -77q-81 -76 -81 -209v-185q0 -57 16 -105q15 -48 45 -84q-23 -35 -68 -106q-4 -5 -4 -10v-3q2 -6 12 -6h96q18 0 23 2q5 3 13 14q8 13 26 39q32 -14 71 -20q40 -7 85 -7
q151 0 233 77q82 76 82 209v185q0 56 -15 103t-44 82q25 37 74 112q3 5 3 9v4q-2 5 -12 5zM410 551q-43 -66 -171 -262q-1 7 -2 13v13v150q0 48 29 73t83 25q18 0 33 -3t28 -9zM292 174q42 65 168 258q1 -5 1 -12v-12v-146q0 -48 -30 -73q-29 -25 -82 -25q-17 0 -31 3
q-14 2 -26 7z" />
    <glyph glyph-name="Ugrave" unicode="&#xd9;" horiz-adv-x="709" 
d="M280 936q-14 -15 -53 -62q-12 -15 -12 -24v-1q0 -9 18 -15q62 -20 186 -58q18 -6 28 -6h1q10 0 18 10q9 12 29 35q11 13 11 22v1q-1 8 -14 16q-49 28 -145 85q-18 10 -35 12h-4q-15 0 -28 -15zM249 258v426q0 24 -10 33q-10 10 -34 10h-116q-24 0 -34 -10q-9 -9 -9 -33
v-104v-313q0 -129 79 -206q78 -76 229 -76q152 0 231 76q79 77 79 206v417q0 24 -10 33q-10 10 -34 10h-116q-25 0 -34 -10q-9 -9 -9 -33v-426q0 -45 -27 -70q-27 -24 -80 -24t-79 24q-26 25 -26 70z" />
    <glyph glyph-name="Uacute" unicode="&#xda;" horiz-adv-x="709" 
d="M365 936q-37 -21 -145 -83q-13 -8 -14 -16v-1q0 -8 12 -22q9 -11 28 -34q8 -10 19 -10q10 0 28 5q62 19 186 58q19 6 19 16q0 9 -14 24q-17 20 -52 60q-14 15 -29 15h-4q-17 -2 -34 -12zM249 258v426q0 24 -10 33q-10 10 -34 10h-116q-24 0 -34 -10q-9 -9 -9 -33v-104
v-313q0 -129 79 -206q78 -76 229 -76q152 0 231 76q79 77 79 206v417q0 24 -10 33q-10 10 -34 10h-116q-25 0 -34 -10q-9 -9 -9 -33v-426q0 -45 -27 -70q-27 -24 -80 -24t-79 24q-26 25 -26 70z" />
    <glyph glyph-name="Ucircumflex" unicode="&#xdb;" horiz-adv-x="709" 
d="M376 942h-33q-33 0 -46 -5q-12 -5 -33 -26q-35 -34 -104 -104q-11 -11 -11 -21v-3q2 -11 26 -11h81q28 0 41 4q13 3 26 19q10 12 31 35q8 -9 30 -36q12 -15 25 -18q13 -4 44 -4h85q25 0 26 11v3q0 10 -10 21q-35 35 -105 104q-21 21 -34 26q-12 5 -39 5zM249 258v426
q0 24 -10 33q-10 10 -34 10h-116q-24 0 -34 -10q-9 -9 -9 -33v-104v-313q0 -129 79 -206q78 -76 229 -76q152 0 231 76q79 77 79 206v417q0 24 -10 33q-10 10 -34 10h-116q-25 0 -34 -10q-9 -9 -9 -33v-426q0 -45 -27 -70q-27 -24 -80 -24t-79 24q-26 25 -26 70z" />
    <glyph glyph-name="Udieresis" unicode="&#xdc;" horiz-adv-x="709" 
d="M248 936h-7q-43 0 -59 -16q-15 -15 -15 -57v-13q0 -41 15 -57q16 -16 59 -16h7q43 0 59 16q17 16 17 57v13q0 42 -17 57q-16 16 -59 16zM468 936h-7q-42 0 -59 -16q-16 -15 -16 -57v-13q0 -41 16 -57q17 -16 59 -16h7q43 0 59 16t16 57v13q0 42 -16 57q-16 16 -59 16z
M249 258v426q0 24 -10 33q-10 10 -34 10h-116q-24 0 -34 -10q-9 -9 -9 -33v-104v-313q0 -129 79 -206q78 -76 229 -76q152 0 231 76q79 77 79 206v417q0 24 -10 33q-10 10 -34 10h-116q-25 0 -34 -10q-9 -9 -9 -33v-426q0 -45 -27 -70q-27 -24 -80 -24t-79 24q-26 25 -26 70
z" />
    <glyph glyph-name="Yacute" unicode="&#xdd;" horiz-adv-x="691" 
d="M359 936q-36 -21 -144 -83q-14 -8 -14 -16v-1q0 -8 11 -22q10 -11 29 -34q7 -10 18 -10q10 0 29 5q62 19 185 58q19 6 19 16v0q0 10 -13 24q-17 20 -52 60q-14 15 -29 15h-4q-17 -2 -35 -12zM662 727h-118q-38 0 -54 -5q-16 -6 -30 -33q-38 -69 -113 -209
q-27 52 -109 209q-15 27 -31 33q-16 5 -54 5h-123q-24 0 -28 -13q-1 -3 -2 -7q0 -10 8 -23q79 -134 236 -402v-239q0 -24 9 -33q10 -10 35 -10h24h91q25 0 34 10q9 9 9 33v239q60 100 237 402q7 12 7 22q0 4 -1 8q-4 13 -27 13z" />
    <glyph glyph-name="Thorn" unicode="&#xde;" horiz-adv-x="651" 
d="M364 635h-111v49q0 24 -9 33q-10 10 -34 10h-116q-24 0 -34 -10q-9 -9 -9 -33v-94v-547q0 -24 9 -33q10 -10 34 -10h25h91q24 0 34 10q9 9 9 33v59h111q123 0 197 71t74 195t-74 195q-74 72 -197 72zM338 282h-85v174h85q41 0 64 -25t23 -62q0 -38 -23 -63
q-23 -24 -64 -24z" />
    <glyph glyph-name="germandbls" unicode="&#xdf;" horiz-adv-x="603" 
d="M43 540v-38v-459q0 -24 9 -33q9 -10 34 -10h22h81q25 0 35 10q9 9 9 33v487q0 28 15 43q14 16 44 16q29 0 44 -15q15 -14 15 -40q0 -30 -12 -44q-13 -14 -35 -14h-8q-21 0 -29 -9t-8 -34v-88q0 -24 9 -34q10 -10 34 -10h14q32 0 45 -16q13 -15 13 -45t-14 -45t-44 -16
h-14q-24 0 -34 -9q-9 -9 -9 -34v-93q0 -24 9 -33q10 -10 34 -10h42q111 0 173 53q63 52 63 160q0 88 -29 127t-74 59v4q39 27 57 64q17 36 17 90q0 101 -64 156t-195 55q-125 0 -187 -62t-62 -166z" />
    <glyph glyph-name="agrave" unicode="&#xe0;" horiz-adv-x="705" 
d="M278 936q-14 -15 -53 -62q-13 -16 -13 -25t19 -15q62 -20 186 -58q18 -6 28 -6h1q10 0 18 10q9 12 29 35q11 13 11 22v1q-1 8 -15 16q-48 28 -144 85q-18 10 -35 12h-4q-16 0 -28 -15zM700 42q-59 163 -236 651q-8 20 -19 27q-12 7 -34 7h-117q-22 0 -34 -7t-19 -29
q-79 -216 -236 -649q-4 -12 -4 -21q0 -6 2 -10q6 -11 30 -11h107q39 0 53 10q14 9 22 33q8 25 24 74h221q6 -19 23 -74q6 -24 22 -33q15 -10 55 -10h24h87q23 0 30 11q3 5 3 12q0 8 -4 19zM376 397q9 -30 38 -119h-128q9 30 38 120q15 52 17 97l2 46h10l4 -46q3 -45 19 -98z
" />
    <glyph glyph-name="aacute" unicode="&#xe1;" horiz-adv-x="705" 
d="M362 936q-36 -21 -144 -83q-13 -8 -14 -16v-1q0 -8 12 -22q9 -11 28 -34q8 -10 18 -10t29 5q62 19 186 58q19 6 19 16q0 9 -14 24q-17 20 -52 60q-14 15 -29 15h-4q-17 -2 -35 -12zM700 42q-59 163 -236 651q-8 20 -19 27q-12 7 -34 7h-117q-22 0 -34 -7t-19 -29
q-79 -216 -236 -649q-4 -12 -4 -21q0 -6 2 -10q6 -11 30 -11h107q39 0 53 10q14 9 22 33q8 25 24 74h221q6 -19 23 -74q6 -24 22 -33q15 -10 55 -10h24h87q23 0 30 11q3 5 3 12q0 8 -4 19zM376 397q9 -30 38 -119h-128q9 30 38 120q15 52 17 97l2 46h10l4 -46q3 -45 19 -98z
" />
    <glyph glyph-name="acircumflex" unicode="&#xe2;" horiz-adv-x="705" 
d="M374 942h-33q-33 0 -46 -5q-12 -5 -33 -26q-35 -34 -104 -104q-11 -11 -11 -21v-3q1 -11 26 -11h81q28 0 41 4q12 3 26 19q10 12 31 35q8 -9 30 -36q11 -15 25 -18q13 -4 43 -4h86q25 0 26 11v2q0 11 -11 22q-35 35 -105 104q-20 21 -33 26q-12 5 -39 5zM700 42
q-59 163 -236 651q-8 20 -19 27q-12 7 -34 7h-117q-22 0 -34 -7t-19 -29q-79 -216 -236 -649q-4 -12 -4 -21q0 -6 2 -10q6 -11 30 -11h107q39 0 53 10q14 9 22 33q8 25 24 74h221q6 -19 23 -74q6 -24 22 -33q15 -10 55 -10h24h87q23 0 30 11q3 5 3 12q0 8 -4 19zM376 397
q9 -30 38 -119h-128q9 30 38 120q15 52 17 97l2 46h10l4 -46q3 -45 19 -98z" />
    <glyph glyph-name="atilde" unicode="&#xe3;" horiz-adv-x="705" 
d="M502 931h-62q-11 0 -15 -5q-4 -4 -4 -15q0 -12 -4 -17q-5 -5 -11 -5q-26 0 -53 21q-28 21 -87 21q-44 0 -71 -27q-26 -26 -26 -99q0 -12 5 -18t19 -6h62q11 0 15 5t4 16t5 17q4 5 11 5q25 0 52 -21q27 -22 84 -22q48 0 74 28q26 27 26 98q0 13 -5 18q-5 6 -19 6zM700 42
q-59 163 -236 651q-8 20 -19 27q-12 7 -34 7h-117q-22 0 -34 -7t-19 -29q-79 -216 -236 -649q-4 -12 -4 -21q0 -6 2 -10q6 -11 30 -11h107q39 0 53 10q14 9 22 33q8 25 24 74h221q6 -19 23 -74q6 -24 22 -33q15 -10 55 -10h24h87q23 0 30 11q3 5 3 12q0 8 -4 19zM376 397
q9 -30 38 -119h-128q9 30 38 120q15 52 17 97l2 46h10l4 -46q3 -45 19 -98z" />
    <glyph glyph-name="adieresis" unicode="&#xe4;" horiz-adv-x="705" 
d="M246 936h-8q-43 0 -58 -16q-16 -15 -16 -57v-13q0 -41 16 -57q15 -16 58 -16h8q43 0 59 16q17 16 17 57v13q0 42 -17 57q-16 16 -59 16zM466 936h-7q-43 0 -60 -16q-16 -15 -16 -57v-13q0 -41 16 -57q17 -16 60 -16h7q43 0 59 16t16 57v13q0 42 -16 57q-16 16 -59 16z
M700 42q-59 163 -236 651q-8 20 -19 27q-12 7 -34 7h-117q-22 0 -34 -7t-19 -29q-79 -216 -236 -649q-4 -12 -4 -21q0 -6 2 -10q6 -11 30 -11h107q39 0 53 10q14 9 22 33q8 25 24 74h221q6 -19 23 -74q6 -24 22 -33q15 -10 55 -10h24h87q23 0 30 11q3 5 3 12q0 8 -4 19z
M376 397q9 -30 38 -119h-128q9 30 38 120q15 52 17 97l2 46h10l4 -46q3 -45 19 -98z" />
    <glyph glyph-name="aring" unicode="&#xe5;" horiz-adv-x="705" 
d="M205 779q0 -28 10 -51t29 -40q-80 -215 -239 -646q-4 -12 -4 -21q0 -6 2 -10q6 -11 30 -11h107q39 0 53 10q14 9 22 33q8 25 24 74h221q6 -19 23 -74q6 -24 22 -33q15 -10 55 -10h24h87q23 0 30 11q3 5 3 12q0 8 -4 19q-79 216 -238 647q19 16 28 39q10 24 10 51
q0 62 -41 99q-40 36 -105 36t-107 -35t-42 -100zM395 777q0 -19 -11 -30q-12 -11 -30 -11q-20 0 -33 12t-13 29q0 19 13 31q13 11 33 11q18 0 30 -11q11 -12 11 -31zM377 397q9 -30 37 -119h-128q9 30 37 120q15 52 17 96l3 45h10l4 -45q4 -44 20 -97z" />
    <glyph glyph-name="ae" unicode="&#xe6;" horiz-adv-x="927" 
d="M858 179h-209v99h147q23 0 33 9q10 10 10 35v92q0 24 -10 33q-10 10 -33 10h-147v91h201q24 0 34 10q9 9 9 34v92q0 24 -9 33q-10 10 -34 10h-374q-22 0 -31 -8q-10 -8 -22 -28q-141 -216 -424 -649q-6 -11 -6 -20q0 -6 3 -11q7 -11 31 -11h105q41 0 54 9q14 9 26 29
q15 23 44 70h205v-65q0 -24 10 -33q9 -10 34 -10h75h278q25 0 34 10q9 9 9 33v93q0 25 -9 34t-34 9zM461 262h-106q27 42 106 167v-167z" />
    <glyph glyph-name="ccedilla" unicode="&#xe7;" horiz-adv-x="667" 
d="M621 219q-28 10 -110 39q-23 8 -35 2q-11 -6 -20 -30q-13 -33 -38 -49q-26 -17 -69 -17q-60 0 -86 26q-26 27 -26 80v187q0 53 26 80q26 26 86 26q43 0 68 -16t39 -50q8 -24 20 -30q11 -5 35 2q36 13 110 39q23 8 29 20q2 6 2 13q0 10 -4 22q-32 86 -106 133
q-75 46 -193 46q-151 0 -233 -77q-82 -76 -82 -209v-28v-157q0 -120 68 -195t194 -88l-33 -75q-8 -16 -4 -23q3 -8 17 -8h22q25 -1 34 -6t9 -16q0 -10 -8 -17t-27 -7q-18 0 -31 4q-12 5 -26 12q-17 9 -24 3q-8 -5 -8 -20v-43q0 -11 6 -18t22 -14q19 -7 38 -9q20 -2 38 -2
q53 0 100 21t54 82q5 41 -18 71q-23 29 -67 30h-9q3 8 13 34q99 7 162 53t92 124q8 22 2 35q-6 12 -29 20z" />
    <glyph glyph-name="egrave" unicode="&#xe8;" horiz-adv-x="602" 
d="M236 936q-14 -15 -53 -62q-13 -16 -13 -25t18 -15q63 -20 187 -58q18 -6 28 -6v0q10 0 19 10q9 12 28 35q11 13 12 22v1q-1 8 -15 16q-48 28 -144 85q-18 10 -35 12h-4q-16 0 -28 -15zM524 727h-429q-24 0 -34 -10q-10 -9 -10 -33v-94v-547q0 -24 10 -33q10 -10 34 -10
h94h345q23 0 33 10q10 9 10 33v93q0 25 -10 34t-33 9h-280v99h216q25 0 34 9q10 10 10 35v92q0 24 -10 33q-9 10 -34 10h-216v91h270q25 0 35 10q9 9 9 34v92q0 24 -9 33q-10 10 -35 10z" />
    <glyph glyph-name="eacute" unicode="&#xe9;" horiz-adv-x="602" 
d="M321 936q-37 -21 -145 -83q-13 -8 -14 -16v-1q0 -8 11 -22q10 -11 29 -34q7 -10 18 -10q10 0 29 5q62 19 185 58q19 6 20 16v0q0 10 -14 24q-17 20 -52 60q-14 15 -29 15h-4q-17 -2 -34 -12zM524 727h-429q-24 0 -34 -10q-10 -9 -10 -33v-94v-547q0 -24 10 -33
q10 -10 34 -10h94h345q23 0 33 10q10 9 10 33v93q0 25 -10 34t-33 9h-280v99h216q25 0 34 9q10 10 10 35v92q0 24 -10 33q-9 10 -34 10h-216v91h270q25 0 35 10q9 9 9 34v92q0 24 -9 33q-10 10 -35 10z" />
    <glyph glyph-name="ecircumflex" unicode="&#xea;" horiz-adv-x="602" 
d="M331 942h-33q-32 0 -45 -5t-33 -26q-35 -34 -104 -104q-12 -11 -12 -22q0 -1 1 -2q1 -11 26 -11h80q29 0 42 4q12 3 26 19q10 12 31 35q8 -9 30 -36q11 -15 24 -18q13 -4 44 -4h86q24 0 26 11v3q0 10 -11 21q-35 35 -105 104q-21 21 -33 26q-13 5 -40 5zM524 727h-429
q-24 0 -34 -10q-10 -9 -10 -33v-94v-547q0 -24 10 -33q10 -10 34 -10h94h345q23 0 33 10q10 9 10 33v93q0 25 -10 34t-33 9h-280v99h216q25 0 34 9q10 10 10 35v92q0 24 -10 33q-9 10 -34 10h-216v91h270q25 0 35 10q9 9 9 34v92q0 24 -9 33q-10 10 -35 10z" />
    <glyph glyph-name="edieresis" unicode="&#xeb;" horiz-adv-x="602" 
d="M204 936h-8q-43 0 -58 -16q-16 -15 -16 -57v-13q0 -41 16 -57q15 -16 58 -16h8q42 0 58 16q17 16 17 57v13q0 42 -17 57q-16 16 -58 16zM424 936h-7q-43 0 -60 -16q-16 -15 -16 -57v-13q0 -41 16 -57q17 -16 60 -16h7q42 0 58 16t16 57v13q0 42 -16 57q-16 16 -58 16z
M524 727h-429q-24 0 -34 -10q-10 -9 -10 -33v-94v-547q0 -24 10 -33q10 -10 34 -10h94h345q23 0 33 10q10 9 10 33v93q0 25 -10 34t-33 9h-280v99h216q25 0 34 9q10 10 10 35v92q0 24 -10 33q-9 10 -34 10h-216v91h270q25 0 35 10q9 9 9 34v92q0 24 -9 33q-10 10 -35 10z
" />
    <glyph glyph-name="igrave" unicode="&#xec;" horiz-adv-x="306" 
d="M79 936q-13 -15 -52 -62q-13 -16 -14 -25q0 -9 19 -15q62 -20 186 -58q17 -6 28 -6v0q11 0 19 10q9 12 28 35q12 13 12 22v1q0 8 -14 16q-48 28 -145 85q-17 10 -35 12h-4q-15 0 -28 -15zM51 686v-121v-524q0 -23 9 -32t32 -9h26h95q23 0 32 9t9 32v645q0 23 -9 32t-32 9
h-121q-23 0 -32 -9t-9 -32z" />
    <glyph glyph-name="iacute" unicode="&#xed;" horiz-adv-x="306" 
d="M164 936q-36 -21 -145 -83q-13 -8 -14 -16v-1q0 -8 11 -22q10 -11 29 -34q8 -10 18 -10q11 0 29 5q62 19 186 58q18 6 18 16v0q0 10 -12 24q-18 20 -53 60q-13 15 -28 15h-4q-17 -2 -35 -12zM51 686v-121v-524q0 -23 9 -32t32 -9h26h95q23 0 32 9t9 32v645q0 23 -9 32
t-32 9h-121q-23 0 -32 -9t-9 -32z" />
    <glyph glyph-name="icircumflex" unicode="&#xee;" horiz-adv-x="306" 
d="M174 942h-33q-32 0 -45 -5t-34 -26l-104 -104q-10 -11 -10 -21v-3q1 -11 26 -11h80q29 0 42 4q13 3 25 19q11 12 33 35l28 -36q12 -15 25 -18q13 -4 44 -4h86q24 0 26 11v3q0 10 -11 21q-35 35 -105 104q-21 21 -33 26t-40 5zM51 686v-121v-524q0 -23 9 -32t32 -9h26h95
q23 0 32 9t9 32v645q0 23 -9 32t-32 9h-121q-23 0 -32 -9t-9 -32z" />
    <glyph glyph-name="idieresis" unicode="&#xef;" horiz-adv-x="306" 
d="M47 936h-8q-43 0 -58 -16q-16 -15 -16 -57v-13q0 -41 16 -57q15 -16 58 -16h8q42 0 59 16q16 16 16 57v13q0 42 -16 57q-17 16 -59 16zM267 936h-7q-43 0 -59 -16q-17 -15 -17 -57v-13q0 -41 17 -57q16 -16 59 -16h7q43 0 58 16q16 16 16 57v13q0 42 -16 57
q-15 16 -58 16zM51 686v-121v-524q0 -23 9 -32t32 -9h26h95q23 0 32 9t9 32v645q0 23 -9 32t-32 9h-121q-23 0 -32 -9t-9 -32z" />
    <glyph glyph-name="eth" unicode="&#xf0;" horiz-adv-x="723" 
d="M375 727h-250q-24 0 -33 -10q-10 -9 -10 -33v-250h-47q-13 0 -20 -5q-6 -6 -6 -21v-12v-66q0 -16 6 -22q5 -5 20 -5h47v-260q0 -24 10 -33q9 -10 33 -10h54h196q152 0 234 77q81 78 81 210v153q0 133 -81 210q-82 77 -234 77zM487 437v-147q0 -55 -28 -83t-91 -28h-83
v124h84q14 0 19 5q5 6 5 22v78q0 15 -5 21q-5 5 -19 5h-84v114h83t91 -28t28 -83z" />
    <glyph glyph-name="ntilde" unicode="&#xf1;" horiz-adv-x="717" 
d="M511 931h-61q-12 0 -16 -5q-4 -4 -4 -15q0 -12 -4 -17t-11 -5q-26 0 -53 21t-87 21q-44 0 -70 -27q-27 -26 -27 -99q0 -12 5 -18q6 -6 19 -6h62q11 0 15 5q5 5 5 16t4 17q4 5 11 5q25 0 52 -21q27 -22 84 -22q49 0 75 28q26 27 26 98q0 13 -5 18q-5 6 -20 6zM623 727
h-105q-24 0 -34 -10q-9 -9 -9 -33v-168q0 -27 1 -50q2 -23 4 -44q5 -39 15 -76q10 -38 26 -89h-8q-25 58 -38 96q-14 38 -48 91q-56 88 -168 263q-7 10 -16 15t-27 5h-121q-24 0 -34 -10q-10 -9 -10 -33v-94v-547q0 -24 10 -33q10 -10 34 -10h104q24 0 34 10q10 9 10 33v167
q0 85 -9 138q-9 52 -25 126h8q21 -69 39 -113q17 -45 51 -98q53 -81 158 -243q7 -10 16 -15q10 -5 26 -5h24h92q23 0 33 10q10 9 10 33v641q0 24 -10 33q-10 10 -33 10z" />
    <glyph glyph-name="ograve" unicode="&#xf2;" 
d="M274 946q-13 -15 -52 -61q-13 -16 -13 -26q0 -9 18 -15q62 -19 187 -58q17 -5 28 -6v0q10 1 19 11q9 11 27 34q12 14 12 22v1q0 9 -14 16q-48 29 -144 85q-18 10 -35 12h-4q-16 0 -29 -15zM34 456v-21v-164q0 -133 81 -209q82 -77 234 -77q151 0 233 77q82 76 82 209v185
q0 133 -82 209q-82 77 -233 77q-152 0 -234 -77q-81 -76 -81 -209zM461 465v-203q0 -48 -30 -73q-29 -25 -82 -25q-54 0 -83 25t-29 73v203q0 48 29 73t83 25q53 0 82 -25q30 -25 30 -73z" />
    <glyph glyph-name="oacute" unicode="&#xf3;" 
d="M359 946q-36 -21 -144 -83q-13 -7 -14 -16v-1q0 -8 11 -22q10 -11 29 -33q7 -11 18 -11q10 0 29 5q62 20 185 58q19 7 20 16v1q0 9 -14 24q-17 20 -52 59q-14 15 -29 15h-4q-17 -2 -35 -12zM34 456v-21v-164q0 -133 81 -209q82 -77 234 -77q151 0 233 77q82 76 82 209
v185q0 133 -82 209q-82 77 -233 77q-152 0 -234 -77q-81 -76 -81 -209zM461 465v-203q0 -48 -30 -73q-29 -25 -82 -25q-54 0 -83 25t-29 73v203q0 48 29 73t83 25q53 0 82 -25q30 -25 30 -73z" />
    <glyph glyph-name="ocircumflex" unicode="&#xf4;" 
d="M370 952h-33q-32 0 -45 -5t-33 -25q-35 -35 -104 -105q-12 -11 -12 -22v-1q2 -12 27 -12h80q29 0 42 4q12 4 25 19q11 12 32 36q8 -10 30 -37q11 -15 24 -18q13 -4 43 -4h86q25 0 27 12v2q0 10 -11 21l-105 105q-21 20 -33 25q-13 5 -40 5zM34 456v-21v-164
q0 -133 81 -209q82 -77 234 -77q151 0 233 77q82 76 82 209v185q0 133 -82 209q-82 77 -233 77q-152 0 -234 -77q-81 -76 -81 -209zM461 465v-203q0 -48 -30 -73q-29 -25 -82 -25q-54 0 -83 25t-29 73v203q0 48 29 73t83 25q53 0 82 -25q30 -25 30 -73z" />
    <glyph glyph-name="otilde" unicode="&#xf5;" 
d="M499 941h-62q-11 0 -15 -4q-4 -5 -4 -15q0 -13 -4 -18q-5 -5 -12 -5q-25 0 -52 21q-28 21 -87 21q-44 0 -71 -26q-27 -27 -27 -100q0 -11 5 -17q6 -6 19 -6h63q11 0 15 4q4 5 4 16q0 12 5 17q4 6 11 6q25 0 52 -22q27 -21 84 -21q48 0 74 27q25 27 25 99q0 12 -5 17
q-4 6 -18 6zM34 456v-21v-164q0 -133 81 -209q82 -77 234 -77q151 0 233 77q82 76 82 209v185q0 133 -82 209q-82 77 -233 77q-152 0 -234 -77q-81 -76 -81 -209zM461 465v-203q0 -48 -30 -73q-29 -25 -82 -25q-54 0 -83 25t-29 73v203q0 48 29 73t83 25q53 0 82 -25
q30 -25 30 -73z" />
    <glyph glyph-name="odieresis" unicode="&#xf6;" 
d="M243 946h-9q-42 0 -57 -15q-16 -16 -16 -58v-13q0 -41 16 -57q15 -16 57 -16h9q42 0 58 16t16 57v13q0 42 -16 58q-16 15 -58 15zM463 946h-7q-43 0 -60 -15q-16 -16 -16 -58v-13q0 -41 16 -57q17 -16 60 -16h7q42 0 58 16t16 57v13q0 42 -16 58q-16 15 -58 15zM34 456
v-21v-164q0 -133 81 -209q82 -77 234 -77q151 0 233 77q82 76 82 209v185q0 133 -82 209q-82 77 -233 77q-152 0 -234 -77q-81 -76 -81 -209zM461 465v-203q0 -48 -30 -73q-29 -25 -82 -25q-54 0 -83 25t-29 73v203q0 48 29 73t83 25q53 0 82 -25q30 -25 30 -73z" />
    <glyph glyph-name="divide" unicode="&#xf7;" horiz-adv-x="568" 
d="M310 620h-51q-44 0 -61 -17t-17 -60v-12q0 -43 17 -60t61 -17h51q44 0 61 17q16 17 16 60v12q0 43 -16 60q-17 17 -61 17zM498 421h-426q-25 0 -35 -10q-9 -10 -9 -34v-87q0 -25 9 -34q10 -9 35 -9h426q23 0 33 9t10 34v87q0 24 -10 34t-33 10zM310 213h-51
q-44 0 -61 -17q-17 -16 -17 -60v-11q0 -44 17 -61t61 -17h51q44 0 61 17q16 17 16 61v11q0 44 -16 60q-17 17 -61 17z" />
    <glyph glyph-name="oslash" unicode="&#xf8;" 
d="M670 771h-99q-14 0 -20 -2q-7 -3 -14 -14q-10 -14 -28 -42q-33 14 -73 22q-40 7 -87 7q-152 0 -234 -77q-81 -76 -81 -209v-185q0 -57 16 -105q15 -48 45 -84q-23 -35 -68 -106q-4 -5 -4 -10v-3q2 -6 12 -6h96q18 0 23 2q5 3 13 14q8 13 26 39q32 -14 71 -20q40 -7 85 -7
q151 0 233 77q82 76 82 209v185q0 56 -15 103t-44 82q25 37 74 112q3 5 3 9v4q-2 5 -12 5zM410 551q-43 -66 -171 -262q-1 7 -2 13v13v150q0 48 29 73t83 25q18 0 33 -3t28 -9zM292 174q42 65 168 258q1 -5 1 -12v-12v-146q0 -48 -30 -73q-29 -25 -82 -25q-17 0 -31 3
q-14 2 -26 7z" />
    <glyph glyph-name="ugrave" unicode="&#xf9;" horiz-adv-x="709" 
d="M280 936q-14 -15 -53 -62q-12 -15 -12 -24v-1q0 -9 18 -15q62 -20 186 -58q18 -6 28 -6h1q10 0 18 10q9 12 29 35q11 13 11 22v1q-1 8 -14 16q-49 28 -145 85q-18 10 -35 12h-4q-15 0 -28 -15zM249 258v426q0 24 -10 33q-10 10 -34 10h-116q-24 0 -34 -10q-9 -9 -9 -33
v-104v-313q0 -129 79 -206q78 -76 229 -76q152 0 231 76q79 77 79 206v417q0 24 -10 33q-10 10 -34 10h-116q-25 0 -34 -10q-9 -9 -9 -33v-426q0 -45 -27 -70q-27 -24 -80 -24t-79 24q-26 25 -26 70z" />
    <glyph glyph-name="uacute" unicode="&#xfa;" horiz-adv-x="709" 
d="M365 936q-37 -21 -145 -83q-13 -8 -14 -16v-1q0 -8 12 -22q9 -11 28 -34q8 -10 19 -10q10 0 28 5q62 19 186 58q19 6 19 16q0 9 -14 24q-17 20 -52 60q-14 15 -29 15h-4q-17 -2 -34 -12zM249 258v426q0 24 -10 33q-10 10 -34 10h-116q-24 0 -34 -10q-9 -9 -9 -33v-104
v-313q0 -129 79 -206q78 -76 229 -76q152 0 231 76q79 77 79 206v417q0 24 -10 33q-10 10 -34 10h-116q-25 0 -34 -10q-9 -9 -9 -33v-426q0 -45 -27 -70q-27 -24 -80 -24t-79 24q-26 25 -26 70z" />
    <glyph glyph-name="ucircumflex" unicode="&#xfb;" horiz-adv-x="709" 
d="M376 942h-33q-33 0 -46 -5q-12 -5 -33 -26q-35 -34 -104 -104q-11 -11 -11 -21v-3q2 -11 26 -11h81q28 0 41 4q13 3 26 19q10 12 31 35q8 -9 30 -36q12 -15 25 -18q13 -4 44 -4h85q25 0 26 11v3q0 10 -10 21q-35 35 -105 104q-21 21 -34 26q-12 5 -39 5zM249 258v426
q0 24 -10 33q-10 10 -34 10h-116q-24 0 -34 -10q-9 -9 -9 -33v-104v-313q0 -129 79 -206q78 -76 229 -76q152 0 231 76q79 77 79 206v417q0 24 -10 33q-10 10 -34 10h-116q-25 0 -34 -10q-9 -9 -9 -33v-426q0 -45 -27 -70q-27 -24 -80 -24t-79 24q-26 25 -26 70z" />
    <glyph glyph-name="udieresis" unicode="&#xfc;" horiz-adv-x="709" 
d="M248 936h-7q-43 0 -59 -16q-15 -15 -15 -57v-13q0 -41 15 -57q16 -16 59 -16h7q43 0 59 16q17 16 17 57v13q0 42 -17 57q-16 16 -59 16zM468 936h-7q-42 0 -59 -16q-16 -15 -16 -57v-13q0 -41 16 -57q17 -16 59 -16h7q43 0 59 16t16 57v13q0 42 -16 57q-16 16 -59 16z
M249 258v426q0 24 -10 33q-10 10 -34 10h-116q-24 0 -34 -10q-9 -9 -9 -33v-104v-313q0 -129 79 -206q78 -76 229 -76q152 0 231 76q79 77 79 206v417q0 24 -10 33q-10 10 -34 10h-116q-25 0 -34 -10q-9 -9 -9 -33v-426q0 -45 -27 -70q-27 -24 -80 -24t-79 24q-26 25 -26 70
z" />
    <glyph glyph-name="yacute" unicode="&#xfd;" horiz-adv-x="691" 
d="M359 936q-36 -21 -144 -83q-14 -8 -14 -16v-1q0 -8 11 -22q10 -11 29 -34q7 -10 18 -10q10 0 29 5q62 19 185 58q19 6 19 16v0q0 10 -13 24q-17 20 -52 60q-14 15 -29 15h-4q-17 -2 -35 -12zM662 727h-118q-38 0 -54 -5q-16 -6 -30 -33q-38 -69 -113 -209
q-27 52 -109 209q-15 27 -31 33q-16 5 -54 5h-123q-24 0 -28 -13q-1 -3 -2 -7q0 -10 8 -23q79 -134 236 -402v-239q0 -24 9 -33q10 -10 35 -10h24h91q25 0 34 10q9 9 9 33v239q60 100 237 402q7 12 7 22q0 4 -1 8q-4 13 -27 13z" />
    <glyph glyph-name="thorn" unicode="&#xfe;" horiz-adv-x="651" 
d="M364 635h-111v49q0 24 -9 33q-10 10 -34 10h-116q-24 0 -34 -10q-9 -9 -9 -33v-94v-547q0 -24 9 -33q10 -10 34 -10h25h91q24 0 34 10q9 9 9 33v59h111q123 0 197 71t74 195t-74 195q-74 72 -197 72zM338 282h-85v174h85q41 0 64 -25t23 -62q0 -38 -23 -63
q-23 -24 -64 -24z" />
    <glyph glyph-name="ydieresis" unicode="&#xff;" horiz-adv-x="691" 
d="M243 936h-9q-43 0 -58 -16q-15 -15 -15 -57v-13q0 -41 15 -57t58 -16h9q42 0 58 16t16 57v13q0 42 -16 57q-16 16 -58 16zM463 936h-7q-43 0 -60 -16q-16 -15 -16 -57v-13q0 -41 16 -57q17 -16 60 -16h7q42 0 58 16t16 57v13q0 42 -16 57q-16 16 -58 16zM662 727h-118
q-38 0 -54 -5q-16 -6 -30 -33q-38 -69 -113 -209q-27 52 -109 209q-15 27 -31 33q-16 5 -54 5h-123q-24 0 -28 -13q-1 -3 -2 -7q0 -10 8 -23q79 -134 236 -402v-239q0 -24 9 -33q10 -10 35 -10h24h91q25 0 34 10q9 9 9 33v239q60 100 237 402q7 12 7 22q0 4 -1 8
q-4 13 -27 13z" />
    <glyph glyph-name="uni0100" unicode="&#x100;" horiz-adv-x="705" 
d="M477 913h-250q-19 0 -28 -7t-9 -29v-43q0 -23 8 -30t29 -7h250q22 0 29 7q8 7 8 30v43q0 22 -8 29q-7 7 -29 7zM700 42q-59 163 -236 651q-8 20 -19 27q-12 7 -34 7h-117q-22 0 -34 -7t-19 -29q-79 -216 -236 -649q-4 -12 -4 -21q0 -6 2 -10q6 -11 30 -11h107q39 0 53 10
q14 9 22 33q8 25 24 74h221q6 -19 23 -74q6 -24 22 -33q15 -10 55 -10h24h87q23 0 30 11q3 5 3 12q0 8 -4 19zM376 397q9 -30 38 -119h-128q9 30 38 120q15 52 17 97l2 46h10l4 -46q3 -45 19 -98z" />
    <glyph glyph-name="uni0101" unicode="&#x101;" horiz-adv-x="705" 
d="M477 913h-250q-19 0 -28 -7t-9 -29v-43q0 -23 8 -30t29 -7h250q22 0 29 7q8 7 8 30v43q0 22 -8 29q-7 7 -29 7zM700 42q-59 163 -236 651q-8 20 -19 27q-12 7 -34 7h-117q-22 0 -34 -7t-19 -29q-79 -216 -236 -649q-4 -12 -4 -21q0 -6 2 -10q6 -11 30 -11h107q39 0 53 10
q14 9 22 33q8 25 24 74h221q6 -19 23 -74q6 -24 22 -33q15 -10 55 -10h24h87q23 0 30 11q3 5 3 12q0 8 -4 19zM376 397q9 -30 38 -119h-128q9 30 38 120q15 52 17 97l2 46h10l4 -46q3 -45 19 -98z" />
    <glyph glyph-name="uni0102" unicode="&#x102;" horiz-adv-x="705" 
d="M534 881q3 8 3 14q0 5 -2 8q-4 8 -19 13l-72 27q-15 5 -22 2q-7 -2 -14 -15q-10 -17 -23 -26q-14 -8 -33 -8q-20 0 -33 8q-14 9 -23 26q-8 13 -15 16h-5q-7 0 -19 -4q-23 -8 -68 -26q-14 -6 -18 -13q-2 -3 -2 -8q0 -6 3 -14q20 -53 66 -81q47 -28 114 -28q69 0 115 28
q47 28 67 81zM700 42q-59 163 -236 651q-8 20 -19 27q-12 7 -34 7h-117q-22 0 -34 -7t-19 -29q-79 -216 -236 -649q-4 -12 -4 -21q0 -6 2 -10q6 -11 30 -11h107q39 0 53 10q14 9 22 33q8 25 24 74h221q6 -19 23 -74q6 -24 22 -33q15 -10 55 -10h24h87q23 0 30 11q3 5 3 12
q0 8 -4 19zM376 397q9 -30 38 -119h-128q9 30 38 120q15 52 17 97l2 46h10l4 -46q3 -45 19 -98z" />
    <glyph glyph-name="uni0103" unicode="&#x103;" horiz-adv-x="705" 
d="M534 881q3 8 3 14q0 5 -2 8q-4 8 -19 13l-72 27q-15 5 -22 2q-7 -2 -14 -15q-10 -17 -23 -26q-14 -8 -33 -8q-20 0 -33 8q-14 9 -23 26q-8 13 -15 16h-5q-7 0 -19 -4q-23 -8 -68 -26q-14 -6 -18 -13q-2 -3 -2 -8q0 -6 3 -14q20 -53 66 -81q47 -28 114 -28q69 0 115 28
q47 28 67 81zM700 42q-59 163 -236 651q-8 20 -19 27q-12 7 -34 7h-117q-22 0 -34 -7t-19 -29q-79 -216 -236 -649q-4 -12 -4 -21q0 -6 2 -10q6 -11 30 -11h107q39 0 53 10q14 9 22 33q8 25 24 74h221q6 -19 23 -74q6 -24 22 -33q15 -10 55 -10h24h87q23 0 30 11q3 5 3 12
q0 8 -4 19zM376 397q9 -30 38 -119h-128q9 30 38 120q15 52 17 97l2 46h10l4 -46q3 -45 19 -98z" />
    <glyph glyph-name="uni0104" unicode="&#x104;" horiz-adv-x="705" 
d="M411 727h-116q-22 0 -34 -7t-19 -29q-79 -216 -237 -649q-4 -12 -4 -21q0 -6 2 -10q6 -11 30 -11h108q38 0 53 10q14 9 21 33q8 25 24 74h222q5 -19 22 -74q7 -24 21 -33q13 -9 53 -10q-41 -41 -63 -89q-23 -48 -14 -94q9 -43 41 -56q33 -13 69 -13q31 0 61 10
q31 9 52 26q8 5 10 12v4q0 6 -3 15q-8 16 -22 48q-3 7 -9 9q-7 2 -14 -3q-6 -3 -11 -5q-4 -1 -9 -1q-8 0 -12 5q-5 5 -6 13q-3 17 12 51t58 73q7 6 8 15q1 8 -4 21q-79 217 -237 652q-7 20 -19 27t-34 7zM377 397q9 -30 37 -119h-128q9 30 38 120q15 52 18 97l2 46h9l4 -46
q4 -45 20 -98z" />
    <glyph glyph-name="uni0105" unicode="&#x105;" horiz-adv-x="705" 
d="M411 727h-116q-22 0 -34 -7t-19 -29q-79 -216 -237 -649q-4 -12 -4 -21q0 -6 2 -10q6 -11 30 -11h108q38 0 53 10q14 9 21 33q8 25 24 74h222q5 -19 22 -74q7 -24 21 -33q13 -9 53 -10q-41 -41 -63 -89q-23 -48 -14 -94q9 -43 41 -56q33 -13 69 -13q31 0 61 10
q31 9 52 26q8 5 10 12v4q0 6 -3 15q-8 16 -22 48q-3 7 -9 9q-7 2 -14 -3q-6 -3 -11 -5q-4 -1 -9 -1q-8 0 -12 5q-5 5 -6 13q-3 17 12 51t58 73q7 6 8 15q1 8 -4 21q-79 217 -237 652q-7 20 -19 27t-34 7zM377 397q9 -30 37 -119h-128q9 30 38 120q15 52 18 97l2 46h9l4 -46
q4 -45 20 -98z" />
    <glyph glyph-name="Cacute" unicode="&#x106;" horiz-adv-x="667" 
d="M361 936q-36 -21 -144 -83q-14 -8 -14 -16v-1q0 -8 11 -22q10 -11 29 -34q7 -10 18 -10q10 0 29 5q62 19 185 58q19 6 19 16v0q0 10 -13 24q-17 20 -52 60q-14 15 -29 15h-4q-17 -2 -35 -12zM34 456v-21v-164q0 -133 82 -209q82 -77 233 -77q118 0 193 46q74 47 106 133
q4 12 4 22q0 7 -2 13q-6 12 -29 20q-37 13 -110 39q-23 8 -35 2q-11 -6 -20 -30q-13 -33 -38 -49q-26 -17 -69 -17q-60 0 -86 26q-26 27 -26 80v187q0 53 26 80q26 26 86 26q43 0 68 -16t39 -50q8 -24 20 -30q11 -5 35 2q36 13 110 39q23 8 29 20q6 13 -2 35
q-32 86 -106 133q-75 46 -193 46q-151 0 -233 -77q-82 -76 -82 -209z" />
    <glyph glyph-name="cacute" unicode="&#x107;" horiz-adv-x="667" 
d="M361 936q-36 -21 -144 -83q-14 -8 -14 -16v-1q0 -8 11 -22q10 -11 29 -34q7 -10 18 -10q10 0 29 5q62 19 185 58q19 6 19 16v0q0 10 -13 24q-17 20 -52 60q-14 15 -29 15h-4q-17 -2 -35 -12zM34 456v-21v-164q0 -133 82 -209q82 -77 233 -77q118 0 193 46q74 47 106 133
q4 12 4 22q0 7 -2 13q-6 12 -29 20q-37 13 -110 39q-23 8 -35 2q-11 -6 -20 -30q-13 -33 -38 -49q-26 -17 -69 -17q-60 0 -86 26q-26 27 -26 80v187q0 53 26 80q26 26 86 26q43 0 68 -16t39 -50q8 -24 20 -30q11 -5 35 2q36 13 110 39q23 8 29 20q6 13 -2 35
q-32 86 -106 133q-75 46 -193 46q-151 0 -233 -77q-82 -76 -82 -209z" />
    <glyph glyph-name="uni0108" unicode="&#x108;" horiz-adv-x="667" 
d="M372 942h-33q-32 0 -45 -5t-34 -26q-35 -34 -104 -104q-11 -11 -11 -21v-3q2 -11 27 -11h80q29 0 42 4q12 3 24 19q11 12 33 35q7 -9 29 -36q11 -15 25 -18q13 -4 44 -4h86q24 0 26 11v3q0 10 -11 21q-35 35 -106 104q-20 21 -32 26q-13 5 -40 5zM34 456v-21v-164
q0 -133 82 -209q82 -77 233 -77q118 0 193 46q74 47 106 133q4 12 4 22q0 7 -2 13q-6 12 -29 20q-37 13 -110 39q-23 8 -35 2q-11 -6 -20 -30q-13 -33 -38 -49q-26 -17 -69 -17q-60 0 -86 26q-26 27 -26 80v187q0 53 26 80q26 26 86 26q43 0 68 -16t39 -50q8 -24 20 -30
q11 -5 35 2q36 13 110 39q23 8 29 20q6 13 -2 35q-32 86 -106 133q-75 46 -193 46q-151 0 -233 -77q-82 -76 -82 -209z" />
    <glyph glyph-name="uni0109" unicode="&#x109;" horiz-adv-x="667" 
d="M372 942h-33q-32 0 -45 -5t-34 -26q-35 -34 -104 -104q-11 -11 -11 -21v-3q2 -11 27 -11h80q29 0 42 4q12 3 24 19q11 12 33 35q7 -9 29 -36q11 -15 25 -18q13 -4 44 -4h86q24 0 26 11v3q0 10 -11 21q-35 35 -106 104q-20 21 -32 26q-13 5 -40 5zM34 456v-21v-164
q0 -133 82 -209q82 -77 233 -77q118 0 193 46q74 47 106 133q4 12 4 22q0 7 -2 13q-6 12 -29 20q-37 13 -110 39q-23 8 -35 2q-11 -6 -20 -30q-13 -33 -38 -49q-26 -17 -69 -17q-60 0 -86 26q-26 27 -26 80v187q0 53 26 80q26 26 86 26q43 0 68 -16t39 -50q8 -24 20 -30
q11 -5 35 2q36 13 110 39q23 8 29 20q6 13 -2 35q-32 86 -106 133q-75 46 -193 46q-151 0 -233 -77q-82 -76 -82 -209z" />
    <glyph glyph-name="uni010a" unicode="&#x10a;" horiz-adv-x="667" 
d="M354 937h-6q-45 0 -61 -16q-17 -16 -17 -61v-8q0 -45 17 -61q16 -16 61 -16h6q45 0 60 16q16 16 16 61v8q0 45 -16 61q-15 16 -60 16zM34 456v-21v-164q0 -133 82 -209q82 -77 233 -77q118 0 193 46q74 47 106 133q4 12 4 22q0 7 -2 13q-6 12 -29 20q-37 13 -110 39
q-23 8 -35 2q-11 -6 -20 -30q-13 -33 -38 -49q-26 -17 -69 -17q-60 0 -86 26q-26 27 -26 80v187q0 53 26 80q26 26 86 26q43 0 68 -16t39 -50q8 -24 20 -30q11 -5 35 2q36 13 110 39q23 8 29 20q6 13 -2 35q-32 86 -106 133q-75 46 -193 46q-151 0 -233 -77
q-82 -76 -82 -209z" />
    <glyph glyph-name="uni010b" unicode="&#x10b;" horiz-adv-x="667" 
d="M354 937h-6q-45 0 -61 -16q-17 -16 -17 -61v-8q0 -45 17 -61q16 -16 61 -16h6q45 0 60 16q16 16 16 61v8q0 45 -16 61q-15 16 -60 16zM34 456v-21v-164q0 -133 82 -209q82 -77 233 -77q118 0 193 46q74 47 106 133q4 12 4 22q0 7 -2 13q-6 12 -29 20q-37 13 -110 39
q-23 8 -35 2q-11 -6 -20 -30q-13 -33 -38 -49q-26 -17 -69 -17q-60 0 -86 26q-26 27 -26 80v187q0 53 26 80q26 26 86 26q43 0 68 -16t39 -50q8 -24 20 -30q11 -5 35 2q36 13 110 39q23 8 29 20q6 13 -2 35q-32 86 -106 133q-75 46 -193 46q-151 0 -233 -77
q-82 -76 -82 -209z" />
    <glyph glyph-name="Ccaron" unicode="&#x10c;" horiz-adv-x="667" 
d="M530 942h-77q-29 0 -42 -4t-26 -18q-10 -12 -30 -35q-8 8 -31 35q-12 14 -24 18q-13 4 -43 4h-86q-25 0 -25 -12q0 -11 13 -24q34 -35 103 -104q21 -21 33 -25q13 -5 42 -5h28q30 0 43 5q13 4 33 25q34 35 103 104q12 13 12 24q0 12 -26 12zM34 456v-21v-164
q0 -133 82 -209q82 -77 233 -77q118 0 193 46q74 47 106 133q4 12 4 22q0 7 -2 13q-6 12 -29 20q-37 13 -110 39q-23 8 -35 2q-11 -6 -20 -30q-13 -33 -38 -49q-26 -17 -69 -17q-60 0 -86 26q-26 27 -26 80v187q0 53 26 80q26 26 86 26q43 0 68 -16t39 -50q8 -24 20 -30
q11 -5 35 2q36 13 110 39q23 8 29 20q6 13 -2 35q-32 86 -106 133q-75 46 -193 46q-151 0 -233 -77q-82 -76 -82 -209z" />
    <glyph glyph-name="ccaron" unicode="&#x10d;" horiz-adv-x="667" 
d="M530 942h-77q-29 0 -42 -4t-26 -18q-10 -12 -30 -35q-8 8 -31 35q-12 14 -24 18q-13 4 -43 4h-86q-25 0 -25 -12q0 -11 13 -24q34 -35 103 -104q21 -21 33 -25q13 -5 42 -5h28q30 0 43 5q13 4 33 25q34 35 103 104q12 13 12 24q0 12 -26 12zM34 456v-21v-164
q0 -133 82 -209q82 -77 233 -77q118 0 193 46q74 47 106 133q4 12 4 22q0 7 -2 13q-6 12 -29 20q-37 13 -110 39q-23 8 -35 2q-11 -6 -20 -30q-13 -33 -38 -49q-26 -17 -69 -17q-60 0 -86 26q-26 27 -26 80v187q0 53 26 80q26 26 86 26q43 0 68 -16t39 -50q8 -24 20 -30
q11 -5 35 2q36 13 110 39q23 8 29 20q6 13 -2 35q-32 86 -106 133q-75 46 -193 46q-151 0 -233 -77q-82 -76 -82 -209z" />
    <glyph glyph-name="uni010e" unicode="&#x10e;" horiz-adv-x="693" 
d="M504 942h-78q-29 0 -42 -4t-26 -18q-10 -12 -30 -35q-8 8 -31 35q-12 14 -25 18q-12 4 -43 4h-86q-24 0 -24 -12q1 -11 12 -24q35 -35 103 -104q21 -21 34 -25q12 -5 41 -5h29q30 0 42 5q13 4 34 25q34 35 103 104q12 13 12 24q-1 12 -25 12zM345 727h-250q-24 0 -34 -10
q-10 -9 -10 -33v-94v-547q0 -24 10 -33q10 -10 34 -10h54h196q151 0 233 77q81 78 81 210v153q0 133 -81 210q-82 77 -233 77zM457 437v-147q0 -55 -29 -83q-28 -28 -90 -28h-84v369h84q62 0 90 -28q29 -28 29 -83z" />
    <glyph glyph-name="uni010f" unicode="&#x10f;" horiz-adv-x="693" 
d="M504 942h-78q-29 0 -42 -4t-26 -18q-10 -12 -30 -35q-8 8 -31 35q-12 14 -25 18q-12 4 -43 4h-86q-24 0 -24 -12q1 -11 12 -24q35 -35 103 -104q21 -21 34 -25q12 -5 41 -5h29q30 0 42 5q13 4 34 25q34 35 103 104q12 13 12 24q-1 12 -25 12zM345 727h-250q-24 0 -34 -10
q-10 -9 -10 -33v-94v-547q0 -24 10 -33q10 -10 34 -10h54h196q151 0 233 77q81 78 81 210v153q0 133 -81 210q-82 77 -233 77zM457 437v-147q0 -55 -29 -83q-28 -28 -90 -28h-84v369h84q62 0 90 -28q29 -28 29 -83z" />
    <glyph glyph-name="uni0110" unicode="&#x110;" horiz-adv-x="723" 
d="M375 727h-250q-24 0 -33 -10q-10 -9 -10 -33v-250h-47q-13 0 -20 -5q-6 -6 -6 -21v-12v-66q0 -16 6 -22q5 -5 20 -5h47v-260q0 -24 10 -33q9 -10 33 -10h54h196q152 0 234 77q81 78 81 210v153q0 133 -81 210q-82 77 -234 77zM487 437v-147q0 -55 -28 -83t-91 -28h-83
v124h84q14 0 19 5q5 6 5 22v78q0 15 -5 21q-5 5 -19 5h-84v114h83t91 -28t28 -83z" />
    <glyph glyph-name="dcroat" unicode="&#x111;" horiz-adv-x="723" 
d="M375 727h-250q-24 0 -33 -10q-10 -9 -10 -33v-250h-47q-13 0 -20 -5q-6 -6 -6 -21v-12v-66q0 -16 6 -22q5 -5 20 -5h47v-260q0 -24 10 -33q9 -10 33 -10h54h196q152 0 234 77q81 78 81 210v153q0 133 -81 210q-82 77 -234 77zM487 437v-147q0 -55 -28 -83t-91 -28h-83
v124h84q14 0 19 5q5 6 5 22v78q0 15 -5 21q-5 5 -19 5h-84v114h83t91 -28t28 -83z" />
    <glyph glyph-name="uni0112" unicode="&#x112;" horiz-adv-x="602" 
d="M434 913h-249q-20 0 -28 -7q-9 -7 -9 -29v-43q0 -23 8 -30q7 -7 29 -7h249q22 0 30 7t8 30v43q0 22 -8 29t-30 7zM524 727h-429q-24 0 -34 -10q-10 -9 -10 -33v-94v-547q0 -24 10 -33q10 -10 34 -10h94h345q23 0 33 10q10 9 10 33v93q0 25 -10 34t-33 9h-280v99h216
q25 0 34 9q10 10 10 35v92q0 24 -10 33q-9 10 -34 10h-216v91h270q25 0 35 10q9 9 9 34v92q0 24 -9 33q-10 10 -35 10z" />
    <glyph glyph-name="uni0113" unicode="&#x113;" horiz-adv-x="602" 
d="M434 913h-249q-20 0 -28 -7q-9 -7 -9 -29v-43q0 -23 8 -30q7 -7 29 -7h249q22 0 30 7t8 30v43q0 22 -8 29t-30 7zM524 727h-429q-24 0 -34 -10q-10 -9 -10 -33v-94v-547q0 -24 10 -33q10 -10 34 -10h94h345q23 0 33 10q10 9 10 33v93q0 25 -10 34t-33 9h-280v99h216
q25 0 34 9q10 10 10 35v92q0 24 -10 33q-9 10 -34 10h-216v91h270q25 0 35 10q9 9 9 34v92q0 24 -9 33q-10 10 -35 10z" />
    <glyph glyph-name="uni0114" unicode="&#x114;" horiz-adv-x="602" 
d="M492 881q3 8 3 14q0 5 -2 8q-4 8 -19 13l-72 27q-16 5 -22 2q-7 -2 -14 -15q-10 -17 -23 -26q-14 -8 -33 -8q-20 0 -33 8q-14 9 -23 26q-8 13 -15 16h-5q-7 0 -19 -4q-22 -8 -68 -26q-14 -6 -18 -13q-2 -3 -2 -8q0 -6 3 -14q19 -53 66 -81t114 -28q69 0 115 28
q47 28 67 81zM524 727h-429q-24 0 -34 -10q-10 -9 -10 -33v-94v-547q0 -24 10 -33q10 -10 34 -10h94h345q23 0 33 10q10 9 10 33v93q0 25 -10 34t-33 9h-280v99h216q25 0 34 9q10 10 10 35v92q0 24 -10 33q-9 10 -34 10h-216v91h270q25 0 35 10q9 9 9 34v92q0 24 -9 33
q-10 10 -35 10z" />
    <glyph glyph-name="uni0115" unicode="&#x115;" horiz-adv-x="602" 
d="M492 881q3 8 3 14q0 5 -2 8q-4 8 -19 13l-72 27q-16 5 -22 2q-7 -2 -14 -15q-10 -17 -23 -26q-14 -8 -33 -8q-20 0 -33 8q-14 9 -23 26q-8 13 -15 16h-5q-7 0 -19 -4q-22 -8 -68 -26q-14 -6 -18 -13q-2 -3 -2 -8q0 -6 3 -14q19 -53 66 -81t114 -28q69 0 115 28
q47 28 67 81zM524 727h-429q-24 0 -34 -10q-10 -9 -10 -33v-94v-547q0 -24 10 -33q10 -10 34 -10h94h345q23 0 33 10q10 9 10 33v93q0 25 -10 34t-33 9h-280v99h216q25 0 34 9q10 10 10 35v92q0 24 -10 33q-9 10 -34 10h-216v91h270q25 0 35 10q9 9 9 34v92q0 24 -9 33
q-10 10 -35 10z" />
    <glyph glyph-name="uni0116" unicode="&#x116;" horiz-adv-x="602" 
d="M313 937h-6q-44 0 -60 -16q-17 -16 -17 -61v-8q0 -45 17 -61q16 -16 60 -16h6q45 0 61 16q15 16 15 61v8q0 45 -15 61q-16 16 -61 16zM524 727h-429q-24 0 -34 -10q-10 -9 -10 -33v-94v-547q0 -24 10 -33q10 -10 34 -10h94h345q23 0 33 10q10 9 10 33v93q0 25 -10 34
t-33 9h-280v99h216q25 0 34 9q10 10 10 35v92q0 24 -10 33q-9 10 -34 10h-216v91h270q25 0 35 10q9 9 9 34v92q0 24 -9 33q-10 10 -35 10z" />
    <glyph glyph-name="uni0117" unicode="&#x117;" horiz-adv-x="602" 
d="M204 936h-8q-43 0 -58 -16q-16 -15 -16 -57v-13q0 -41 16 -57q15 -16 58 -16h8q42 0 58 16q17 16 17 57v13q0 42 -17 57q-16 16 -58 16zM424 936h-7q-43 0 -60 -16q-16 -15 -16 -57v-13q0 -41 16 -57q17 -16 60 -16h7q42 0 58 16t16 57v13q0 42 -16 57q-16 16 -58 16z
M524 727h-429q-24 0 -34 -10q-10 -9 -10 -33v-94v-547q0 -24 10 -33q10 -10 34 -10h94h345q23 0 33 10q10 9 10 33v93q0 25 -10 34t-33 9h-280v99h216q25 0 34 9q10 10 10 35v92q0 24 -10 33q-9 10 -34 10h-216v91h270q25 0 35 10q9 9 9 34v92q0 24 -9 33q-10 10 -35 10z
" />
    <glyph glyph-name="uni0118" unicode="&#x118;" horiz-adv-x="602" 
d="M524 727h-429q-24 0 -34 -10q-10 -9 -10 -33v-94v-547q0 -24 10 -33q10 -10 34 -10h332q-41 -38 -64 -87q-24 -49 -15 -94q9 -40 40 -55q32 -14 70 -14q31 0 61 9q30 8 52 26q7 6 9 13v3q0 6 -3 15l-21 48q-4 7 -10 9t-15 -3q-4 -3 -8 -4t-9 -1q-8 0 -13 5t-5 12
q-5 32 18 63q24 31 52 64q6 6 8 14q3 8 3 20v93q0 25 -10 34t-33 9h-280v99h216q25 0 34 9q10 10 10 35v92q0 24 -10 33q-9 10 -34 10h-216v91h270q25 0 35 10q9 9 9 34v92q0 24 -9 33q-10 10 -35 10z" />
    <glyph glyph-name="uni0119" unicode="&#x119;" horiz-adv-x="602" 
d="M524 727h-429q-24 0 -34 -10q-10 -9 -10 -33v-94v-547q0 -24 10 -33q10 -10 34 -10h332q-41 -38 -64 -87q-24 -49 -15 -94q9 -40 40 -55q32 -14 70 -14q31 0 61 9q30 8 52 26q7 6 9 13v3q0 6 -3 15l-21 48q-4 7 -10 9t-15 -3q-4 -3 -8 -4t-9 -1q-8 0 -13 5t-5 12
q-5 32 18 63q24 31 52 64q6 6 8 14q3 8 3 20v93q0 25 -10 34t-33 9h-280v99h216q25 0 34 9q10 10 10 35v92q0 24 -10 33q-9 10 -34 10h-216v91h270q25 0 35 10q9 9 9 34v92q0 24 -9 33q-10 10 -35 10z" />
    <glyph glyph-name="uni011a" unicode="&#x11a;" horiz-adv-x="602" 
d="M490 942h-77q-30 0 -43 -4t-25 -18q-10 -12 -31 -35q-7 8 -30 35q-13 14 -25 18t-43 4h-86q-25 0 -25 -12q0 -11 13 -24q34 -35 103 -104q21 -21 33 -25q13 -5 42 -5h28q30 0 43 5q13 4 33 25q35 35 103 104q12 13 12 24q0 12 -25 12zM524 727h-429q-24 0 -34 -10
q-10 -9 -10 -33v-94v-547q0 -24 10 -33q10 -10 34 -10h94h345q23 0 33 10q10 9 10 33v93q0 25 -10 34t-33 9h-280v99h216q25 0 34 9q10 10 10 35v92q0 24 -10 33q-9 10 -34 10h-216v91h270q25 0 35 10q9 9 9 34v92q0 24 -9 33q-10 10 -35 10z" />
    <glyph glyph-name="uni011b" unicode="&#x11b;" horiz-adv-x="602" 
d="M490 942h-77q-30 0 -43 -4t-25 -18q-10 -12 -31 -35q-7 8 -30 35q-13 14 -25 18t-43 4h-86q-25 0 -25 -12q0 -11 13 -24q34 -35 103 -104q21 -21 33 -25q13 -5 42 -5h28q30 0 43 5q13 4 33 25q35 35 103 104q12 13 12 24q0 12 -25 12zM524 727h-429q-24 0 -34 -10
q-10 -9 -10 -33v-94v-547q0 -24 10 -33q10 -10 34 -10h94h345q23 0 33 10q10 9 10 33v93q0 25 -10 34t-33 9h-280v99h216q25 0 34 9q10 10 10 35v92q0 24 -10 33q-9 10 -34 10h-216v91h270q25 0 35 10q9 9 9 34v92q0 24 -9 33q-10 10 -35 10z" />
    <glyph glyph-name="uni011c" unicode="&#x11c;" horiz-adv-x="693" 
d="M370 952h-33q-32 0 -45 -5t-33 -25q-35 -35 -104 -105q-12 -11 -12 -22v-1q2 -12 27 -12h80q29 0 42 4q12 4 25 19q11 12 32 36q8 -10 30 -37q11 -15 24 -18q13 -4 43 -4h86q25 0 27 12v2q0 10 -11 21l-105 105q-21 20 -33 25q-13 5 -40 5zM621 418h-260q-23 0 -33 -10
t-10 -34v-77q0 -25 10 -34t33 -9h99v-21q0 -33 -30 -51q-29 -18 -81 -18q-60 0 -86 26q-26 27 -26 80v187q0 53 26 80q26 26 86 26q43 0 68 -16t39 -50q8 -24 20 -30q11 -6 35 2q36 13 110 39q23 8 29 20q6 13 -2 35q-32 86 -106 133q-75 46 -193 46q-151 0 -233 -77
q-82 -76 -82 -209v-28v-157q0 -133 82 -209q82 -77 233 -77t233 72q82 73 82 182v135q0 24 -10 34q-9 10 -33 10z" />
    <glyph glyph-name="uni011d" unicode="&#x11d;" horiz-adv-x="693" 
d="M370 952h-33q-32 0 -45 -5t-33 -25q-35 -35 -104 -105q-12 -11 -12 -22v-1q2 -12 27 -12h80q29 0 42 4q12 4 25 19q11 12 32 36q8 -10 30 -37q11 -15 24 -18q13 -4 43 -4h86q25 0 27 12v2q0 10 -11 21l-105 105q-21 20 -33 25q-13 5 -40 5zM621 418h-260q-23 0 -33 -10
t-10 -34v-77q0 -25 10 -34t33 -9h99v-21q0 -33 -30 -51q-29 -18 -81 -18q-60 0 -86 26q-26 27 -26 80v187q0 53 26 80q26 26 86 26q43 0 68 -16t39 -50q8 -24 20 -30q11 -6 35 2q36 13 110 39q23 8 29 20q6 13 -2 35q-32 86 -106 133q-75 46 -193 46q-151 0 -233 -77
q-82 -76 -82 -209v-28v-157q0 -133 82 -209q82 -77 233 -77t233 72q82 73 82 182v135q0 24 -10 34q-9 10 -33 10z" />
    <glyph glyph-name="Gbreve" unicode="&#x11e;" horiz-adv-x="693" 
d="M530 891q3 8 3 14q0 5 -1 8q-4 8 -19 14q-24 9 -72 26q-16 5 -22 3q-7 -3 -15 -16q-10 -17 -23 -25q-13 -9 -32 -9q-20 0 -33 9q-14 8 -23 25q-8 13 -15 16q-2 1 -6 1q-7 -1 -18 -5q-23 -8 -68 -25q-14 -6 -18 -14q-2 -3 -2 -8q0 -6 3 -14q19 -52 66 -81q47 -28 114 -28
q69 0 115 28q46 29 66 81zM621 418h-260q-23 0 -33 -10t-10 -34v-77q0 -25 10 -34t33 -9h99v-21q0 -33 -30 -51q-29 -18 -81 -18q-60 0 -86 26q-26 27 -26 80v187q0 53 26 80q26 26 86 26q43 0 68 -16t39 -50q8 -24 20 -30q11 -6 35 2q36 13 110 39q23 8 29 20q6 13 -2 35
q-32 86 -106 133q-75 46 -193 46q-151 0 -233 -77q-82 -76 -82 -209v-28v-157q0 -133 82 -209q82 -77 233 -77t233 72q82 73 82 182v135q0 24 -10 34q-9 10 -33 10z" />
    <glyph glyph-name="gbreve" unicode="&#x11f;" horiz-adv-x="693" 
d="M530 891q3 8 3 14q0 5 -1 8q-4 8 -19 14q-24 9 -72 26q-16 5 -22 3q-7 -3 -15 -16q-10 -17 -23 -25q-13 -9 -32 -9q-20 0 -33 9q-14 8 -23 25q-8 13 -15 16q-2 1 -6 1q-7 -1 -18 -5q-23 -8 -68 -25q-14 -6 -18 -14q-2 -3 -2 -8q0 -6 3 -14q19 -52 66 -81q47 -28 114 -28
q69 0 115 28q46 29 66 81zM621 418h-260q-23 0 -33 -10t-10 -34v-77q0 -25 10 -34t33 -9h99v-21q0 -33 -30 -51q-29 -18 -81 -18q-60 0 -86 26q-26 27 -26 80v187q0 53 26 80q26 26 86 26q43 0 68 -16t39 -50q8 -24 20 -30q11 -6 35 2q36 13 110 39q23 8 29 20q6 13 -2 35
q-32 86 -106 133q-75 46 -193 46q-151 0 -233 -77q-82 -76 -82 -209v-28v-157q0 -133 82 -209q82 -77 233 -77t233 72q82 73 82 182v135q0 24 -10 34q-9 10 -33 10z" />
    <glyph glyph-name="uni0120" unicode="&#x120;" horiz-adv-x="693" 
d="M352 947h-6q-44 0 -61 -16q-16 -16 -16 -61v-8q0 -44 16 -60q17 -17 61 -17h6q45 0 60 17q16 16 16 60v8q0 45 -16 61q-15 16 -60 16zM621 418h-260q-23 0 -33 -10t-10 -34v-77q0 -25 10 -34t33 -9h99v-21q0 -33 -30 -51q-29 -18 -81 -18q-60 0 -86 26q-26 27 -26 80v187
q0 53 26 80q26 26 86 26q43 0 68 -16t39 -50q8 -24 20 -30q11 -6 35 2q36 13 110 39q23 8 29 20q6 13 -2 35q-32 86 -106 133q-75 46 -193 46q-151 0 -233 -77q-82 -76 -82 -209v-28v-157q0 -133 82 -209q82 -77 233 -77t233 72q82 73 82 182v135q0 24 -10 34q-9 10 -33 10z
" />
    <glyph glyph-name="uni0121" unicode="&#x121;" horiz-adv-x="693" 
d="M352 947h-6q-44 0 -61 -16q-16 -16 -16 -61v-8q0 -44 16 -60q17 -17 61 -17h6q45 0 60 17q16 16 16 60v8q0 45 -16 61q-15 16 -60 16zM621 418h-260q-23 0 -33 -10t-10 -34v-77q0 -25 10 -34t33 -9h99v-21q0 -33 -30 -51q-29 -18 -81 -18q-60 0 -86 26q-26 27 -26 80v187
q0 53 26 80q26 26 86 26q43 0 68 -16t39 -50q8 -24 20 -30q11 -6 35 2q36 13 110 39q23 8 29 20q6 13 -2 35q-32 86 -106 133q-75 46 -193 46q-151 0 -233 -77q-82 -76 -82 -209v-28v-157q0 -133 82 -209q82 -77 233 -77t233 72q82 73 82 182v135q0 24 -10 34q-9 10 -33 10z
" />
    <glyph glyph-name="uni0122" unicode="&#x122;" horiz-adv-x="693" 
d="M621 418h-260q-23 0 -33 -10t-10 -34v-77q0 -25 10 -34t33 -9h99v-21q0 -33 -30 -51q-29 -18 -81 -18q-60 0 -86 26q-26 27 -26 80v187q0 53 26 80q26 26 86 26q43 0 68 -16t39 -50q8 -24 20 -30q11 -6 35 2q36 13 110 39q23 8 29 20q6 13 -2 35q-32 86 -106 133
q-75 46 -193 46q-151 0 -233 -77q-82 -76 -82 -209v-28v-157q0 -133 82 -209q82 -77 233 -77t233 72q82 73 82 182v135q0 24 -10 34q-9 10 -33 10zM399 -232q13 35 50 140q3 10 3 18t-4 13q-7 12 -34 12h-92q-24 0 -33 -10t-13 -33q-5 -48 -16 -144q0 -4 -1 -7q0 -11 5 -16
q7 -7 24 -7h64q21 0 31 8t16 26z" />
    <glyph glyph-name="uni0123" unicode="&#x123;" horiz-adv-x="693" 
d="M621 418h-260q-23 0 -33 -10t-10 -34v-77q0 -25 10 -34t33 -9h99v-21q0 -33 -30 -51q-29 -18 -81 -18q-60 0 -86 26q-26 27 -26 80v187q0 53 26 80q26 26 86 26q43 0 68 -16t39 -50q8 -24 20 -30q11 -6 35 2q36 13 110 39q23 8 29 20q6 13 -2 35q-32 86 -106 133
q-75 46 -193 46q-151 0 -233 -77q-82 -76 -82 -209v-28v-157q0 -133 82 -209q82 -77 233 -77t233 72q82 73 82 182v135q0 24 -10 34q-9 10 -33 10zM399 -232q13 35 50 140q3 10 3 18t-4 13q-7 12 -34 12h-92q-24 0 -33 -10t-13 -33q-5 -48 -16 -144q0 -4 -1 -7q0 -11 5 -16
q7 -7 24 -7h64q21 0 31 8t16 26z" />
    <glyph glyph-name="uni0124" unicode="&#x124;" horiz-adv-x="707" 
d="M375 942h-33q-33 0 -46 -5q-12 -5 -33 -26q-35 -34 -104 -104q-11 -11 -11 -21v-3q2 -11 26 -11h81q28 0 41 4q12 3 26 19q10 12 31 35q8 -9 30 -36q11 -15 25 -18q13 -4 44 -4h85q25 0 26 11v3q0 10 -10 21q-35 35 -106 104q-20 21 -33 26q-12 5 -39 5zM612 728h-116
q-24 0 -34 -10q-9 -9 -9 -34v-226h-199v226q0 25 -9 34q-9 10 -34 10h-116q-24 0 -34 -10q-10 -9 -10 -34v-94v-547q0 -24 10 -33q10 -10 34 -10h116q25 0 34 10q9 9 9 33v236h199v-236q0 -24 9 -33q10 -10 34 -10h24h92q24 0 34 10q9 9 9 33v641q0 25 -9 34q-10 10 -34 10z
" />
    <glyph glyph-name="uni0125" unicode="&#x125;" horiz-adv-x="707" 
d="M375 942h-33q-33 0 -46 -5q-12 -5 -33 -26q-35 -34 -104 -104q-11 -11 -11 -21v-3q2 -11 26 -11h81q28 0 41 4q12 3 26 19q10 12 31 35q8 -9 30 -36q11 -15 25 -18q13 -4 44 -4h85q25 0 26 11v3q0 10 -10 21q-35 35 -106 104q-20 21 -33 26q-12 5 -39 5zM612 728h-116
q-24 0 -34 -10q-9 -9 -9 -34v-226h-199v226q0 25 -9 34q-9 10 -34 10h-116q-24 0 -34 -10q-10 -9 -10 -34v-94v-547q0 -24 10 -33q10 -10 34 -10h116q25 0 34 10q9 9 9 33v236h199v-236q0 -24 9 -33q10 -10 34 -10h24h92q24 0 34 10q9 9 9 33v641q0 25 -9 34q-10 10 -34 10z
" />
    <glyph glyph-name="uni0126" unicode="&#x126;" horiz-adv-x="739" 
d="M710 644h-39v40q0 25 -9 34q-10 10 -34 10h-116q-25 0 -34 -10q-10 -9 -10 -34v-40h-198v40q0 25 -9 34q-10 10 -35 10h-115q-25 0 -34 -10q-9 -9 -9 -34v-40h-38q-13 0 -19 -6q-6 -5 -6 -21v-8v-47q0 -16 5 -21t20 -5h38v-493q0 -24 9 -33q9 -10 34 -10h115q25 0 35 10
q9 9 9 33v236h198v-236q0 -24 10 -33q9 -10 34 -10h25h91q24 0 34 10q9 9 9 33v493h39q14 0 19 5t5 21v55q0 16 -5 21q-5 6 -19 6zM468 458h-198v78h198v-78z" />
    <glyph glyph-name="uni0127" unicode="&#x127;" horiz-adv-x="739" 
d="M710 644h-39v40q0 25 -9 34q-10 10 -34 10h-116q-25 0 -34 -10q-10 -9 -10 -34v-40h-198v40q0 25 -9 34q-10 10 -35 10h-115q-25 0 -34 -10q-9 -9 -9 -34v-40h-38q-13 0 -19 -6q-6 -5 -6 -21v-8v-47q0 -16 5 -21t20 -5h38v-493q0 -24 9 -33q9 -10 34 -10h115q25 0 35 10
q9 9 9 33v236h198v-236q0 -24 10 -33q9 -10 34 -10h25h91q24 0 34 10q9 9 9 33v493h39q14 0 19 5t5 21v55q0 16 -5 21q-5 6 -19 6zM468 458h-198v78h198v-78z" />
    <glyph glyph-name="uni0128" unicode="&#x128;" horiz-adv-x="306" 
d="M303 931h-61q-12 0 -16 -5q-5 -4 -5 -15q0 -12 -4 -17q-3 -5 -10 -5q-25 0 -53 21t-86 21q-45 0 -72 -27q-27 -26 -27 -99q0 -12 6 -18q5 -6 18 -6h63q11 0 15 5q5 5 5 16t4 17q3 5 11 5q25 0 52 -21q26 -22 83 -22q49 0 75 28q26 27 26 98q0 13 -5 18q-5 6 -19 6z
M51 686v-121v-524q0 -23 9 -32t32 -9h26h95q23 0 32 9t9 32v645q0 23 -9 32t-32 9h-121q-23 0 -32 -9t-9 -32z" />
    <glyph glyph-name="uni0129" unicode="&#x129;" horiz-adv-x="306" 
d="M303 931h-61q-12 0 -16 -5q-5 -4 -5 -15q0 -12 -4 -17q-3 -5 -10 -5q-25 0 -53 21t-86 21q-45 0 -72 -27q-27 -26 -27 -99q0 -12 6 -18q5 -6 18 -6h63q11 0 15 5q5 5 5 16t4 17q3 5 11 5q25 0 52 -21q26 -22 83 -22q49 0 75 28q26 27 26 98q0 13 -5 18q-5 6 -19 6z
M51 686v-121v-524q0 -23 9 -32t32 -9h26h95q23 0 32 9t9 32v645q0 23 -9 32t-32 9h-121q-23 0 -32 -9t-9 -32z" />
    <glyph glyph-name="uni012a" unicode="&#x12a;" horiz-adv-x="306" 
d="M278 913h-250q-20 0 -28 -7t-8 -29v-7v-36q0 -23 7 -30t29 -7h250q22 0 30 7q7 7 7 30v43q0 22 -7 29q-8 7 -30 7zM51 686v-121v-524q0 -23 9 -32t32 -9h26h95q23 0 32 9t9 32v645q0 23 -9 32t-32 9h-121q-23 0 -32 -9t-9 -32z" />
    <glyph glyph-name="uni012b" unicode="&#x12b;" horiz-adv-x="306" 
d="M278 913h-250q-20 0 -28 -7t-8 -29v-7v-36q0 -23 7 -30t29 -7h250q22 0 30 7q7 7 7 30v43q0 22 -7 29q-8 7 -30 7zM51 686v-121v-524q0 -23 9 -32t32 -9h26h95q23 0 32 9t9 32v645q0 23 -9 32t-32 9h-121q-23 0 -32 -9t-9 -32z" />
    <glyph glyph-name="uni012c" unicode="&#x12c;" horiz-adv-x="306" 
d="M335 881q3 8 3 14q0 5 -2 8q-4 8 -19 13l-72 27q-16 5 -22 2q-6 -2 -14 -15q-10 -17 -23 -26q-13 -8 -32 -8q-20 0 -34 8q-14 9 -23 26q-7 13 -15 16h-5q-7 0 -19 -4q-22 -8 -67 -26q-15 -6 -19 -13q-2 -3 -2 -8q0 -6 3 -14q20 -53 66 -81q47 -28 115 -28q67 0 114 28
t67 81zM51 686v-121v-524q0 -23 9 -32t32 -9h26h95q23 0 32 9t9 32v645q0 23 -9 32t-32 9h-121q-23 0 -32 -9t-9 -32z" />
    <glyph glyph-name="uni012d" unicode="&#x12d;" horiz-adv-x="306" 
d="M335 881q3 8 3 14q0 5 -2 8q-4 8 -19 13l-72 27q-16 5 -22 2q-6 -2 -14 -15q-10 -17 -23 -26q-13 -8 -32 -8q-20 0 -34 8q-14 9 -23 26q-7 13 -15 16h-5q-7 0 -19 -4q-22 -8 -67 -26q-15 -6 -19 -13q-2 -3 -2 -8q0 -6 3 -14q20 -53 66 -81q47 -28 115 -28q67 0 114 28
t67 81zM51 686v-121v-524q0 -23 9 -32t32 -9h26h95q23 0 32 9t9 32v645q0 23 -9 32t-32 9h-121q-23 0 -32 -9t-9 -32z" />
    <glyph glyph-name="uni012e" unicode="&#x12e;" horiz-adv-x="306" 
d="M265 -185q-5 12 -21 48q-3 7 -10 9q-6 2 -14 -3q-5 -3 -10 -5q-5 -1 -9 -1q-8 0 -13 5q-4 5 -6 13q-2 17 8 49q11 33 51 74q7 6 10 15q3 8 3 22v645q0 23 -9 32t-32 9h-121q-23 0 -32 -9t-9 -32v-640q0 -24 11 -35t48 -11q-40 -41 -62 -89q-15 -34 -15 -66q0 -14 3 -28
q8 -43 41 -56q32 -13 68 -13q31 0 62 10q31 9 52 26q8 5 9 12q1 2 1 4q0 6 -4 15z" />
    <glyph glyph-name="uni012f" unicode="&#x12f;" horiz-adv-x="306" 
d="M265 -185q-5 12 -21 48q-3 7 -10 9q-6 2 -14 -3q-5 -3 -10 -5q-5 -1 -9 -1q-8 0 -13 5q-4 5 -6 13q-2 17 8 49q11 33 51 74q7 6 10 15q3 8 3 22v645q0 23 -9 32t-32 9h-121q-23 0 -32 -9t-9 -32v-640q0 -24 11 -35t48 -11q-40 -41 -62 -89q-15 -34 -15 -66q0 -14 3 -28
q8 -43 41 -56q32 -13 68 -13q31 0 62 10q31 9 52 26q8 5 9 12q1 2 1 4q0 6 -4 15z" />
    <glyph glyph-name="Idotaccent" unicode="&#x130;" horiz-adv-x="306" 
d="M157 937h-6q-46 0 -62 -16t-16 -61v-8q0 -45 16 -61t62 -16h6q44 0 60 16q15 16 15 61v8q0 45 -15 61q-16 16 -60 16zM51 686v-121v-524q0 -23 9 -32t32 -9h26h95q23 0 32 9t9 32v645q0 23 -9 32t-32 9h-121q-23 0 -32 -9t-9 -32z" />
    <glyph glyph-name="dotlessi" unicode="&#x131;" horiz-adv-x="306" 
d="M51 686v-121v-524q0 -23 9 -32t32 -9h26h95q23 0 32 9t9 32v645q0 23 -9 32t-32 9h-121q-23 0 -32 -9t-9 -32z" />
    <glyph glyph-name="uni0132" unicode="&#x132;" horiz-adv-x="905" 
d="M817 728h-119q-23 0 -33 -10q-9 -9 -9 -33v-433q0 -45 -18 -66q-19 -22 -56 -22q-31 0 -49 16t-31 46q-9 23 -22 28t-36 -3q-35 -13 -106 -38q-23 -8 -29 -21q-3 -5 -3 -13q0 -9 4 -21q31 -82 96 -128q65 -45 171 -45q139 0 211 71q71 71 71 197v432q0 24 -9 33
q-10 10 -33 10zM51 686v-121v-524q0 -23 9 -32t32 -9h26h95q23 0 32 9t9 32v645q0 23 -9 32t-32 9h-121q-23 0 -32 -9t-9 -32z" />
    <glyph glyph-name="uni0133" unicode="&#x133;" horiz-adv-x="905" 
d="M817 728h-119q-23 0 -33 -10q-9 -9 -9 -33v-433q0 -45 -18 -66q-19 -22 -56 -22q-31 0 -49 16t-31 46q-9 23 -22 28t-36 -3q-35 -13 -106 -38q-23 -8 -29 -21q-3 -5 -3 -13q0 -9 4 -21q31 -82 96 -128q65 -45 171 -45q139 0 211 71q71 71 71 197v432q0 24 -9 33
q-10 10 -33 10zM51 686v-121v-524q0 -23 9 -32t32 -9h26h95q23 0 32 9t9 32v645q0 23 -9 32t-32 9h-121q-23 0 -32 -9t-9 -32z" />
    <glyph glyph-name="uni0134" unicode="&#x134;" horiz-adv-x="601" 
d="M474 942h-33q-32 0 -45 -5t-34 -26l-104 -104q-11 -11 -11 -21v-3q2 -11 26 -11h81q29 0 41 4q13 3 26 19q10 12 32 35q7 -9 29 -36q12 -15 25 -18q13 -4 44 -4h86q25 0 26 11v3q0 10 -11 21q-35 35 -105 104q-21 21 -33 26q-13 5 -40 5zM512 728h-118q-24 0 -34 -10
q-9 -9 -9 -33v-433q0 -45 -18 -66q-19 -22 -57 -22q-30 0 -48 16t-31 46q-10 23 -22 28q-13 5 -36 -3q-35 -13 -106 -38q-23 -8 -29 -21q-3 -5 -3 -13q0 -9 5 -21q30 -82 95 -128q65 -45 171 -45q139 0 211 71q71 71 71 197v432q0 24 -9 33q-9 10 -33 10z" />
    <glyph glyph-name="uni0135" unicode="&#x135;" horiz-adv-x="601" 
d="M474 942h-33q-32 0 -45 -5t-34 -26l-104 -104q-11 -11 -11 -21v-3q2 -11 26 -11h81q29 0 41 4q13 3 26 19q10 12 32 35q7 -9 29 -36q12 -15 25 -18q13 -4 44 -4h86q25 0 26 11v3q0 10 -11 21q-35 35 -105 104q-21 21 -33 26q-13 5 -40 5zM512 728h-118q-24 0 -34 -10
q-9 -9 -9 -33v-433q0 -45 -18 -66q-19 -22 -57 -22q-30 0 -48 16t-31 46q-10 23 -22 28q-13 5 -36 -3q-35 -13 -106 -38q-23 -8 -29 -21q-3 -5 -3 -13q0 -9 5 -21q30 -82 95 -128q65 -45 171 -45q139 0 211 71q71 71 71 197v432q0 24 -9 33q-9 10 -33 10z" />
    <glyph glyph-name="uni0136" unicode="&#x136;" horiz-adv-x="671" 
d="M659 50q-33 64 -135 256q-13 26 -28 46q-15 19 -34 33l186 297q12 20 6 32q-7 13 -30 13h-118q-40 0 -54 -7q-13 -7 -28 -31q-49 -77 -148 -232h-22v227q0 24 -9 33q-9 10 -34 10h-116q-24 0 -34 -10q-10 -9 -10 -33v-94v-547q0 -24 10 -33q10 -10 34 -10h25h91
q25 0 34 10q9 9 9 33v235h18q30 0 44 -14q14 -13 26 -38q30 -61 89 -183q13 -27 32 -35t59 -8h111q25 0 31 15q2 5 2 11q0 11 -7 24zM383 -232q12 35 49 140q4 10 4 18t-4 13q-8 12 -35 12h-91q-24 0 -33 -10q-10 -10 -13 -33q-5 -48 -16 -144q-1 -3 -1 -6q0 -12 5 -17
q6 -7 23 -7h66q20 0 30 8t16 26z" />
    <glyph glyph-name="uni0137" unicode="&#x137;" horiz-adv-x="671" 
d="M659 50q-33 64 -135 256q-13 26 -28 46q-15 19 -34 33l186 297q12 20 6 32q-7 13 -30 13h-118q-40 0 -54 -7q-13 -7 -28 -31q-49 -77 -148 -232h-22v227q0 24 -9 33q-9 10 -34 10h-116q-24 0 -34 -10q-10 -9 -10 -33v-94v-547q0 -24 10 -33q10 -10 34 -10h25h91
q25 0 34 10q9 9 9 33v235h18q30 0 44 -14q14 -13 26 -38q30 -61 89 -183q13 -27 32 -35t59 -8h111q25 0 31 15q2 5 2 11q0 11 -7 24zM383 -232q12 35 49 140q4 10 4 18t-4 13q-8 12 -35 12h-91q-24 0 -33 -10q-10 -10 -13 -33q-5 -48 -16 -144q-1 -3 -1 -6q0 -12 5 -17
q6 -7 23 -7h66q20 0 30 8t16 26z" />
    <glyph glyph-name="uni0138" unicode="&#x138;" horiz-adv-x="671" 
d="M659 50q-33 64 -135 256q-13 26 -28 46q-15 19 -34 33l186 297q12 20 6 32q-7 13 -30 13h-118q-40 0 -54 -7q-13 -7 -28 -31q-49 -77 -148 -232h-22v227q0 24 -9 33q-9 10 -34 10h-116q-24 0 -34 -10q-10 -9 -10 -33v-94v-547q0 -24 10 -33q10 -10 34 -10h25h91
q25 0 34 10q9 9 9 33v235h18q30 0 44 -14q14 -13 26 -38q30 -61 89 -183q13 -27 32 -35t59 -8h111q25 0 31 15q2 5 2 11q0 11 -7 24z" />
    <glyph glyph-name="uni0139" unicode="&#x139;" horiz-adv-x="555" 
d="M164 936q-36 -21 -145 -83q-13 -8 -14 -16v-1q0 -8 11 -22q10 -11 29 -34q8 -10 18 -10q11 0 29 5q62 19 186 58q18 6 18 16v0q0 10 -12 24q-18 20 -53 60q-13 15 -28 15h-4q-17 -2 -35 -12zM211 727h-116q-24 0 -34 -10q-10 -9 -10 -33v-94v-547q0 -24 10 -33
q10 -10 34 -10h87h319q24 0 33 10q10 9 10 33v93q0 25 -10 34q-9 9 -33 9h-247v505q0 24 -9 33q-9 10 -34 10z" />
    <glyph glyph-name="uni013a" unicode="&#x13a;" horiz-adv-x="555" 
d="M164 936q-36 -21 -145 -83q-13 -8 -14 -16v-1q0 -8 11 -22q10 -11 29 -34q8 -10 18 -10q11 0 29 5q62 19 186 58q18 6 18 16v0q0 10 -12 24q-18 20 -53 60q-13 15 -28 15h-4q-17 -2 -35 -12zM211 727h-116q-24 0 -34 -10q-10 -9 -10 -33v-94v-547q0 -24 10 -33
q10 -10 34 -10h87h319q24 0 33 10q10 9 10 33v93q0 25 -10 34q-9 9 -33 9h-247v505q0 24 -9 33q-9 10 -34 10z" />
    <glyph glyph-name="uni013b" unicode="&#x13b;" horiz-adv-x="555" 
d="M211 727h-116q-24 0 -34 -10q-10 -9 -10 -33v-94v-547q0 -24 10 -33q10 -10 34 -10h87h319q24 0 33 10q10 9 10 33v93q0 25 -10 34q-9 9 -33 9h-247v505q0 24 -9 33q-9 10 -34 10zM328 -232q12 35 49 140q4 10 4 18t-4 13q-7 12 -35 12h-91q-23 0 -33 -10t-12 -33
l-18 -144v-6q0 -12 5 -17q6 -7 23 -7h66q20 0 30 8t16 26z" />
    <glyph glyph-name="uni013c" unicode="&#x13c;" horiz-adv-x="555" 
d="M211 727h-116q-24 0 -34 -10q-10 -9 -10 -33v-94v-547q0 -24 10 -33q10 -10 34 -10h87h319q24 0 33 10q10 9 10 33v93q0 25 -10 34q-9 9 -33 9h-247v505q0 24 -9 33q-9 10 -34 10zM328 -232q12 35 49 140q4 10 4 18t-4 13q-7 12 -35 12h-91q-23 0 -33 -10t-12 -33
l-18 -144v-6q0 -12 5 -17q6 -7 23 -7h66q20 0 30 8t16 26z" />
    <glyph glyph-name="uni013d" unicode="&#x13d;" horiz-adv-x="558" 
d="M210 727h-116q-24 0 -34 -10q-9 -9 -9 -33v-94v-547q0 -24 9 -33q10 -10 34 -10h87h319q24 0 34 10q9 9 9 33v93q0 25 -9 34q-10 9 -34 9h-246v505q0 24 -10 33q-10 10 -34 10zM453 525q14 41 59 162q3 9 3 17t-4 13q-7 10 -34 10h-92q-24 0 -33 -8q-10 -9 -12 -32
q-7 -57 -19 -170q-1 -4 -1 -7q0 -10 4 -14q4 -6 21 -6h59q23 0 32 8q9 7 17 27z" />
    <glyph glyph-name="uni013e" unicode="&#x13e;" horiz-adv-x="558" 
d="M210 727h-116q-24 0 -34 -10q-9 -9 -9 -33v-94v-547q0 -24 9 -33q10 -10 34 -10h87h319q24 0 34 10q9 9 9 33v93q0 25 -9 34q-10 9 -34 9h-246v505q0 24 -10 33q-10 10 -34 10zM453 525q14 41 59 162q3 9 3 17t-4 13q-7 10 -34 10h-92q-24 0 -33 -8q-10 -9 -12 -32
q-7 -57 -19 -170q-1 -4 -1 -7q0 -10 4 -14q4 -6 21 -6h59q23 0 32 8q9 7 17 27z" />
    <glyph glyph-name="uni013f" unicode="&#x13f;" horiz-adv-x="558" 
d="M211 727h-116q-24 0 -34 -10q-10 -9 -10 -33v-94v-547q0 -24 10 -33q10 -10 34 -10h87h319q24 0 33 10q10 9 10 33v93q0 25 -10 34q-9 9 -33 9h-247v505q0 24 -9 33q-9 10 -34 10zM429 512h-37q-43 0 -59 -16q-17 -17 -17 -60v-39q0 -43 17 -59q16 -16 59 -16h37
q43 0 59 16q17 16 17 59v39q0 43 -17 60q-16 16 -59 16z" />
    <glyph glyph-name="uni0140" unicode="&#x140;" horiz-adv-x="558" 
d="M211 727h-116q-24 0 -34 -10q-10 -9 -10 -33v-94v-547q0 -24 10 -33q10 -10 34 -10h87h319q24 0 33 10q10 9 10 33v93q0 25 -10 34q-9 9 -33 9h-247v505q0 24 -9 33q-9 10 -34 10zM429 512h-37q-43 0 -59 -16q-17 -17 -17 -60v-39q0 -43 17 -59q16 -16 59 -16h37
q43 0 59 16q17 16 17 59v39q0 43 -17 60q-16 16 -59 16z" />
    <glyph glyph-name="Lslash" unicode="&#x141;" horiz-adv-x="604" 
d="M549 179h-246v166q42 19 169 76q12 5 16 14q4 10 -3 23q-8 17 -25 51q-6 13 -15 17q-10 5 -27 -4q-38 -17 -115 -51v213q0 24 -10 33q-9 10 -34 10h-116q-24 0 -33 -10q-10 -9 -10 -33v-303q-23 -11 -95 -43q-12 -5 -16 -15q-1 -3 -1 -7q0 -7 4 -15q8 -17 25 -52
q7 -13 16 -17t26 5q14 5 41 17v-211q0 -24 10 -33q9 -10 33 -10h87h319q24 0 34 10q9 9 9 33v93q0 25 -9 34q-10 9 -34 9z" />
    <glyph glyph-name="lslash" unicode="&#x142;" horiz-adv-x="604" 
d="M549 179h-246v166q42 19 169 76q12 5 16 14q4 10 -3 23q-8 17 -25 51q-6 13 -15 17q-10 5 -27 -4q-38 -17 -115 -51v213q0 24 -10 33q-9 10 -34 10h-116q-24 0 -33 -10q-10 -9 -10 -33v-303q-23 -11 -95 -43q-12 -5 -16 -15q-1 -3 -1 -7q0 -7 4 -15q8 -17 25 -52
q7 -13 16 -17t26 5q14 5 41 17v-211q0 -24 10 -33q9 -10 33 -10h87h319q24 0 34 10q9 9 9 33v93q0 25 -9 34q-10 9 -34 9z" />
    <glyph glyph-name="uni0143" unicode="&#x143;" horiz-adv-x="717" 
d="M372 936q-36 -21 -145 -83q-13 -8 -13 -16v-1q-1 -8 11 -22q9 -11 28 -34q8 -10 18 -10q11 0 29 5q62 19 186 58q19 6 19 16q0 9 -13 24q-18 20 -53 60q-13 15 -29 15h-3q-18 -2 -35 -12zM623 727h-105q-24 0 -34 -10q-9 -9 -9 -33v-168q0 -27 1 -50q2 -23 4 -44
q5 -39 15 -76q10 -38 26 -89h-8q-25 58 -38 96q-14 38 -48 91q-56 88 -168 263q-7 10 -16 15t-27 5h-121q-24 0 -34 -10q-10 -9 -10 -33v-94v-547q0 -24 10 -33q10 -10 34 -10h104q24 0 34 10q10 9 10 33v167q0 85 -9 138q-9 52 -25 126h8q21 -69 39 -113q17 -45 51 -98
q53 -81 158 -243q7 -10 16 -15q10 -5 26 -5h24h92q23 0 33 10q10 9 10 33v641q0 24 -10 33q-10 10 -33 10z" />
    <glyph glyph-name="uni0144" unicode="&#x144;" horiz-adv-x="717" 
d="M372 936q-36 -21 -145 -83q-13 -8 -13 -16v-1q-1 -8 11 -22q9 -11 28 -34q8 -10 18 -10q11 0 29 5q62 19 186 58q19 6 19 16q0 9 -13 24q-18 20 -53 60q-13 15 -29 15h-3q-18 -2 -35 -12zM623 727h-105q-24 0 -34 -10q-9 -9 -9 -33v-168q0 -27 1 -50q2 -23 4 -44
q5 -39 15 -76q10 -38 26 -89h-8q-25 58 -38 96q-14 38 -48 91q-56 88 -168 263q-7 10 -16 15t-27 5h-121q-24 0 -34 -10q-10 -9 -10 -33v-94v-547q0 -24 10 -33q10 -10 34 -10h104q24 0 34 10q10 9 10 33v167q0 85 -9 138q-9 52 -25 126h8q21 -69 39 -113q17 -45 51 -98
q53 -81 158 -243q7 -10 16 -15q10 -5 26 -5h24h92q23 0 33 10q10 9 10 33v641q0 24 -10 33q-10 10 -33 10z" />
    <glyph glyph-name="uni0145" unicode="&#x145;" horiz-adv-x="717" 
d="M623 727h-105q-24 0 -34 -10q-9 -9 -9 -33v-168q0 -27 1 -50q2 -23 4 -44q5 -39 15 -76q10 -38 26 -89h-8q-25 58 -38 96q-14 38 -48 91q-56 88 -168 263q-7 10 -16 15t-27 5h-121q-24 0 -34 -10q-10 -9 -10 -33v-94v-547q0 -24 10 -33q10 -10 34 -10h104q24 0 34 10
q10 9 10 33v167q0 85 -9 138q-9 52 -25 126h8q21 -69 39 -113q17 -45 51 -98q53 -81 158 -243q7 -10 16 -15q10 -5 26 -5h24h92q23 0 33 10q10 9 10 33v641q0 24 -10 33q-10 10 -33 10zM401 -232q13 35 50 140q3 10 3 18q1 8 -3 13q-8 12 -35 12h-91q-23 0 -33 -10t-12 -33
l-18 -144v-6q0 -12 5 -17q6 -7 23 -7h65q20 0 30 8t16 26z" />
    <glyph glyph-name="uni0146" unicode="&#x146;" horiz-adv-x="717" 
d="M623 727h-105q-24 0 -34 -10q-9 -9 -9 -33v-168q0 -27 1 -50q2 -23 4 -44q5 -39 15 -76q10 -38 26 -89h-8q-25 58 -38 96q-14 38 -48 91q-56 88 -168 263q-7 10 -16 15t-27 5h-121q-24 0 -34 -10q-10 -9 -10 -33v-94v-547q0 -24 10 -33q10 -10 34 -10h104q24 0 34 10
q10 9 10 33v167q0 85 -9 138q-9 52 -25 126h8q21 -69 39 -113q17 -45 51 -98q53 -81 158 -243q7 -10 16 -15q10 -5 26 -5h24h92q23 0 33 10q10 9 10 33v641q0 24 -10 33q-10 10 -33 10zM401 -232q13 35 50 140q3 10 3 18q1 8 -3 13q-8 12 -35 12h-91q-23 0 -33 -10t-12 -33
l-18 -144v-6q0 -12 5 -17q6 -7 23 -7h65q20 0 30 8t16 26z" />
    <glyph glyph-name="uni0147" unicode="&#x147;" horiz-adv-x="717" 
d="M542 942h-78q-29 0 -42 -4t-26 -18q-10 -12 -30 -35q-8 8 -31 35q-12 14 -25 18q-12 4 -43 4h-86q-24 0 -24 -12q0 -11 12 -24q34 -35 103 -104q21 -21 34 -25q12 -5 41 -5h29q30 0 42 5q13 4 34 25q34 35 103 104q12 13 11 24q0 12 -24 12zM623 727h-105q-24 0 -34 -10
q-9 -9 -9 -33v-168q0 -27 1 -50q2 -23 4 -44q5 -39 15 -76q10 -38 26 -89h-8q-25 58 -38 96q-14 38 -48 91q-56 88 -168 263q-7 10 -16 15t-27 5h-121q-24 0 -34 -10q-10 -9 -10 -33v-94v-547q0 -24 10 -33q10 -10 34 -10h104q24 0 34 10q10 9 10 33v167q0 85 -9 138
q-9 52 -25 126h8q21 -69 39 -113q17 -45 51 -98q53 -81 158 -243q7 -10 16 -15q10 -5 26 -5h24h92q23 0 33 10q10 9 10 33v641q0 24 -10 33q-10 10 -33 10z" />
    <glyph glyph-name="uni0148" unicode="&#x148;" horiz-adv-x="717" 
d="M542 942h-78q-29 0 -42 -4t-26 -18q-10 -12 -30 -35q-8 8 -31 35q-12 14 -25 18q-12 4 -43 4h-86q-24 0 -24 -12q0 -11 12 -24q34 -35 103 -104q21 -21 34 -25q12 -5 41 -5h29q30 0 42 5q13 4 34 25q34 35 103 104q12 13 11 24q0 12 -24 12zM623 727h-105q-24 0 -34 -10
q-9 -9 -9 -33v-168q0 -27 1 -50q2 -23 4 -44q5 -39 15 -76q10 -38 26 -89h-8q-25 58 -38 96q-14 38 -48 91q-56 88 -168 263q-7 10 -16 15t-27 5h-121q-24 0 -34 -10q-10 -9 -10 -33v-94v-547q0 -24 10 -33q10 -10 34 -10h104q24 0 34 10q10 9 10 33v167q0 85 -9 138
q-9 52 -25 126h8q21 -69 39 -113q17 -45 51 -98q53 -81 158 -243q7 -10 16 -15q10 -5 26 -5h24h92q23 0 33 10q10 9 10 33v641q0 24 -10 33q-10 10 -33 10z" />
    <glyph glyph-name="uni0149" unicode="&#x149;" horiz-adv-x="717" 
d="M623 727h-105q-24 0 -34 -10q-9 -9 -9 -33v-168q0 -27 1 -50q2 -23 4 -44q5 -39 15 -76q10 -38 26 -89h-8q-25 58 -38 96q-14 38 -48 91q-56 88 -168 263q-7 10 -16 15t-27 5h-121q-24 0 -34 -10q-10 -9 -10 -33v-94v-547q0 -24 10 -33q10 -10 34 -10h104q24 0 34 10
q10 9 10 33v167q0 85 -9 138q-9 52 -25 126h8q21 -69 39 -113q17 -45 51 -98q53 -81 158 -243q7 -10 16 -15q10 -5 26 -5h24h92q23 0 33 10q10 9 10 33v641q0 24 -10 33q-10 10 -33 10z" />
    <glyph glyph-name="uni014a" unicode="&#x14a;" horiz-adv-x="717" 
d="M623 727h-105q-24 0 -34 -10q-9 -9 -9 -33v-168q0 -27 1 -50q2 -23 4 -44q5 -39 15 -76q10 -38 26 -89h-8q-25 58 -38 96q-14 38 -48 91q-56 88 -168 263q-7 10 -16 15t-27 5h-121q-24 0 -34 -10q-10 -9 -10 -33v-94v-547q0 -24 10 -33q10 -10 34 -10h104q24 0 34 10
q10 9 10 33v167q0 85 -9 138q-9 52 -25 126h8q21 -69 39 -113q17 -45 51 -98l165 -252v-9q0 -34 -15 -52t-51 -18q-24 0 -32 -9q-9 -9 -9 -32v-87q0 -22 9 -31q8 -9 32 -9q129 0 194 54q66 54 66 172v694q0 24 -10 33q-10 10 -33 10z" />
    <glyph glyph-name="uni014b" unicode="&#x14b;" horiz-adv-x="717" 
d="M623 727h-105q-24 0 -34 -10q-9 -9 -9 -33v-168q0 -27 1 -50q2 -23 4 -44q5 -39 15 -76q10 -38 26 -89h-8q-25 58 -38 96q-14 38 -48 91q-56 88 -168 263q-7 10 -16 15t-27 5h-121q-24 0 -34 -10q-10 -9 -10 -33v-94v-547q0 -24 10 -33q10 -10 34 -10h104q24 0 34 10
q10 9 10 33v167q0 85 -9 138q-9 52 -25 126h8q21 -69 39 -113q17 -45 51 -98l165 -252v-9q0 -34 -15 -52t-51 -18q-24 0 -32 -9q-9 -9 -9 -32v-87q0 -22 9 -31q8 -9 32 -9q129 0 194 54q66 54 66 172v694q0 24 -10 33q-10 10 -33 10z" />
    <glyph glyph-name="uni014c" unicode="&#x14c;" 
d="M473 924h-249q-20 0 -28 -8q-9 -7 -9 -29v-43q0 -22 8 -30q7 -7 29 -7h249q22 0 30 7q8 8 8 30v43q0 22 -8 29q-8 8 -30 8zM34 456v-21v-164q0 -133 81 -209q82 -77 234 -77q151 0 233 77q82 76 82 209v185q0 133 -82 209q-82 77 -233 77q-152 0 -234 -77
q-81 -76 -81 -209zM461 465v-203q0 -48 -30 -73q-29 -25 -82 -25q-54 0 -83 25t-29 73v203q0 48 29 73t83 25q53 0 82 -25q30 -25 30 -73z" />
    <glyph glyph-name="uni014d" unicode="&#x14d;" 
d="M473 924h-249q-20 0 -28 -8q-9 -7 -9 -29v-43q0 -22 8 -30q7 -7 29 -7h249q22 0 30 7q8 8 8 30v43q0 22 -8 29q-8 8 -30 8zM34 456v-21v-164q0 -133 81 -209q82 -77 234 -77q151 0 233 77q82 76 82 209v185q0 133 -82 209q-82 77 -233 77q-152 0 -234 -77
q-81 -76 -81 -209zM461 465v-203q0 -48 -30 -73q-29 -25 -82 -25q-54 0 -83 25t-29 73v203q0 48 29 73t83 25q53 0 82 -25q30 -25 30 -73z" />
    <glyph glyph-name="uni014e" unicode="&#x14e;" 
d="M530 891q3 8 3 14q0 5 -1 8q-4 8 -19 14q-24 9 -72 26q-16 5 -22 3q-7 -3 -15 -16q-10 -17 -23 -25q-13 -9 -32 -9q-20 0 -33 9q-14 8 -23 25q-8 13 -15 16q-2 1 -6 1q-7 -1 -18 -5q-23 -8 -68 -25q-14 -6 -18 -14q-2 -3 -2 -8q0 -6 3 -14q19 -52 66 -81q47 -28 114 -28
q69 0 115 28q46 29 66 81zM34 456v-21v-164q0 -133 81 -209q82 -77 234 -77q151 0 233 77q82 76 82 209v185q0 133 -82 209q-82 77 -233 77q-152 0 -234 -77q-81 -76 -81 -209zM461 465v-203q0 -48 -30 -73q-29 -25 -82 -25q-54 0 -83 25t-29 73v203q0 48 29 73t83 25
q53 0 82 -25q30 -25 30 -73z" />
    <glyph glyph-name="uni014f" unicode="&#x14f;" 
d="M530 891q3 8 3 14q0 5 -1 8q-4 8 -19 14q-24 9 -72 26q-16 5 -22 3q-7 -3 -15 -16q-10 -17 -23 -25q-13 -9 -32 -9q-20 0 -33 9q-14 8 -23 25q-8 13 -15 16q-2 1 -6 1q-7 -1 -18 -5q-23 -8 -68 -25q-14 -6 -18 -14q-2 -3 -2 -8q0 -6 3 -14q19 -52 66 -81q47 -28 114 -28
q69 0 115 28q46 29 66 81zM34 456v-21v-164q0 -133 81 -209q82 -77 234 -77q151 0 233 77q82 76 82 209v185q0 133 -82 209q-82 77 -233 77q-152 0 -234 -77q-81 -76 -81 -209zM461 465v-203q0 -48 -30 -73q-29 -25 -82 -25q-54 0 -83 25t-29 73v203q0 48 29 73t83 25
q53 0 82 -25q30 -25 30 -73z" />
    <glyph glyph-name="uni0150" unicode="&#x150;" 
d="M234 929q-18 -25 -72 -98q-8 -11 -8 -21v-3q1 -11 20 -14q15 -3 46 -9q7 -2 13 -2q5 0 9 2q9 3 23 16q39 32 116 97q13 11 12 22v4q-3 12 -23 17l-69 15q-10 2 -18 2q-11 0 -20 -3q-15 -7 -29 -25zM437 929q-19 -25 -78 -99q-8 -10 -8 -20v-3q2 -12 21 -15q15 -4 45 -11
q6 -1 11 -1q7 0 11 2q9 3 23 15q41 31 125 94q13 10 13 21v4q-4 13 -25 19q-23 6 -70 18q-11 3 -21 3t-17 -3q-15 -7 -30 -24zM34 456v-21v-164q0 -133 81 -209q82 -77 234 -77q151 0 233 77q82 76 82 209v185q0 133 -82 209q-82 77 -233 77q-152 0 -234 -77
q-81 -76 -81 -209zM461 465v-203q0 -48 -30 -73q-29 -25 -82 -25q-54 0 -83 25t-29 73v203q0 48 29 73t83 25q53 0 82 -25q30 -25 30 -73z" />
    <glyph glyph-name="uni0151" unicode="&#x151;" 
d="M234 929q-18 -25 -72 -98q-8 -11 -8 -21v-3q1 -11 20 -14q15 -3 46 -9q7 -2 13 -2q5 0 9 2q9 3 23 16q39 32 116 97q13 11 12 22v4q-3 12 -23 17l-69 15q-10 2 -18 2q-11 0 -20 -3q-15 -7 -29 -25zM437 929q-19 -25 -78 -99q-8 -10 -8 -20v-3q2 -12 21 -15q15 -4 45 -11
q6 -1 11 -1q7 0 11 2q9 3 23 15q41 31 125 94q13 10 13 21v4q-4 13 -25 19q-23 6 -70 18q-11 3 -21 3t-17 -3q-15 -7 -30 -24zM34 456v-21v-164q0 -133 81 -209q82 -77 234 -77q151 0 233 77q82 76 82 209v185q0 133 -82 209q-82 77 -233 77q-152 0 -234 -77
q-81 -76 -81 -209zM461 465v-203q0 -48 -30 -73q-29 -25 -82 -25q-54 0 -83 25t-29 73v203q0 48 29 73t83 25q53 0 82 -25q30 -25 30 -73z" />
    <glyph glyph-name="OE" unicode="&#x152;" horiz-adv-x="905" 
d="M837 179h-224v99h160q25 0 34 9q10 10 10 35v92q0 24 -10 33q-9 10 -34 10h-160v91h215q24 0 34 10q9 9 9 34v92q0 24 -9 33q-10 10 -34 10h-360q-26 8 -56 12q-30 3 -63 3q-152 0 -234 -77q-81 -76 -81 -209v-28v-157q0 -133 81 -209q82 -77 234 -77q36 0 66 3
q31 3 61 12h361q24 0 33 10q10 9 10 33v93q0 25 -10 34q-9 9 -33 9zM237 262v203q0 48 29 73t83 25q18 0 33 -3q16 -3 29 -9v-375q-13 -6 -29 -9q-15 -3 -33 -3q-54 0 -83 25t-29 73z" />
    <glyph glyph-name="oe" unicode="&#x153;" horiz-adv-x="905" 
d="M837 179h-224v99h160q25 0 34 9q10 10 10 35v92q0 24 -10 33q-9 10 -34 10h-160v91h215q24 0 34 10q9 9 9 34v92q0 24 -9 33q-10 10 -34 10h-360q-26 8 -56 12q-30 3 -63 3q-152 0 -234 -77q-81 -76 -81 -209v-28v-157q0 -133 81 -209q82 -77 234 -77q36 0 66 3
q31 3 61 12h361q24 0 33 10q10 9 10 33v93q0 25 -10 34q-9 9 -33 9zM237 262v203q0 48 29 73t83 25q18 0 33 -3q16 -3 29 -9v-375q-13 -6 -29 -9q-15 -3 -33 -3q-54 0 -83 25t-29 73z" />
    <glyph glyph-name="uni0154" unicode="&#x154;" horiz-adv-x="677" 
d="M337 936q-36 -21 -144 -83q-14 -8 -15 -16v-1q0 -8 11 -22q10 -11 28 -34q9 -10 19 -10q11 0 29 5q62 19 186 58q18 6 18 16v0q0 10 -12 24q-18 20 -53 60q-14 15 -29 15h-4q-16 -2 -34 -12zM387 727h-292q-24 0 -34 -10q-10 -9 -10 -33v-94v-547q0 -24 10 -33
q10 -10 34 -10h25h91q25 0 34 10q9 9 9 33v199h24q31 0 47 -13t29 -40q22 -46 66 -140q12 -27 33 -38q20 -11 61 -11h111q25 0 31 15q2 5 2 11q0 11 -7 24q-30 59 -92 175q-6 13 -13 23q-7 11 -15 21q53 29 82 83q29 53 29 128q0 119 -69 183q-70 64 -186 64zM432 481
q0 -31 -18 -50q-17 -18 -49 -18h-111v135h111q33 0 50 -18t17 -49z" />
    <glyph glyph-name="uni0155" unicode="&#x155;" horiz-adv-x="677" 
d="M337 936q-36 -21 -144 -83q-14 -8 -15 -16v-1q0 -8 11 -22q10 -11 28 -34q9 -10 19 -10q11 0 29 5q62 19 186 58q18 6 18 16v0q0 10 -12 24q-18 20 -53 60q-14 15 -29 15h-4q-16 -2 -34 -12zM387 727h-292q-24 0 -34 -10q-10 -9 -10 -33v-94v-547q0 -24 10 -33
q10 -10 34 -10h25h91q25 0 34 10q9 9 9 33v199h24q31 0 47 -13t29 -40q22 -46 66 -140q12 -27 33 -38q20 -11 61 -11h111q25 0 31 15q2 5 2 11q0 11 -7 24q-30 59 -92 175q-6 13 -13 23q-7 11 -15 21q53 29 82 83q29 53 29 128q0 119 -69 183q-70 64 -186 64zM432 481
q0 -31 -18 -50q-17 -18 -49 -18h-111v135h111q33 0 50 -18t17 -49z" />
    <glyph glyph-name="uni0156" unicode="&#x156;" horiz-adv-x="677" 
d="M387 727h-292q-24 0 -34 -10q-10 -9 -10 -33v-94v-547q0 -24 10 -33q10 -10 34 -10h25h91q25 0 34 10q9 9 9 33v199h24q31 0 47 -13t29 -40q22 -46 66 -140q12 -27 33 -38q20 -11 61 -11h111q25 0 31 15q2 5 2 11q0 11 -7 24q-30 59 -92 175q-6 13 -13 23q-7 11 -15 21
q53 29 82 83q29 53 29 128q0 119 -69 183q-70 64 -186 64zM432 481q0 -31 -18 -50q-17 -18 -49 -18h-111v135h111q33 0 50 -18t17 -49zM388 -232q13 35 50 140q4 10 4 17q0 8 -4 14q-8 12 -35 12h-92q-23 0 -32 -10q-10 -10 -13 -33q-5 -48 -16 -144q-1 -4 -1 -7
q0 -11 5 -16q6 -7 22 -7h66q21 0 30 8q10 8 16 26z" />
    <glyph glyph-name="uni0157" unicode="&#x157;" horiz-adv-x="677" 
d="M387 727h-292q-24 0 -34 -10q-10 -9 -10 -33v-94v-547q0 -24 10 -33q10 -10 34 -10h25h91q25 0 34 10q9 9 9 33v199h24q31 0 47 -13t29 -40q22 -46 66 -140q12 -27 33 -38q20 -11 61 -11h111q25 0 31 15q2 5 2 11q0 11 -7 24q-30 59 -92 175q-6 13 -13 23q-7 11 -15 21
q53 29 82 83q29 53 29 128q0 119 -69 183q-70 64 -186 64zM432 481q0 -31 -18 -50q-17 -18 -49 -18h-111v135h111q33 0 50 -18t17 -49zM388 -232q13 35 50 140q4 10 4 17q0 8 -4 14q-8 12 -35 12h-92q-23 0 -32 -10q-10 -10 -13 -33q-5 -48 -16 -144q-1 -4 -1 -7
q0 -11 5 -16q6 -7 22 -7h66q21 0 30 8q10 8 16 26z" />
    <glyph glyph-name="uni0158" unicode="&#x158;" horiz-adv-x="677" 
d="M506 942h-78q-28 0 -41 -4t-27 -18q-9 -12 -29 -35q-8 8 -32 35q-12 14 -24 18q-13 4 -44 4h-86q-23 0 -24 -11v-1q1 -11 13 -24l104 -104q20 -21 32 -25q13 -5 42 -5h28q31 0 43 5q13 4 34 25q34 35 102 104q12 13 12 24q0 12 -25 12zM387 727h-292q-24 0 -34 -10
q-10 -9 -10 -33v-94v-547q0 -24 10 -33q10 -10 34 -10h25h91q25 0 34 10q9 9 9 33v199h24q31 0 47 -13t29 -40q22 -46 66 -140q12 -27 33 -38q20 -11 61 -11h111q25 0 31 15q2 5 2 11q0 11 -7 24q-30 59 -92 175q-6 13 -13 23q-7 11 -15 21q53 29 82 83q29 53 29 128
q0 119 -69 183q-70 64 -186 64zM432 481q0 -31 -18 -50q-17 -18 -49 -18h-111v135h111q33 0 50 -18t17 -49z" />
    <glyph glyph-name="uni0159" unicode="&#x159;" horiz-adv-x="677" 
d="M506 942h-78q-28 0 -41 -4t-27 -18q-9 -12 -29 -35q-8 8 -32 35q-12 14 -24 18q-13 4 -44 4h-86q-23 0 -24 -11v-1q1 -11 13 -24l104 -104q20 -21 32 -25q13 -5 42 -5h28q31 0 43 5q13 4 34 25q34 35 102 104q12 13 12 24q0 12 -25 12zM387 727h-292q-24 0 -34 -10
q-10 -9 -10 -33v-94v-547q0 -24 10 -33q10 -10 34 -10h25h91q25 0 34 10q9 9 9 33v199h24q31 0 47 -13t29 -40q22 -46 66 -140q12 -27 33 -38q20 -11 61 -11h111q25 0 31 15q2 5 2 11q0 11 -7 24q-30 59 -92 175q-6 13 -13 23q-7 11 -15 21q53 29 82 83q29 53 29 128
q0 119 -69 183q-70 64 -186 64zM432 481q0 -31 -18 -50q-17 -18 -49 -18h-111v135h111q33 0 50 -18t17 -49z" />
    <glyph glyph-name="uni015a" unicode="&#x15a;" horiz-adv-x="663" 
d="M342 946q-36 -21 -144 -83q-14 -7 -15 -16v0q1 -9 12 -23q9 -11 28 -33q8 -11 18 -11q11 0 29 5q62 20 186 58q18 7 18 16q1 0 1 1q-1 9 -13 24q-18 20 -52 59q-14 15 -29 15h-4q-17 -2 -35 -12zM29 513q0 -52 14 -89t38 -62q44 -46 111 -62q66 -16 124 -24q51 -6 86 -18
q34 -12 34 -42q0 -33 -29 -46q-29 -12 -80 -12q-43 0 -73 13q-29 14 -43 41q-12 22 -25 26q-12 4 -35 -4q-33 -11 -97 -34q-22 -9 -29 -21q-3 -6 -3 -14q0 -9 5 -22q29 -80 106 -119t192 -39q136 0 226 60q91 60 91 173q0 94 -42 142q-42 47 -101 68q-31 12 -65 18
q-33 6 -64 11q-56 7 -95 18t-39 44q0 27 22 40q23 13 75 13q35 0 62 -12t41 -41q13 -22 24 -26q11 -5 32 5q34 14 102 44q23 9 29 22t-5 35q-36 74 -104 109q-68 34 -181 34q-147 0 -226 -64q-78 -64 -78 -165z" />
    <glyph glyph-name="uni015b" unicode="&#x15b;" horiz-adv-x="663" 
d="M342 946q-36 -21 -144 -83q-14 -7 -15 -16v0q1 -9 12 -23q9 -11 28 -33q8 -11 18 -11q11 0 29 5q62 20 186 58q18 7 18 16q1 0 1 1q-1 9 -13 24q-18 20 -52 59q-14 15 -29 15h-4q-17 -2 -35 -12zM29 513q0 -52 14 -89t38 -62q44 -46 111 -62q66 -16 124 -24q51 -6 86 -18
q34 -12 34 -42q0 -33 -29 -46q-29 -12 -80 -12q-43 0 -73 13q-29 14 -43 41q-12 22 -25 26q-12 4 -35 -4q-33 -11 -97 -34q-22 -9 -29 -21q-3 -6 -3 -14q0 -9 5 -22q29 -80 106 -119t192 -39q136 0 226 60q91 60 91 173q0 94 -42 142q-42 47 -101 68q-31 12 -65 18
q-33 6 -64 11q-56 7 -95 18t-39 44q0 27 22 40q23 13 75 13q35 0 62 -12t41 -41q13 -22 24 -26q11 -5 32 5q34 14 102 44q23 9 29 22t-5 35q-36 74 -104 109q-68 34 -181 34q-147 0 -226 -64q-78 -64 -78 -165z" />
    <glyph glyph-name="uni015c" unicode="&#x15c;" horiz-adv-x="663" 
d="M352 952h-33q-32 0 -45 -5t-33 -25l-105 -105q-10 -11 -10 -21v-2q1 -12 27 -12h79q30 0 42 4q13 4 25 19l33 36q7 -10 28 -37q12 -15 25 -18q13 -4 44 -4h86q25 0 26 12v2q0 10 -11 21l-105 105q-21 20 -33 25t-40 5zM29 513q0 -52 14 -89t38 -62q44 -46 111 -62
q66 -16 124 -24q51 -6 86 -18q34 -12 34 -42q0 -33 -29 -46q-29 -12 -80 -12q-43 0 -73 13q-29 14 -43 41q-12 22 -25 26q-12 4 -35 -4q-33 -11 -97 -34q-22 -9 -29 -21q-3 -6 -3 -14q0 -9 5 -22q29 -80 106 -119t192 -39q136 0 226 60q91 60 91 173q0 94 -42 142
q-42 47 -101 68q-31 12 -65 18q-33 6 -64 11q-56 7 -95 18t-39 44q0 27 22 40q23 13 75 13q35 0 62 -12t41 -41q13 -22 24 -26q11 -5 32 5q34 14 102 44q23 9 29 22t-5 35q-36 74 -104 109q-68 34 -181 34q-147 0 -226 -64q-78 -64 -78 -165z" />
    <glyph glyph-name="uni015d" unicode="&#x15d;" horiz-adv-x="663" 
d="M352 952h-33q-32 0 -45 -5t-33 -25l-105 -105q-10 -11 -10 -21v-2q1 -12 27 -12h79q30 0 42 4q13 4 25 19l33 36q7 -10 28 -37q12 -15 25 -18q13 -4 44 -4h86q25 0 26 12v2q0 10 -11 21l-105 105q-21 20 -33 25t-40 5zM29 513q0 -52 14 -89t38 -62q44 -46 111 -62
q66 -16 124 -24q51 -6 86 -18q34 -12 34 -42q0 -33 -29 -46q-29 -12 -80 -12q-43 0 -73 13q-29 14 -43 41q-12 22 -25 26q-12 4 -35 -4q-33 -11 -97 -34q-22 -9 -29 -21q-3 -6 -3 -14q0 -9 5 -22q29 -80 106 -119t192 -39q136 0 226 60q91 60 91 173q0 94 -42 142
q-42 47 -101 68q-31 12 -65 18q-33 6 -64 11q-56 7 -95 18t-39 44q0 27 22 40q23 13 75 13q35 0 62 -12t41 -41q13 -22 24 -26q11 -5 32 5q34 14 102 44q23 9 29 22t-5 35q-36 74 -104 109q-68 34 -181 34q-147 0 -226 -64q-78 -64 -78 -165z" />
    <glyph glyph-name="Scedilla" unicode="&#x15e;" horiz-adv-x="662" 
d="M370 457q-56 7 -95 18t-39 44q0 27 22 40t74 13q35 0 62 -12t42 -41q12 -22 23 -26q11 -5 33 5q34 14 102 44q23 9 29 22t-5 35q-36 74 -104 109q-69 34 -182 34q-146 0 -225 -64q-78 -64 -78 -165q0 -52 14 -89t38 -62q44 -46 111 -62q66 -16 124 -24q50 -6 85 -18
t35 -42q0 -33 -29 -46q-29 -12 -81 -12q-43 0 -73 13q-29 14 -42 41q-12 22 -25 26q-12 4 -35 -4q-33 -11 -98 -34q-22 -9 -28 -21q-3 -6 -3 -13q0 -10 5 -23q27 -73 95 -113q69 -40 171 -44q-11 -25 -33 -73q-7 -16 -3 -23q3 -8 17 -8h21q25 -1 34 -6t9 -16q0 -10 -8 -17
t-27 -7q-18 0 -31 4q-12 5 -25 12q-18 9 -25 3q-8 -5 -8 -20q0 -14 1 -43q0 -11 5 -18q6 -7 22 -14q19 -7 38 -9q20 -2 38 -2q54 0 101 21q46 21 53 82q5 41 -18 71q-23 29 -66 30h-10q3 9 14 36q111 14 180 72q70 59 70 157q0 51 -13 88q-13 36 -36 61q-41 48 -104 65
q-62 17 -119 25z" />
    <glyph glyph-name="scedilla" unicode="&#x15f;" horiz-adv-x="662" 
d="M370 457q-56 7 -95 18t-39 44q0 27 22 40t74 13q35 0 62 -12t42 -41q12 -22 23 -26q11 -5 33 5q34 14 102 44q23 9 29 22t-5 35q-36 74 -104 109q-69 34 -182 34q-146 0 -225 -64q-78 -64 -78 -165q0 -52 14 -89t38 -62q44 -46 111 -62q66 -16 124 -24q50 -6 85 -18
t35 -42q0 -33 -29 -46q-29 -12 -81 -12q-43 0 -73 13q-29 14 -42 41q-12 22 -25 26q-12 4 -35 -4q-33 -11 -98 -34q-22 -9 -28 -21q-3 -6 -3 -13q0 -10 5 -23q27 -73 95 -113q69 -40 171 -44q-11 -25 -33 -73q-7 -16 -3 -23q3 -8 17 -8h21q25 -1 34 -6t9 -16q0 -10 -8 -17
t-27 -7q-18 0 -31 4q-12 5 -25 12q-18 9 -25 3q-8 -5 -8 -20q0 -14 1 -43q0 -11 5 -18q6 -7 22 -14q19 -7 38 -9q20 -2 38 -2q54 0 101 21q46 21 53 82q5 41 -18 71q-23 29 -66 30h-10q3 9 14 36q111 14 180 72q70 59 70 157q0 51 -13 88q-13 36 -36 61q-41 48 -104 65
q-62 17 -119 25z" />
    <glyph glyph-name="Scaron" unicode="&#x160;" horiz-adv-x="663" 
d="M511 952h-78q-28 0 -41 -4t-26 -18q-10 -12 -30 -35q-8 9 -32 35q-11 14 -24 18q-12 4 -42 4h-86q-26 0 -25 -11q0 -12 12 -25q35 -34 104 -104q20 -21 33 -25q12 -5 41 -5h28q31 0 43 5q13 4 34 25q34 35 102 104q13 13 12 25q0 11 -25 11zM29 513q0 -52 14 -89t38 -62
q44 -46 111 -62q66 -16 124 -24q51 -6 86 -18q34 -12 34 -42q0 -33 -29 -46q-29 -12 -80 -12q-43 0 -73 13q-29 14 -43 41q-12 22 -25 26q-12 4 -35 -4q-33 -11 -97 -34q-22 -9 -29 -21q-3 -6 -3 -14q0 -9 5 -22q29 -80 106 -119t192 -39q136 0 226 60q91 60 91 173
q0 94 -42 142q-42 47 -101 68q-31 12 -65 18q-33 6 -64 11q-56 7 -95 18t-39 44q0 27 22 40q23 13 75 13q35 0 62 -12t41 -41q13 -22 24 -26q11 -5 32 5q34 14 102 44q23 9 29 22t-5 35q-36 74 -104 109q-68 34 -181 34q-147 0 -226 -64q-78 -64 -78 -165z" />
    <glyph glyph-name="scaron" unicode="&#x161;" horiz-adv-x="663" 
d="M511 952h-78q-28 0 -41 -4t-26 -18q-10 -12 -30 -35q-8 9 -32 35q-11 14 -24 18q-12 4 -42 4h-86q-26 0 -25 -11q0 -12 12 -25q35 -34 104 -104q20 -21 33 -25q12 -5 41 -5h28q31 0 43 5q13 4 34 25q34 35 102 104q13 13 12 25q0 11 -25 11zM29 513q0 -52 14 -89t38 -62
q44 -46 111 -62q66 -16 124 -24q51 -6 86 -18q34 -12 34 -42q0 -33 -29 -46q-29 -12 -80 -12q-43 0 -73 13q-29 14 -43 41q-12 22 -25 26q-12 4 -35 -4q-33 -11 -97 -34q-22 -9 -29 -21q-3 -6 -3 -14q0 -9 5 -22q29 -80 106 -119t192 -39q136 0 226 60q91 60 91 173
q0 94 -42 142q-42 47 -101 68q-31 12 -65 18q-33 6 -64 11q-56 7 -95 18t-39 44q0 27 22 40q23 13 75 13q35 0 62 -12t41 -41q13 -22 24 -26q11 -5 32 5q34 14 102 44q23 9 29 22t-5 35q-36 74 -104 109q-68 34 -181 34q-147 0 -226 -64q-78 -64 -78 -165z" />
    <glyph glyph-name="uni0164" unicode="&#x164;" horiz-adv-x="617" 
d="M489 942h-77q-30 0 -43 -4t-25 -18q-10 -12 -31 -35q-7 8 -30 35q-13 14 -25 18t-43 4h-86q-25 0 -25 -12q0 -11 13 -24q34 -35 103 -104q21 -21 33 -25q13 -5 42 -5h28q30 0 43 5q13 4 33 25q34 35 103 104q12 13 12 24q0 12 -25 12zM562 727h-507q-24 0 -33 -10
q-10 -9 -10 -33v-14v-78q0 -25 10 -34q9 -10 33 -10h153v-505q0 -24 9 -33q9 -10 34 -10h24h92q24 0 34 10q10 9 10 33v505h151q25 0 34 10q10 9 10 34v92q0 24 -10 33q-9 10 -34 10z" />
    <glyph glyph-name="uni0165" unicode="&#x165;" horiz-adv-x="617" 
d="M489 942h-77q-30 0 -43 -4t-25 -18q-10 -12 -31 -35q-7 8 -30 35q-13 14 -25 18t-43 4h-86q-25 0 -25 -12q0 -11 13 -24q34 -35 103 -104q21 -21 33 -25q13 -5 42 -5h28q30 0 43 5q13 4 33 25q34 35 103 104q12 13 12 24q0 12 -25 12zM562 727h-507q-24 0 -33 -10
q-10 -9 -10 -33v-14v-78q0 -25 10 -34q9 -10 33 -10h153v-505q0 -24 9 -33q9 -10 34 -10h24h92q24 0 34 10q10 9 10 33v505h151q25 0 34 10q10 9 10 34v92q0 24 -10 33q-9 10 -34 10z" />
    <glyph glyph-name="uni0166" unicode="&#x166;" horiz-adv-x="629" 
d="M568 727h-507q-24 0 -34 -10q-10 -9 -10 -33v-14v-78q0 -25 10 -34q10 -10 34 -10h152v-167h-97q-13 0 -20 -6q-6 -5 -6 -21v-68q0 -17 6 -23q5 -5 20 -5h97v-215q0 -24 10 -33q9 -10 34 -10h25h91q24 0 34 10q9 9 9 33v215h98q15 0 20 5q6 6 6 23v68q0 16 -6 21
q-5 6 -20 6h-98v167h152q25 0 34 10q9 9 9 34v92q0 24 -9 33q-9 10 -34 10z" />
    <glyph glyph-name="uni0167" unicode="&#x167;" horiz-adv-x="629" 
d="M568 727h-507q-24 0 -34 -10q-10 -9 -10 -33v-14v-78q0 -25 10 -34q10 -10 34 -10h152v-167h-97q-13 0 -20 -6q-6 -5 -6 -21v-68q0 -17 6 -23q5 -5 20 -5h97v-215q0 -24 10 -33q9 -10 34 -10h25h91q24 0 34 10q9 9 9 33v215h98q15 0 20 5q6 6 6 23v68q0 16 -6 21
q-5 6 -20 6h-98v167h152q25 0 34 10q9 9 9 34v92q0 24 -9 33q-9 10 -34 10z" />
    <glyph glyph-name="uni0168" unicode="&#x168;" horiz-adv-x="709" 
d="M505 931h-63q-10 0 -15 -5q-4 -4 -4 -15q0 -12 -4 -17t-11 -5q-25 0 -53 21q-27 21 -86 21q-44 0 -71 -27q-27 -26 -27 -99q0 -12 5 -18q6 -6 19 -6h62q11 0 16 5t5 16t3 17q4 5 11 5q25 0 52 -21q27 -22 84 -22q49 0 75 28q25 27 25 98q0 13 -4 18q-5 6 -19 6zM249 258
v426q0 24 -10 33q-10 10 -34 10h-116q-24 0 -34 -10q-9 -9 -9 -33v-104v-313q0 -129 79 -206q78 -76 229 -76q152 0 231 76q79 77 79 206v417q0 24 -10 33q-10 10 -34 10h-116q-25 0 -34 -10q-9 -9 -9 -33v-426q0 -45 -27 -70q-27 -24 -80 -24t-79 24q-26 25 -26 70z" />
    <glyph glyph-name="uni0169" unicode="&#x169;" horiz-adv-x="709" 
d="M505 931h-63q-10 0 -15 -5q-4 -4 -4 -15q0 -12 -4 -17t-11 -5q-25 0 -53 21q-27 21 -86 21q-44 0 -71 -27q-27 -26 -27 -99q0 -12 5 -18q6 -6 19 -6h62q11 0 16 5t5 16t3 17q4 5 11 5q25 0 52 -21q27 -22 84 -22q49 0 75 28q25 27 25 98q0 13 -4 18q-5 6 -19 6zM249 258
v426q0 24 -10 33q-10 10 -34 10h-116q-24 0 -34 -10q-9 -9 -9 -33v-104v-313q0 -129 79 -206q78 -76 229 -76q152 0 231 76q79 77 79 206v417q0 24 -10 33q-10 10 -34 10h-116q-25 0 -34 -10q-9 -9 -9 -33v-426q0 -45 -27 -70q-27 -24 -80 -24t-79 24q-26 25 -26 70z" />
    <glyph glyph-name="uni016a" unicode="&#x16a;" horiz-adv-x="709" 
d="M479 913h-250q-19 0 -28 -7q-8 -7 -8 -29v-43q0 -23 7 -30q8 -7 29 -7h250q23 0 30 7t7 30v43q0 22 -7 29t-30 7zM249 258v426q0 24 -10 33q-10 10 -34 10h-116q-24 0 -34 -10q-9 -9 -9 -33v-104v-313q0 -129 79 -206q78 -76 229 -76q152 0 231 76q79 77 79 206v417
q0 24 -10 33q-10 10 -34 10h-116q-25 0 -34 -10q-9 -9 -9 -33v-426q0 -45 -27 -70q-27 -24 -80 -24t-79 24q-26 25 -26 70z" />
    <glyph glyph-name="uni016b" unicode="&#x16b;" horiz-adv-x="709" 
d="M479 913h-250q-19 0 -28 -7q-8 -7 -8 -29v-43q0 -23 7 -30q8 -7 29 -7h250q23 0 30 7t7 30v43q0 22 -7 29t-30 7zM249 258v426q0 24 -10 33q-10 10 -34 10h-116q-24 0 -34 -10q-9 -9 -9 -33v-104v-313q0 -129 79 -206q78 -76 229 -76q152 0 231 76q79 77 79 206v417
q0 24 -10 33q-10 10 -34 10h-116q-25 0 -34 -10q-9 -9 -9 -33v-426q0 -45 -27 -70q-27 -24 -80 -24t-79 24q-26 25 -26 70z" />
    <glyph glyph-name="uni016c" unicode="&#x16c;" horiz-adv-x="709" 
d="M537 881q3 8 3 14q0 5 -2 8q-4 8 -20 13l-72 27q-15 5 -21 2q-7 -2 -14 -15q-10 -17 -24 -26q-13 -8 -33 -8t-33 8q-13 9 -22 26q-8 13 -15 16h-6q-7 0 -19 -4q-22 -8 -68 -26q-14 -6 -18 -13q-2 -3 -2 -8q0 -6 3 -14q20 -53 66 -81q47 -28 114 -28q69 0 116 28t67 81z
M249 258v426q0 24 -10 33q-10 10 -34 10h-116q-24 0 -34 -10q-9 -9 -9 -33v-104v-313q0 -129 79 -206q78 -76 229 -76q152 0 231 76q79 77 79 206v417q0 24 -10 33q-10 10 -34 10h-116q-25 0 -34 -10q-9 -9 -9 -33v-426q0 -45 -27 -70q-27 -24 -80 -24t-79 24q-26 25 -26 70
z" />
    <glyph glyph-name="uni016d" unicode="&#x16d;" horiz-adv-x="709" 
d="M537 881q3 8 3 14q0 5 -2 8q-4 8 -20 13l-72 27q-15 5 -21 2q-7 -2 -14 -15q-10 -17 -24 -26q-13 -8 -33 -8t-33 8q-13 9 -22 26q-8 13 -15 16h-6q-7 0 -19 -4q-22 -8 -68 -26q-14 -6 -18 -13q-2 -3 -2 -8q0 -6 3 -14q20 -53 66 -81q47 -28 114 -28q69 0 116 28t67 81z
M249 258v426q0 24 -10 33q-10 10 -34 10h-116q-24 0 -34 -10q-9 -9 -9 -33v-104v-313q0 -129 79 -206q78 -76 229 -76q152 0 231 76q79 77 79 206v417q0 24 -10 33q-10 10 -34 10h-116q-25 0 -34 -10q-9 -9 -9 -33v-426q0 -45 -27 -70q-27 -24 -80 -24t-79 24q-26 25 -26 70
z" />
    <glyph glyph-name="uni016e" unicode="&#x16e;" horiz-adv-x="709" 
d="M222 876q0 -57 38 -88t96 -31q57 0 94 31q36 32 36 88q0 55 -36 87t-94 32t-96 -31q-38 -32 -38 -88zM391 876q0 -17 -10 -26q-9 -9 -25 -9q-18 0 -28 9q-11 10 -11 26t11 26q10 10 28 10q16 0 25 -10q10 -10 10 -26zM249 258v426q0 24 -10 33q-10 10 -34 10h-116
q-24 0 -34 -10q-9 -9 -9 -33v-104v-313q0 -129 79 -206q78 -76 229 -76q152 0 231 76q79 77 79 206v417q0 24 -10 33q-10 10 -34 10h-116q-25 0 -34 -10q-9 -9 -9 -33v-426q0 -45 -27 -70q-27 -24 -80 -24t-79 24q-26 25 -26 70z" />
    <glyph glyph-name="uni016f" unicode="&#x16f;" horiz-adv-x="709" 
d="M222 876q0 -57 38 -88t96 -31q57 0 94 31q36 32 36 88q0 55 -36 87t-94 32t-96 -31q-38 -32 -38 -88zM391 876q0 -17 -10 -26q-9 -9 -25 -9q-18 0 -28 9q-11 10 -11 26t11 26q10 10 28 10q16 0 25 -10q10 -10 10 -26zM249 258v426q0 24 -10 33q-10 10 -34 10h-116
q-24 0 -34 -10q-9 -9 -9 -33v-104v-313q0 -129 79 -206q78 -76 229 -76q152 0 231 76q79 77 79 206v417q0 24 -10 33q-10 10 -34 10h-116q-25 0 -34 -10q-9 -9 -9 -33v-426q0 -45 -27 -70q-27 -24 -80 -24t-79 24q-26 25 -26 70z" />
    <glyph glyph-name="uni0170" unicode="&#x170;" horiz-adv-x="709" 
d="M240 919q-19 -25 -73 -98q-8 -11 -8 -20v-4q2 -11 21 -15q15 -2 45 -8q8 -2 14 -2q5 0 8 2q9 3 23 16q39 32 116 97q13 11 13 21q0 2 -1 5q-2 12 -23 17l-69 15q-10 2 -18 2q-11 0 -20 -4q-15 -6 -28 -24zM443 919q-19 -25 -77 -99q-9 -11 -9 -21v-2q1 -12 20 -16
q15 -3 45 -10q6 -1 12 -1t11 1q8 4 23 15q41 32 124 95q14 10 14 21q0 2 -1 4q-3 13 -23 19l-72 18q-11 3 -20 3q-10 0 -18 -3q-15 -7 -29 -24zM249 258v426q0 24 -10 33q-10 10 -34 10h-116q-24 0 -34 -10q-9 -9 -9 -33v-104v-313q0 -129 79 -206q78 -76 229 -76
q152 0 231 76q79 77 79 206v417q0 24 -10 33q-10 10 -34 10h-116q-25 0 -34 -10q-9 -9 -9 -33v-426q0 -45 -27 -70q-27 -24 -80 -24t-79 24q-26 25 -26 70z" />
    <glyph glyph-name="uni0171" unicode="&#x171;" horiz-adv-x="709" 
d="M240 919q-19 -25 -73 -98q-8 -11 -8 -20v-4q2 -11 21 -15q15 -2 45 -8q8 -2 14 -2q5 0 8 2q9 3 23 16q39 32 116 97q13 11 13 21q0 2 -1 5q-2 12 -23 17l-69 15q-10 2 -18 2q-11 0 -20 -4q-15 -6 -28 -24zM443 919q-19 -25 -77 -99q-9 -11 -9 -21v-2q1 -12 20 -16
q15 -3 45 -10q6 -1 12 -1t11 1q8 4 23 15q41 32 124 95q14 10 14 21q0 2 -1 4q-3 13 -23 19l-72 18q-11 3 -20 3q-10 0 -18 -3q-15 -7 -29 -24zM249 258v426q0 24 -10 33q-10 10 -34 10h-116q-24 0 -34 -10q-9 -9 -9 -33v-104v-313q0 -129 79 -206q78 -76 229 -76
q152 0 231 76q79 77 79 206v417q0 24 -10 33q-10 10 -34 10h-116q-25 0 -34 -10q-9 -9 -9 -33v-426q0 -45 -27 -70q-27 -24 -80 -24t-79 24q-26 25 -26 70z" />
    <glyph glyph-name="uni0172" unicode="&#x172;" horiz-adv-x="709" 
d="M620 727h-116q-25 0 -34 -10q-9 -9 -9 -33v-426q0 -45 -27 -70q-27 -24 -80 -24t-79 24q-26 25 -26 70v426q0 24 -10 33q-10 10 -34 10h-116q-24 0 -34 -10q-9 -9 -9 -33v-104v-313q0 -129 79 -206q78 -76 229 -76h23t21 2q-35 -40 -54 -87q-20 -46 -11 -86q7 -38 36 -52
t66 -14q31 0 62 10q31 9 53 26q7 5 8 12q2 7 -3 19q-7 16 -20 48q-4 7 -10 9q-7 2 -15 -3q-5 -3 -10 -5q-5 -1 -8 -1q-8 0 -13 5t-7 13q-2 17 21 65t82 107q43 37 66 92q23 54 23 122v417q0 24 -10 33q-10 10 -34 10z" />
    <glyph glyph-name="uni0173" unicode="&#x173;" horiz-adv-x="709" 
d="M620 727h-116q-25 0 -34 -10q-9 -9 -9 -33v-426q0 -45 -27 -70q-27 -24 -80 -24t-79 24q-26 25 -26 70v426q0 24 -10 33q-10 10 -34 10h-116q-24 0 -34 -10q-9 -9 -9 -33v-104v-313q0 -129 79 -206q78 -76 229 -76h23t21 2q-35 -40 -54 -87q-20 -46 -11 -86q7 -38 36 -52
t66 -14q31 0 62 10q31 9 53 26q7 5 8 12q2 7 -3 19q-7 16 -20 48q-4 7 -10 9q-7 2 -15 -3q-5 -3 -10 -5q-5 -1 -8 -1q-8 0 -13 5t-7 13q-2 17 21 65t82 107q43 37 66 92q23 54 23 122v417q0 24 -10 33q-10 10 -34 10z" />
    <glyph glyph-name="uni0174" unicode="&#x174;" horiz-adv-x="962" 
d="M508 942h-33q-32 0 -45 -5t-33 -26q-35 -34 -104 -104q-11 -11 -11 -22v-2q1 -11 26 -11h80q29 0 42 4q13 3 26 19q10 12 31 35q8 -9 30 -36q11 -15 24 -18q13 -4 44 -4h86q24 0 26 11v3q0 10 -11 21l-104 104q-22 21 -34 26t-40 5zM921 727h-114q-28 0 -41 -7t-17 -31
q-15 -89 -43 -268q-7 -42 -11 -101t-5 -80h-8q-1 23 -6 80q-4 57 -13 101q-21 89 -63 268q-5 24 -19 31t-38 7h-111q-24 0 -38 -7q-14 -6 -19 -31q-21 -89 -64 -268q-9 -42 -14 -100t-5 -81h-7q0 14 -2 46t-5 67q-1 19 -3 36q-2 18 -5 32q-15 89 -45 268q-4 24 -17 31t-40 7
h-126q-24 0 -28 -10q-3 -5 -3 -12q0 -9 3 -20l162 -651q5 -21 18 -27q13 -7 35 -7h118q22 0 34 7q13 7 19 29q18 79 55 236q10 50 16 96q5 45 6 89h8q1 -44 5 -90q5 -46 15 -95q18 -79 55 -238q5 -20 18 -27t35 -7h26h94q22 0 34 7q13 7 18 29q55 216 163 649q3 11 3 20
q0 7 -2 12q-5 10 -28 10z" />
    <glyph glyph-name="uni0175" unicode="&#x175;" horiz-adv-x="962" 
d="M508 942h-33q-32 0 -45 -5t-33 -26q-35 -34 -104 -104q-11 -11 -11 -22v-2q1 -11 26 -11h80q29 0 42 4q13 3 26 19q10 12 31 35q8 -9 30 -36q11 -15 24 -18q13 -4 44 -4h86q24 0 26 11v3q0 10 -11 21l-104 104q-22 21 -34 26t-40 5zM921 727h-114q-28 0 -41 -7t-17 -31
q-15 -89 -43 -268q-7 -42 -11 -101t-5 -80h-8q-1 23 -6 80q-4 57 -13 101q-21 89 -63 268q-5 24 -19 31t-38 7h-111q-24 0 -38 -7q-14 -6 -19 -31q-21 -89 -64 -268q-9 -42 -14 -100t-5 -81h-7q0 14 -2 46t-5 67q-1 19 -3 36q-2 18 -5 32q-15 89 -45 268q-4 24 -17 31t-40 7
h-126q-24 0 -28 -10q-3 -5 -3 -12q0 -9 3 -20l162 -651q5 -21 18 -27q13 -7 35 -7h118q22 0 34 7q13 7 19 29q18 79 55 236q10 50 16 96q5 45 6 89h8q1 -44 5 -90q5 -46 15 -95q18 -79 55 -238q5 -20 18 -27t35 -7h26h94q22 0 34 7q13 7 18 29q55 216 163 649q3 11 3 20
q0 7 -2 12q-5 10 -28 10z" />
    <glyph glyph-name="uni0176" unicode="&#x176;" horiz-adv-x="691" 
d="M370 942h-33q-32 0 -45 -5t-34 -26q-35 -34 -104 -104q-11 -11 -11 -21v-3q2 -11 27 -11h80q29 0 42 4q12 3 24 19q11 12 33 35q7 -9 29 -36q11 -15 25 -18q13 -4 43 -4h86q25 0 27 11v3q0 10 -11 21q-35 35 -106 104q-20 21 -33 26q-12 5 -39 5zM662 727h-118
q-38 0 -54 -5q-16 -6 -30 -33q-38 -69 -113 -209q-27 52 -109 209q-15 27 -31 33q-16 5 -54 5h-123q-24 0 -28 -13q-1 -3 -2 -7q0 -10 8 -23q79 -134 236 -402v-239q0 -24 9 -33q10 -10 35 -10h24h91q25 0 34 10q9 9 9 33v239q60 100 237 402q7 12 7 22q0 4 -1 8
q-4 13 -27 13z" />
    <glyph glyph-name="uni0177" unicode="&#x177;" horiz-adv-x="691" 
d="M370 942h-33q-32 0 -45 -5t-34 -26q-35 -34 -104 -104q-11 -11 -11 -21v-3q2 -11 27 -11h80q29 0 42 4q12 3 24 19q11 12 33 35q7 -9 29 -36q11 -15 25 -18q13 -4 43 -4h86q25 0 27 11v3q0 10 -11 21q-35 35 -106 104q-20 21 -33 26q-12 5 -39 5zM662 727h-118
q-38 0 -54 -5q-16 -6 -30 -33q-38 -69 -113 -209q-27 52 -109 209q-15 27 -31 33q-16 5 -54 5h-123q-24 0 -28 -13q-1 -3 -2 -7q0 -10 8 -23q79 -134 236 -402v-239q0 -24 9 -33q10 -10 35 -10h24h91q25 0 34 10q9 9 9 33v239q60 100 237 402q7 12 7 22q0 4 -1 8
q-4 13 -27 13z" />
    <glyph glyph-name="Ydieresis" unicode="&#x178;" horiz-adv-x="691" 
d="M243 936h-9q-43 0 -58 -16q-15 -15 -15 -57v-13q0 -41 15 -57t58 -16h9q42 0 58 16t16 57v13q0 42 -16 57q-16 16 -58 16zM463 936h-7q-43 0 -60 -16q-16 -15 -16 -57v-13q0 -41 16 -57q17 -16 60 -16h7q42 0 58 16t16 57v13q0 42 -16 57q-16 16 -58 16zM662 727h-118
q-38 0 -54 -5q-16 -6 -30 -33q-38 -69 -113 -209q-27 52 -109 209q-15 27 -31 33q-16 5 -54 5h-123q-24 0 -28 -13q-1 -3 -2 -7q0 -10 8 -23q79 -134 236 -402v-239q0 -24 9 -33q10 -10 35 -10h24h91q25 0 34 10q9 9 9 33v239q60 100 237 402q7 12 7 22q0 4 -1 8
q-4 13 -27 13z" />
    <glyph glyph-name="uni0179" unicode="&#x179;" horiz-adv-x="626" 
d="M329 936q-36 -21 -145 -83q-13 -8 -13 -16v-1q-1 -8 11 -22q9 -11 28 -34q8 -10 18 -10q11 0 29 5q62 19 186 58q19 6 19 16q0 9 -13 24q-18 20 -53 60q-13 15 -29 15h-3q-18 -2 -35 -12zM550 727h-475q-24 0 -34 -10q-9 -9 -9 -33v-92q0 -25 9 -34q10 -10 34 -10h250
l-284 -400q-7 -9 -11 -19q-3 -10 -3 -24v-62q0 -24 9 -33q10 -10 34 -10h103h382q25 0 34 10q9 9 9 33v93q0 25 -9 34t-34 9h-259q71 100 284 399q6 10 10 20q3 10 3 25v61q0 24 -9 33q-10 10 -34 10z" />
    <glyph glyph-name="uni017a" unicode="&#x17a;" horiz-adv-x="626" 
d="M329 936q-36 -21 -145 -83q-13 -8 -13 -16v-1q-1 -8 11 -22q9 -11 28 -34q8 -10 18 -10q11 0 29 5q62 19 186 58q19 6 19 16q0 9 -13 24q-18 20 -53 60q-13 15 -29 15h-3q-18 -2 -35 -12zM550 727h-475q-24 0 -34 -10q-9 -9 -9 -33v-92q0 -25 9 -34q10 -10 34 -10h250
l-284 -400q-7 -9 -11 -19q-3 -10 -3 -24v-62q0 -24 9 -33q10 -10 34 -10h103h382q25 0 34 10q9 9 9 33v93q0 25 -9 34t-34 9h-259q71 100 284 399q6 10 10 20q3 10 3 25v61q0 24 -9 33q-10 10 -34 10z" />
    <glyph glyph-name="uni017b" unicode="&#x17b;" horiz-adv-x="626" 
d="M322 937h-7q-44 0 -60 -16t-16 -61v-8q0 -45 16 -61t60 -16h7q44 0 60 16t16 61v8q0 45 -16 61t-60 16zM550 727h-475q-24 0 -34 -10q-9 -9 -9 -33v-92q0 -25 9 -34q10 -10 34 -10h250l-284 -400q-7 -9 -11 -19q-3 -10 -3 -24v-62q0 -24 9 -33q10 -10 34 -10h103h382
q25 0 34 10q9 9 9 33v93q0 25 -9 34t-34 9h-259q71 100 284 399q6 10 10 20q3 10 3 25v61q0 24 -9 33q-10 10 -34 10z" />
    <glyph glyph-name="uni017c" unicode="&#x17c;" horiz-adv-x="626" 
d="M322 937h-7q-44 0 -60 -16t-16 -61v-8q0 -45 16 -61t60 -16h7q44 0 60 16t16 61v8q0 45 -16 61t-60 16zM550 727h-475q-24 0 -34 -10q-9 -9 -9 -33v-92q0 -25 9 -34q10 -10 34 -10h250l-284 -400q-7 -9 -11 -19q-3 -10 -3 -24v-62q0 -24 9 -33q10 -10 34 -10h103h382
q25 0 34 10q9 9 9 33v93q0 25 -9 34t-34 9h-259q71 100 284 399q6 10 10 20q3 10 3 25v61q0 24 -9 33q-10 10 -34 10z" />
    <glyph glyph-name="Zcaron" unicode="&#x17d;" horiz-adv-x="626" 
d="M499 942h-78q-29 0 -42 -4t-26 -18q-10 -12 -30 -35q-8 8 -31 35q-12 14 -25 18q-12 4 -43 4h-86q-24 0 -24 -12q0 -11 12 -24q34 -35 103 -104q21 -21 34 -25q12 -5 41 -5h29q30 0 42 5q13 4 34 25q34 35 103 104q12 13 11 24q0 12 -24 12zM550 727h-475q-24 0 -34 -10
q-9 -9 -9 -33v-92q0 -25 9 -34q10 -10 34 -10h250l-284 -400q-7 -9 -11 -19q-3 -10 -3 -24v-62q0 -24 9 -33q10 -10 34 -10h103h382q25 0 34 10q9 9 9 33v93q0 25 -9 34t-34 9h-259q71 100 284 399q6 10 10 20q3 10 3 25v61q0 24 -9 33q-10 10 -34 10z" />
    <glyph glyph-name="zcaron" unicode="&#x17e;" horiz-adv-x="626" 
d="M499 942h-78q-29 0 -42 -4t-26 -18q-10 -12 -30 -35q-8 8 -31 35q-12 14 -25 18q-12 4 -43 4h-86q-24 0 -24 -12q0 -11 12 -24q34 -35 103 -104q21 -21 34 -25q12 -5 41 -5h29q30 0 42 5q13 4 34 25q34 35 103 104q12 13 11 24q0 12 -24 12zM550 727h-475q-24 0 -34 -10
q-9 -9 -9 -33v-92q0 -25 9 -34q10 -10 34 -10h250l-284 -400q-7 -9 -11 -19q-3 -10 -3 -24v-62q0 -24 9 -33q10 -10 34 -10h103h382q25 0 34 10q9 9 9 33v93q0 25 -9 34t-34 9h-259q71 100 284 399q6 10 10 20q3 10 3 25v61q0 24 -9 33q-10 10 -34 10z" />
    <glyph glyph-name="uni017f" unicode="&#x17f;" horiz-adv-x="341" 
d="M87 536v-4h-33q-22 0 -31 -8q-9 -9 -9 -30v-12v-65q0 -23 9 -31q9 -9 31 -9h33v-338q0 -22 9 -30q9 -9 31 -9h24h87q23 0 31 9q9 8 9 30v493q0 34 16 52t53 18q23 0 32 9t9 32v75q0 22 -9 31t-32 9q-128 0 -194 -53t-66 -169z" />
    <glyph glyph-name="florin" unicode="&#x192;" horiz-adv-x="494" 
d="M160 516q-3 -20 -9 -82h-84q-23 0 -31 -9q-8 -8 -8 -31v-89q0 -22 8 -30q8 -9 31 -9h66l-24 -244q-5 -40 -24 -60q-19 -19 -66 -19q-22 0 -31 -9q-8 -9 -8 -32v-87q0 -23 8 -31q9 -9 31 -9q132 0 200 64q67 64 79 177q9 84 27 250h93q22 0 31 9q9 8 9 30v89q0 23 -9 31
q-9 9 -31 9h-77q2 19 8 77q5 42 24 61q18 18 65 18q23 0 31 9q9 9 9 32v87q0 22 -9 31q-8 9 -31 9q-131 0 -199 -65q-68 -64 -79 -177z" />
    <glyph glyph-name="uni01fa" unicode="&#x1fa;" horiz-adv-x="703" 
d="M370 1006q-32 -15 -128 -58q-13 -5 -18 -13q-2 -3 -2 -6q0 -6 8 -14q9 -8 27 -26q8 -7 18 -7q9 0 27 4q58 14 173 43q17 4 17 11q1 7 -12 18q-15 16 -47 47q-12 10 -26 10h-4q-16 -2 -33 -9zM204 738q0 -23 9 -43q10 -20 27 -33q-79 -207 -236 -620q-5 -12 -5 -21
q0 -6 3 -10q6 -11 30 -11h107q39 0 53 10q14 9 22 33q8 25 24 74h221q6 -19 23 -74q6 -24 22 -33q15 -10 55 -10h24h87q23 0 30 11q4 5 4 12q0 8 -5 19q-78 206 -234 620q18 14 26 34q9 19 9 42q0 62 -41 98t-106 36q-64 0 -107 -35q-42 -35 -42 -99zM394 740q0 -19 -11 -30
q-12 -12 -29 -12q-20 0 -33 13q-12 12 -12 29q0 20 12 31q13 11 33 11q17 0 29 -11q11 -11 11 -31zM375 397q9 -30 38 -119h-128q9 30 38 120q15 52 17 97l2 46h10l4 -46q3 -45 19 -98z" />
    <glyph glyph-name="uni01fb" unicode="&#x1fb;" horiz-adv-x="703" 
d="M370 1006q-32 -15 -128 -58q-13 -5 -18 -13q-2 -3 -2 -6q0 -6 8 -14q9 -8 27 -26q8 -7 18 -7q9 0 27 4q58 14 173 43q17 4 17 11q1 7 -12 18q-15 16 -47 47q-12 10 -26 10h-4q-16 -2 -33 -9zM204 738q0 -23 9 -43q10 -20 27 -33q-79 -207 -236 -620q-5 -12 -5 -21
q0 -6 3 -10q6 -11 30 -11h107q39 0 53 10q14 9 22 33q8 25 24 74h221q6 -19 23 -74q6 -24 22 -33q15 -10 55 -10h24h87q23 0 30 11q4 5 4 12q0 8 -5 19q-78 206 -234 620q18 14 26 34q9 19 9 42q0 62 -41 98t-106 36q-64 0 -107 -35q-42 -35 -42 -99zM394 740q0 -19 -11 -30
q-12 -12 -29 -12q-20 0 -33 13q-12 12 -12 29q0 20 12 31q13 11 33 11q17 0 29 -11q11 -11 11 -31zM375 397q9 -30 38 -119h-128q9 30 38 120q15 52 17 97l2 46h10l4 -46q3 -45 19 -98z" />
    <glyph glyph-name="uni01fc" unicode="&#x1fc;" horiz-adv-x="927" 
d="M668 936q-36 -21 -145 -83q-13 -8 -14 -16v-1q1 -8 11 -22q10 -11 29 -34q8 -10 18 -10q11 0 29 5q62 19 185 58q20 6 20 16v0q0 10 -14 24q-17 20 -52 60q-13 15 -29 15h-3q-18 -2 -35 -12zM858 179h-209v99h147q23 0 33 9q10 10 10 35v92q0 24 -10 33q-10 10 -33 10
h-147v91h201q24 0 34 10q9 9 9 34v92q0 24 -9 33q-10 10 -34 10h-374q-22 0 -31 -8q-10 -8 -22 -28q-141 -216 -424 -649q-6 -11 -6 -20q0 -6 3 -11q7 -11 31 -11h105q41 0 54 9q14 9 26 29q15 23 44 70h205v-65q0 -24 10 -33q9 -10 34 -10h75h278q25 0 34 10q9 9 9 33v93
q0 25 -9 34t-34 9zM461 262h-106q27 42 106 167v-167z" />
    <glyph glyph-name="uni01fd" unicode="&#x1fd;" horiz-adv-x="927" 
d="M668 936q-36 -21 -145 -83q-13 -8 -14 -16v-1q1 -8 11 -22q10 -11 29 -34q8 -10 18 -10q11 0 29 5q62 19 185 58q20 6 20 16v0q0 10 -14 24q-17 20 -52 60q-13 15 -29 15h-3q-18 -2 -35 -12zM858 179h-209v99h147q23 0 33 9q10 10 10 35v92q0 24 -10 33q-10 10 -33 10
h-147v91h201q24 0 34 10q9 9 9 34v92q0 24 -9 33q-10 10 -34 10h-374q-22 0 -31 -8q-10 -8 -22 -28q-141 -216 -424 -649q-6 -11 -6 -20q0 -6 3 -11q7 -11 31 -11h105q41 0 54 9q14 9 26 29q15 23 44 70h205v-65q0 -24 10 -33q9 -10 34 -10h75h278q25 0 34 10q9 9 9 33v93
q0 25 -9 34t-34 9zM461 262h-106q27 42 106 167v-167z" />
    <glyph glyph-name="uni01fe" unicode="&#x1fe;" 
d="M360 946q-36 -21 -144 -83q-14 -7 -15 -16v0q0 -9 12 -23q9 -11 28 -33q8 -11 19 -11q10 0 29 5q62 20 185 58q19 7 19 16v1q0 9 -13 24q-17 20 -52 59q-14 15 -29 15h-4q-17 -2 -35 -12zM670 771h-99q-14 0 -20 -2q-7 -3 -14 -14q-10 -14 -28 -42q-33 14 -73 22
q-40 7 -87 7q-152 0 -234 -77q-81 -76 -81 -209v-185q0 -57 16 -105q15 -48 45 -84q-23 -35 -68 -106q-4 -5 -4 -10v-3q2 -6 12 -6h96q18 0 23 2q5 3 13 14q8 13 26 39q32 -14 71 -20q40 -7 85 -7q151 0 233 77q82 76 82 209v185q0 56 -15 103t-44 82q25 37 74 112q3 5 3 9
v4q-2 5 -12 5zM410 551q-43 -66 -171 -262q-1 7 -2 13v13v150q0 48 29 73t83 25q18 0 33 -3t28 -9zM292 174q42 65 168 258q1 -5 1 -12v-12v-146q0 -48 -30 -73q-29 -25 -82 -25q-17 0 -31 3q-14 2 -26 7z" />
    <glyph glyph-name="uni01ff" unicode="&#x1ff;" 
d="M360 946q-36 -21 -144 -83q-14 -7 -15 -16v0q0 -9 12 -23q9 -11 28 -33q8 -11 19 -11q10 0 29 5q62 20 185 58q19 7 19 16v1q0 9 -13 24q-17 20 -52 59q-14 15 -29 15h-4q-17 -2 -35 -12zM670 771h-99q-14 0 -20 -2q-7 -3 -14 -14q-10 -14 -28 -42q-33 14 -73 22
q-40 7 -87 7q-152 0 -234 -77q-81 -76 -81 -209v-185q0 -57 16 -105q15 -48 45 -84q-23 -35 -68 -106q-4 -5 -4 -10v-3q2 -6 12 -6h96q18 0 23 2q5 3 13 14q8 13 26 39q32 -14 71 -20q40 -7 85 -7q151 0 233 77q82 76 82 209v185q0 56 -15 103t-44 82q25 37 74 112q3 5 3 9
v4q-2 5 -12 5zM410 551q-43 -66 -171 -262q-1 7 -2 13v13v150q0 48 29 73t83 25q18 0 33 -3t28 -9zM292 174q42 65 168 258q1 -5 1 -12v-12v-146q0 -48 -30 -73q-29 -25 -82 -25q-17 0 -31 3q-14 2 -26 7z" />
    <glyph glyph-name="uni0218" unicode="&#x218;" horiz-adv-x="663" 
d="M29 513q0 -52 14 -89t38 -62q44 -46 111 -62q66 -16 124 -24q51 -6 86 -18q34 -12 34 -42q0 -33 -29 -46q-29 -12 -80 -12q-43 0 -73 13q-29 14 -43 41q-12 22 -25 26q-12 4 -35 -4q-33 -11 -97 -34q-22 -9 -29 -21q-3 -6 -3 -14q0 -9 5 -22q29 -80 106 -119t192 -39
q136 0 226 60q91 60 91 173q0 94 -42 142q-42 47 -101 68q-31 12 -65 18q-33 6 -64 11q-56 7 -95 18t-39 44q0 27 22 40q23 13 75 13q35 0 62 -12t41 -41q13 -22 24 -26q11 -5 32 5q34 14 102 44q23 9 29 22t-5 35q-36 74 -104 109q-68 34 -181 34q-147 0 -226 -64
q-78 -64 -78 -165zM380 -232q12 35 49 140q4 10 4 18t-4 13q-8 12 -35 12h-92q-23 0 -32 -10q-10 -10 -13 -33q-5 -48 -16 -144q-1 -4 -1 -7q0 -11 5 -16q6 -7 23 -7h65q21 0 31 8t16 26z" />
    <glyph glyph-name="uni0219" unicode="&#x219;" horiz-adv-x="663" 
d="M29 513q0 -52 14 -89t38 -62q44 -46 111 -62q66 -16 124 -24q51 -6 86 -18q34 -12 34 -42q0 -33 -29 -46q-29 -12 -80 -12q-43 0 -73 13q-29 14 -43 41q-12 22 -25 26q-12 4 -35 -4q-33 -11 -97 -34q-22 -9 -29 -21q-3 -6 -3 -14q0 -9 5 -22q29 -80 106 -119t192 -39
q136 0 226 60q91 60 91 173q0 94 -42 142q-42 47 -101 68q-31 12 -65 18q-33 6 -64 11q-56 7 -95 18t-39 44q0 27 22 40q23 13 75 13q35 0 62 -12t41 -41q13 -22 24 -26q11 -5 32 5q34 14 102 44q23 9 29 22t-5 35q-36 74 -104 109q-68 34 -181 34q-147 0 -226 -64
q-78 -64 -78 -165zM380 -232q12 35 49 140q4 10 4 18t-4 13q-8 12 -35 12h-92q-23 0 -32 -10q-10 -10 -13 -33q-5 -48 -16 -144q-1 -4 -1 -7q0 -11 5 -16q6 -7 23 -7h65q21 0 31 8t16 26z" />
    <glyph glyph-name="uni021a" unicode="&#x21a;" horiz-adv-x="617" 
d="M562 727h-507q-24 0 -33 -10q-10 -9 -10 -33v-14v-78q0 -25 10 -34q9 -10 33 -10h153v-505q0 -24 9 -33q9 -10 34 -10h24h92q24 0 34 10q10 9 10 33v505h151q25 0 34 10q10 9 10 34v92q0 24 -10 33q-9 10 -34 10zM343 -232q13 35 53 140q4 10 4 18t-4 13q-8 12 -37 12
h-97q-24 0 -35 -10q-10 -10 -13 -33l-18 -144q-1 -2 -1 -5q0 -13 6 -18q7 -7 24 -7h69q21 0 32 8t17 26z" />
    <glyph glyph-name="uni021b" unicode="&#x21b;" horiz-adv-x="617" 
d="M562 727h-507q-24 0 -33 -10q-10 -9 -10 -33v-14v-78q0 -25 10 -34q9 -10 33 -10h153v-505q0 -24 9 -33q9 -10 34 -10h24h92q24 0 34 10q10 9 10 33v505h151q25 0 34 10q10 9 10 34v92q0 24 -10 33q-9 10 -34 10zM343 -232q13 35 53 140q4 10 4 18t-4 13q-8 12 -37 12
h-97q-24 0 -35 -10q-10 -10 -13 -33l-18 -144q-1 -2 -1 -5q0 -13 6 -18q7 -7 24 -7h69q21 0 32 8t17 26z" />
    <glyph glyph-name="uni0237" unicode="&#x237;" horiz-adv-x="601" 
d="M512 728h-118q-24 0 -34 -10q-9 -9 -9 -33v-433q0 -45 -18 -66q-19 -22 -57 -22q-30 0 -48 16t-31 46q-10 23 -22 28q-13 5 -36 -3q-35 -13 -106 -38q-23 -8 -29 -21q-3 -5 -3 -13q0 -9 5 -21q30 -82 95 -128q65 -45 171 -45q139 0 211 71q71 71 71 197v432q0 24 -9 33
q-9 10 -33 10z" />
    <glyph glyph-name="circumflex" unicode="&#x2c6;" horiz-adv-x="411" 
d="M219 758h-29q-32 0 -45 -5q-12 -5 -32 -26q-35 -35 -105 -104q-11 -12 -11 -22v-2q1 -11 27 -11h75q29 0 41 3q13 4 26 19q10 12 32 36q7 -9 29 -37q12 -14 25 -18q13 -3 43 -3h86q25 0 26 11q1 1 1 2q0 10 -12 22q-35 34 -104 104q-21 21 -33 26q-13 5 -40 5z" />
    <glyph glyph-name="caron" unicode="&#x2c7;" horiz-adv-x="429" 
d="M393 757h-78q-29 0 -42 -4t-25 -19q-10 -11 -31 -35q-8 9 -31 36q-12 14 -24 18t-43 4h-86q-25 0 -24 -12q0 -11 11 -23q35 -35 104 -105q21 -20 33 -25t42 -5h28q30 0 43 4q12 5 33 26q35 35 104 105q11 12 11 23q0 12 -25 12z" />
    <glyph glyph-name="breve" unicode="&#x2d8;" horiz-adv-x="294" 
d="M323 696q3 9 3 15q0 4 -2 7q-4 8 -19 14q-24 9 -72 26q-15 5 -22 2q-7 -2 -14 -15q-10 -17 -23 -25t-33 -8t-33 8q-14 8 -23 25q-8 13 -15 16q-2 1 -5 1q-7 0 -19 -4q-22 -9 -68 -26q-14 -6 -18 -14q-2 -3 -2 -7q0 -6 3 -15q20 -53 66 -80q47 -28 114 -28q69 0 115 28
q47 27 67 80z" />
    <glyph glyph-name="dotaccent" unicode="&#x2d9;" horiz-adv-x="225" 
d="M116 754h-6q-45 0 -61 -16q-16 -17 -16 -61v-8q0 -45 16 -61t61 -16h6q45 0 61 16t16 61v8q0 44 -16 61q-16 16 -61 16z" />
    <glyph glyph-name="ring" unicode="&#x2da;" horiz-adv-x="246" 
d="M-9 674q0 -56 38 -87q37 -31 95 -31t94 31q37 31 37 87q0 55 -37 88q-36 33 -94 33t-95 -32q-38 -32 -38 -89zM160 674q0 -16 -10 -26q-10 -9 -26 -9q-18 0 -28 10q-11 9 -11 25q0 17 11 27q10 10 28 10q16 0 26 -10t10 -27z" />
    <glyph glyph-name="ogonek" unicode="&#x2db;" horiz-adv-x="258" 
d="M219 4q-31 -1 -126 -3q-41 -41 -65 -89q-17 -35 -17 -69q0 -13 2 -26q9 -43 41 -56q33 -13 68 -13q31 0 62 10q31 9 53 26q6 5 8 12v4q0 6 -3 15l-21 48q-4 7 -10 9t-14 -3l-10 -5q-5 -1 -9 -1q-8 0 -13 5t-6 13q-3 17 9 48q11 31 51 75z" />
    <glyph glyph-name="tilde" unicode="&#x2dc;" horiz-adv-x="312" 
d="M310 749h-62q-11 0 -15 -5q-5 -5 -5 -16t-3 -17q-4 -5 -12 -5q-25 0 -52 21q-28 22 -86 22q-45 0 -72 -27t-27 -99q0 -13 6 -18q5 -6 18 -6h62q11 0 16 4q5 5 5 15q0 13 4 18q3 5 10 5q26 0 53 -21t83 -21q50 0 75 27q26 27 26 99q0 12 -5 18t-19 6z" />
    <glyph glyph-name="hungarumlaut" unicode="&#x2dd;" horiz-adv-x="404" 
d="M89 730q-18 -24 -73 -97q-8 -12 -8 -22v-2q2 -11 22 -15q15 -3 45 -8q7 -2 12 -2q6 0 10 2q8 4 23 15q38 33 116 97q12 12 12 23v4q-3 12 -24 17q-23 5 -68 15q-10 2 -18 2q-12 0 -21 -4q-15 -6 -28 -25zM292 730q-19 -24 -77 -97q-9 -12 -9 -22v-3q1 -11 20 -15l45 -9
q7 -2 12 -2q6 0 11 2q9 4 23 15q42 31 124 93q14 10 14 21q0 2 -1 4q-3 13 -23 19q-24 6 -72 19q-11 3 -21 3q-9 0 -17 -3q-15 -6 -29 -25z" />
    <glyph glyph-name="uni0326" unicode="&#x326;" horiz-adv-x="0" 
d="M187 -232q13 35 50 140q3 10 3 18t-4 13q-7 12 -34 12h-91q-24 0 -34 -10q-9 -10 -12 -33q-6 -48 -17 -144v-6q0 -12 5 -17q6 -7 23 -7h65q20 0 30 8t16 26z" />
    <glyph glyph-name="uni0394" unicode="&#x394;" horiz-adv-x="693" 
d="M384 727h-75q-21 0 -33 -7t-20 -27q-71 -172 -212 -518q-11 -30 -16 -44t-5 -37v-51q0 -24 9 -33q10 -10 35 -10h119h442q24 0 34 10q9 9 9 33v51q0 23 -5 37q-4 14 -17 44q-70 173 -212 518q-8 20 -19 27q-12 7 -34 7zM386 375q19 -54 77 -214h-236q19 53 76 214
q22 58 28 96q7 39 8 59h10q2 -20 9 -58t28 -97z" />
    <glyph glyph-name="uni03a9" unicode="&#x3a9;" horiz-adv-x="834" 
d="M46 403q0 -95 40 -147q40 -51 70 -74h-76q-25 0 -34 -9q-9 -10 -9 -35v-95q0 -24 9 -33q9 -10 34 -10h275q21 0 30 9t9 30v82q0 14 -6 22q-7 8 -17 14q-63 33 -96 91q-32 59 -32 125q0 83 45 139q46 56 128 56q86 0 130 -56q45 -56 45 -139q0 -69 -36 -125
q-36 -57 -93 -90q-10 -6 -17 -14t-7 -22v-83q0 -21 9 -30t30 -9h59h217q24 0 34 10q10 9 10 33v95q0 25 -10 35q-10 9 -34 9h-78q36 23 74 75t38 149q0 51 -13 97q-14 46 -39 85q-48 71 -130 112q-83 41 -189 41t-188 -41t-129 -113q-26 -39 -39 -85q-14 -46 -14 -99z" />
    <glyph glyph-name="uni03bc" unicode="&#x3bc;" horiz-adv-x="585" 
d="M500 532h-113q-21 0 -30 -8q-9 -9 -9 -30v-324q0 -4 -2 -6t-6 -3q-10 -3 -18 -3q-9 -1 -22 -1q-31 0 -46 13t-15 43v281q0 21 -9 30q-8 8 -30 8h-113q-22 0 -31 -8q-8 -9 -8 -30v-116v-564q0 -22 8 -31q9 -8 31 -8h113q22 0 30 8q9 9 9 31v189q26 -11 51 -15q25 -3 53 -3
q41 0 86 11q44 12 76 32q18 10 26 24q8 13 8 32v410q0 21 -9 30q-8 8 -30 8z" />
    <glyph glyph-name="pi" unicode="&#x3c0;" horiz-adv-x="695" 
d="M635 532h-458q-52 0 -86 -6q-34 -7 -73 -23q-20 -9 -23 -20q-1 -4 -2 -7q0 -10 7 -24q12 -27 36 -80q8 -20 20 -23q11 -2 31 5q18 8 26 10q7 2 17 3v-328q0 -22 9 -30q8 -9 30 -9h113q22 0 30 9q9 8 9 30v328h102v-197q0 -42 5 -75t24 -76q10 -21 21 -25q4 -1 8 -1
q11 0 26 7q33 14 100 41q23 9 28 23q4 14 -5 34q-12 24 -14 40q-3 16 -3 43v186h22q22 0 30 8q9 9 9 32v87q0 22 -9 30q-8 8 -30 8z" />
    <glyph glyph-name="uni0401" unicode="&#x401;" horiz-adv-x="602" 
d="M200 928h-9q-42 0 -57 -16q-16 -15 -16 -57v-13q0 -41 16 -57q15 -17 57 -17h9q42 0 58 17q16 16 16 57v13q0 42 -16 57q-16 16 -58 16zM420 928h-7q-43 0 -60 -16q-16 -15 -16 -57v-13q0 -41 16 -57q17 -17 60 -17h7q42 0 58 17q16 16 16 57v13q0 42 -16 57
q-16 16 -58 16zM524 727h-429q-24 0 -34 -10q-10 -9 -10 -33v-94v-547q0 -24 10 -33q10 -10 34 -10h94h345q23 0 33 10q10 9 10 33v93q0 25 -10 34t-33 9h-280v99h216q25 0 34 9q10 10 10 35v92q0 24 -10 33q-9 10 -34 10h-216v91h270q25 0 35 10q9 9 9 34v92q0 24 -9 33
q-10 10 -35 10z" />
    <glyph glyph-name="uni0410" unicode="&#x410;" horiz-adv-x="705" 
d="M700 42q-59 163 -236 651q-8 20 -19 27q-12 7 -34 7h-117q-22 0 -34 -7t-19 -29q-79 -216 -236 -649q-4 -12 -4 -21q0 -6 2 -10q6 -11 30 -11h107q39 0 53 10q14 9 22 33q8 25 24 74h221q6 -19 23 -74q6 -24 22 -33q15 -10 55 -10h24h87q23 0 30 11q3 5 3 12q0 8 -4 19z
M376 397q9 -30 38 -119h-128q9 30 38 120q15 52 17 97l2 46h10l4 -46q3 -45 19 -98z" />
    <glyph glyph-name="uni0411" unicode="&#x411;" horiz-adv-x="656" 
d="M547 728h-452q-24 0 -34 -10q-10 -9 -10 -34v-94v-549q0 -23 10 -32t33 -9h66h240q109 0 174 63t65 171q0 110 -65 173t-174 63h-146v91h293q24 0 33 9q10 10 10 34v80q0 25 -10 34q-9 10 -33 10zM432 236q0 -34 -19 -52q-20 -17 -56 -17h-103v136h103q36 0 56 -17
q19 -17 19 -50z" />
    <glyph glyph-name="uni0412" unicode="&#x412;" horiz-adv-x="674" 
d="M395 728h-300q-24 0 -34 -10q-10 -9 -10 -34v-94v-547q0 -24 10 -33q10 -10 34 -10h65h239q109 0 180 52q72 52 72 151q0 67 -27 110q-27 44 -76 66v4q39 27 56 63q18 36 18 88q0 93 -61 144q-60 50 -166 50zM416 506q0 -30 -16 -43q-16 -12 -47 -12h-99v112h99
q31 0 47 -13q16 -14 16 -44zM438 226q0 -32 -16 -46t-49 -14h-119v120h119q33 0 49 -15q16 -14 16 -45z" />
    <glyph glyph-name="uni0413" unicode="&#x413;" horiz-adv-x="544" 
d="M488 727h-393q-24 0 -34 -10q-10 -9 -10 -33v-94v-547q0 -24 10 -33q10 -10 34 -10h25h91q25 0 34 10q9 9 9 33v505h234q25 0 35 10q9 9 9 34v92q0 24 -9 33q-10 10 -35 10z" />
    <glyph glyph-name="uni0414" unicode="&#x414;" horiz-adv-x="808" 
d="M655 727h-446q-25 0 -34 -10q-10 -9 -10 -33v-233q0 -123 -22 -181q-21 -58 -60 -91h-23q-23 0 -33 -9t-10 -33v-49v-202q0 -23 10 -33t33 -10h114q24 0 33 10q10 10 10 33v114h375v-114q0 -23 10 -33q9 -10 34 -10h113q24 0 33 10q10 10 10 33v251q0 24 -10 33
q-9 9 -33 9h-50v505q0 24 -9 33q-10 10 -35 10zM364 452v96h133v-369h-182q23 47 36 113t13 160z" />
    <glyph glyph-name="uni0415" unicode="&#x415;" horiz-adv-x="602" 
d="M524 727h-429q-24 0 -34 -10q-10 -9 -10 -33v-94v-547q0 -24 10 -33q10 -10 34 -10h94h345q23 0 33 10q10 9 10 33v93q0 25 -10 34t-33 9h-280v99h216q25 0 34 9q10 10 10 35v92q0 24 -10 33q-9 10 -34 10h-216v91h270q25 0 35 10q9 9 9 34v92q0 24 -9 33q-10 10 -35 10z
" />
    <glyph glyph-name="uni0416" unicode="&#x416;" horiz-adv-x="1001" 
d="M953 727h-117q-40 0 -55 -6q-15 -7 -27 -32q-41 -78 -121 -233q-6 0 -12 1h-11h-8v227q0 24 -9 33q-10 10 -34 10h-117q-23 0 -33 -10q-10 -9 -10 -33v-227h-8h-10q-5 -1 -12 -1q-41 78 -121 233q-12 25 -27 32q-15 6 -55 6h-118q-23 0 -29 -12q-5 -12 5 -33
q54 -102 163 -307q-13 -14 -24 -31q-11 -16 -22 -38q-43 -85 -129 -256q-7 -13 -7 -24q0 -6 3 -11q6 -15 31 -15h111q40 0 59 8t32 35q28 63 84 188q11 26 24 37t42 11h8v-236q0 -24 10 -33q10 -10 33 -10h25h92q24 0 34 10q9 9 9 33v236h8q30 0 43 -11q12 -11 24 -37
q28 -62 84 -188q12 -27 31 -35t60 -8h111q25 0 31 15q2 5 2 11q0 11 -7 24q-43 86 -129 256q-11 22 -22 38q-11 17 -24 31q55 102 164 307q11 20 5 32q-7 13 -30 13z" />
    <glyph glyph-name="uni0417" unicode="&#x417;" horiz-adv-x="665" 
d="M614 529q0 106 -67 160q-68 53 -199 53q-133 0 -213 -46q-79 -47 -110 -133q-9 -22 -2 -35q6 -12 28 -20l102 -36q23 -8 34 -2q12 6 21 30q13 34 42 50t79 16q40 0 60 -13q20 -14 20 -43q0 -31 -16 -44q-15 -12 -47 -12h-81q-24 0 -34 -10t-10 -34v-85q0 -24 10 -34
q10 -9 34 -9h97q34 0 49 -14q15 -15 15 -47q0 -31 -20 -45q-20 -15 -73 -15q-52 0 -84 17q-31 16 -44 49q-9 24 -21 30q-11 6 -34 -2q-34 -12 -101 -36q-23 -8 -29 -20q-3 -6 -3 -13q0 -10 5 -22q32 -86 113 -133q81 -46 214 -46q149 0 220 57q70 58 70 165q0 55 -20 100
q-21 45 -84 74q40 22 60 58q19 36 19 90z" />
    <glyph glyph-name="uni0418" unicode="&#x418;" horiz-adv-x="722" 
d="M627 728h-123q-18 0 -27 -5t-16 -15q-47 -80 -139 -239q-22 -36 -36 -64q-13 -28 -27 -61q-8 -18 -17 -39q-8 -22 -19 -49h-7q9 28 15 51q6 22 10 42q8 36 11 71q2 34 2 89v175q0 24 -9 33q-9 10 -34 10h-116q-24 0 -34 -10q-10 -9 -10 -33v-94v-547q0 -24 10 -33
q10 -10 34 -10h27h97q17 0 27 4q9 5 15 16q47 81 141 241q12 20 21 36t17 32q15 28 27 60q13 32 32 83h8q-6 -25 -11 -45q-6 -20 -10 -37q-9 -41 -14 -76q-4 -36 -4 -96v-174q0 -25 10 -34q9 -10 34 -10h115q24 0 34 10q10 9 10 33v641q0 25 -10 34q-10 10 -34 10z" />
    <glyph glyph-name="uni0419" unicode="&#x419;" horiz-adv-x="722" 
d="M572 880q4 8 4 15q0 5 -2 8q-5 8 -22 15q-27 9 -82 27q-11 4 -18 4q-4 0 -7 -1q-7 -3 -16 -17q-11 -18 -26 -26q-15 -9 -37 -9q-23 0 -38 9q-15 8 -26 26q-8 14 -17 16q-9 3 -27 -3q-26 -9 -77 -26q-17 -7 -22 -15q-2 -4 -2 -9q0 -6 4 -14q23 -56 76 -86q53 -29 129 -29
q77 0 130 29q53 30 76 86zM627 728h-123q-18 0 -27 -5t-16 -15q-47 -80 -139 -239q-22 -36 -36 -64q-13 -28 -27 -61q-8 -18 -17 -39q-8 -22 -19 -49h-7q9 28 15 51q6 22 10 42q8 36 11 71q2 34 2 89v175q0 24 -9 33q-9 10 -34 10h-116q-24 0 -34 -10q-10 -9 -10 -33v-94
v-547q0 -24 10 -33q10 -10 34 -10h27h97q17 0 27 4q9 5 15 16q47 81 141 241q12 20 21 36t17 32q15 28 27 60q13 32 32 83h8q-6 -25 -11 -45q-6 -20 -10 -37q-9 -41 -14 -76q-4 -36 -4 -96v-174q0 -25 10 -34q9 -10 34 -10h115q24 0 34 10q10 9 10 33v641q0 25 -10 34
q-10 10 -34 10z" />
    <glyph glyph-name="uni041a" unicode="&#x41a;" horiz-adv-x="671" 
d="M659 50q-33 64 -135 256q-13 26 -28 46q-15 19 -34 33l186 297q12 20 6 32q-7 13 -30 13h-118q-40 0 -54 -7q-13 -7 -28 -31q-49 -77 -148 -232h-22v227q0 24 -9 33q-9 10 -34 10h-116q-24 0 -34 -10q-10 -9 -10 -33v-94v-547q0 -24 10 -33q10 -10 34 -10h25h91
q25 0 34 10q9 9 9 33v235h18q30 0 44 -14q14 -13 26 -38q30 -61 89 -183q13 -27 32 -35t59 -8h111q25 0 31 15q2 5 2 11q0 11 -7 24z" />
    <glyph glyph-name="uni041b" unicode="&#x41b;" horiz-adv-x="715" 
d="M620 727h-438q-24 0 -34 -10q-10 -9 -10 -33v-233q0 -51 -4 -89t-12 -65q-15 -52 -40 -77q-24 -25 -54 -43q-22 -12 -27 -25q-2 -4 -2 -9q0 -11 8 -25q20 -35 59 -105q11 -21 24 -26q4 -2 9 -2q10 0 25 8q59 29 107 77q48 47 76 135q15 46 23 107t8 140v96h123v-505
q0 -24 9 -33q9 -10 34 -10h116q24 0 34 10q10 9 10 33v641q0 24 -10 33q-10 10 -34 10z" />
    <glyph glyph-name="uni041c" unicode="&#x41c;" horiz-adv-x="845" 
d="M750 728h-103q-25 0 -36 -6q-10 -6 -21 -27q-56 -110 -169 -330q-42 82 -169 331q-11 20 -22 26q-12 6 -39 6h-96q-24 0 -34 -9t-10 -34v-94v-549q0 -24 10 -33t34 -9h105q24 0 34 9t10 33v145q0 35 -3 67q-2 32 -11 78q-5 25 -12 56q-7 30 -16 69h10q3 -10 7 -24
q5 -14 10 -31q11 -30 23 -63q13 -32 23 -51q21 -39 61 -116q8 -17 18 -23q10 -7 31 -7h69q20 0 30 8q10 7 19 22q19 39 57 116q11 20 25 53t25 63q6 17 11 30q5 14 8 23h11q-29 -102 -37 -160t-8 -109v-146q0 -24 9 -33t34 -9h24h88q24 0 34 9t10 33v643q0 25 -10 34t-34 9z
" />
    <glyph glyph-name="uni041d" unicode="&#x41d;" horiz-adv-x="707" 
d="M612 728h-116q-24 0 -34 -10q-9 -9 -9 -34v-226h-199v226q0 25 -9 34q-9 10 -34 10h-116q-24 0 -34 -10q-10 -9 -10 -34v-94v-547q0 -24 10 -33q10 -10 34 -10h116q25 0 34 10q9 9 9 33v236h199v-236q0 -24 9 -33q10 -10 34 -10h24h92q24 0 34 10q9 9 9 33v641
q0 25 -9 34q-10 10 -34 10z" />
    <glyph glyph-name="uni041e" unicode="&#x41e;" 
d="M34 456v-21v-164q0 -133 81 -209q82 -77 234 -77q151 0 233 77q82 76 82 209v185q0 133 -82 209q-82 77 -233 77q-152 0 -234 -77q-81 -76 -81 -209zM461 465v-203q0 -48 -30 -73q-29 -25 -82 -25q-54 0 -83 25t-29 73v203q0 48 29 73t83 25q53 0 82 -25q30 -25 30 -73z
" />
    <glyph glyph-name="uni041f" unicode="&#x41f;" horiz-adv-x="701" 
d="M607 727h-512q-24 0 -34 -10q-10 -9 -10 -33v-94v-547q0 -24 10 -33q10 -10 34 -10h116q25 0 34 10q9 9 9 33v505h193v-505q0 -24 10 -33q10 -10 33 -10h25h92q24 0 34 10q9 9 9 33v641q0 24 -9 33q-10 10 -34 10z" />
    <glyph glyph-name="uni0420" unicode="&#x420;" horiz-adv-x="663" 
d="M378 727h-283q-24 0 -34 -10q-10 -9 -10 -33v-94v-547q0 -24 10 -33q10 -10 34 -10h25h91q25 0 34 10q9 9 9 33v175h126q119 0 190 66q72 66 72 187q0 122 -72 189t-192 67zM355 397h-101v151h101q36 0 57 -21q20 -21 20 -55t-20 -54q-21 -21 -57 -21z" />
    <glyph glyph-name="uni0421" unicode="&#x421;" horiz-adv-x="667" 
d="M34 456v-21v-164q0 -133 82 -209q82 -77 233 -77q118 0 193 46q74 47 106 133q4 12 4 22q0 7 -2 13q-6 12 -29 20q-37 13 -110 39q-23 8 -35 2q-11 -6 -20 -30q-13 -33 -38 -49q-26 -17 -69 -17q-60 0 -86 26q-26 27 -26 80v187q0 53 26 80q26 26 86 26q43 0 68 -16
t39 -50q8 -24 20 -30q11 -5 35 2q36 13 110 39q23 8 29 20q6 13 -2 35q-32 86 -106 133q-75 46 -193 46q-151 0 -233 -77q-82 -76 -82 -209z" />
    <glyph glyph-name="uni0422" unicode="&#x422;" horiz-adv-x="617" 
d="M562 727h-507q-24 0 -33 -10q-10 -9 -10 -33v-14v-78q0 -25 10 -34q9 -10 33 -10h153v-505q0 -24 9 -33q9 -10 34 -10h24h92q24 0 34 10q10 9 10 33v505h151q25 0 34 10q10 9 10 34v92q0 24 -10 33q-9 10 -34 10z" />
    <glyph glyph-name="uni0423" unicode="&#x423;" horiz-adv-x="643" 
d="M613 727h-121q-35 0 -49 -6q-13 -6 -23 -32q-32 -76 -94 -227q-25 57 -100 227q-10 27 -26 33q-16 5 -53 5h-120q-24 0 -30 -11q-1 -4 -1 -9q0 -9 6 -23q72 -156 217 -469q-19 -43 -77 -172q-9 -20 -5 -31q5 -12 27 -12h28h102q34 0 47 7q14 7 24 31q90 215 270 646
q6 15 6 24q0 5 -1 8q-4 11 -27 11z" />
    <glyph glyph-name="uni0424" unicode="&#x424;" horiz-adv-x="883" 
d="M499 753h-115q-25 0 -34 -10q-10 -10 -10 -33v-44h-31q-143 0 -218 -72t-75 -201v-55q0 -128 75 -200q75 -71 218 -71h31v-44q0 -25 10 -35q9 -10 34 -10h29h86q24 0 34 10t10 35v44h30q143 0 218 71q75 72 75 200v55q0 129 -75 201t-218 72h-30v44q0 23 -10 33t-34 10z
M318 492h22v-251h-22q-47 0 -71 22t-24 68v70q0 46 24 68q24 23 71 23zM659 401v-70q0 -46 -24 -68t-71 -22h-21v251h21q47 0 71 -23q24 -22 24 -68z" />
    <glyph glyph-name="uni0425" unicode="&#x425;" horiz-adv-x="680" 
d="M671 43q-54 82 -213 328q50 79 202 315q11 17 6 29q-4 12 -26 12h-131q-35 0 -50 -5q-14 -5 -29 -31q-30 -52 -91 -157q-23 39 -92 157q-15 24 -30 30t-55 6h-122q-22 0 -27 -12t5 -29l201 -315q-52 -82 -210 -328q-8 -13 -8 -23q0 -4 1 -8q6 -12 29 -12h126q41 0 56 7
q14 7 29 31q31 56 94 168q24 -42 97 -168q15 -26 30 -32t54 -6h28h104q24 0 29 13q2 4 1 8q0 10 -8 22z" />
    <glyph glyph-name="uni0426" unicode="&#x426;" horiz-adv-x="750" 
d="M689 179h-42v505q0 24 -9 33q-9 10 -34 10h-116q-24 0 -34 -10q-10 -9 -10 -33v-505h-190v505q0 24 -9 33q-9 10 -34 10h-116q-24 0 -34 -10q-10 -9 -10 -33v-94v-547q0 -24 10 -33q10 -10 34 -10h446v-114q0 -24 9 -34t34 -10h105q25 0 34 10q10 10 10 34v251
q0 24 -10 33q-9 9 -34 9z" />
    <glyph glyph-name="uni0427" unicode="&#x427;" horiz-adv-x="674" 
d="M579 727h-116q-25 0 -34 -10q-10 -9 -10 -33v-251q-10 -2 -29 -5q-19 -2 -45 -2q-57 0 -85 23q-29 24 -29 71v164q0 24 -9 33q-10 10 -35 10h-115q-25 0 -34 -10q-9 -9 -9 -33v-24v-140q0 -139 66 -212q67 -72 219 -72q36 0 63 2q26 2 42 5v-200q0 -24 10 -33
q9 -10 34 -10h24h92q24 0 33 10q10 9 10 33v641q0 24 -10 33q-9 10 -33 10z" />
    <glyph glyph-name="uni0428" unicode="&#x428;" horiz-adv-x="973" 
d="M879 727h-117q-24 0 -34 -10q-9 -9 -9 -33v-505h-131v505q0 24 -9 33q-10 10 -34 10h-116q-25 0 -34 -10q-10 -9 -10 -33v-505h-131v505q0 24 -9 33q-9 10 -34 10h-116q-24 0 -34 -10q-10 -9 -10 -33v-94v-547q0 -24 10 -33q10 -10 34 -10h168h616q23 0 33 10q10 9 10 33
v641q0 24 -10 33q-10 10 -33 10z" />
    <glyph glyph-name="uni0429" unicode="&#x429;" horiz-adv-x="1024" 
d="M964 179h-42v505q0 24 -10 33q-10 10 -33 10h-117q-24 0 -34 -10q-9 -9 -9 -33v-505h-131v505q0 24 -9 33q-10 10 -34 10h-116q-25 0 -34 -10q-10 -9 -10 -33v-505h-131v505q0 24 -9 33q-9 10 -34 10h-116q-24 0 -34 -10q-10 -9 -10 -33v-94v-547q0 -24 10 -33
q10 -10 34 -10h719v-115q0 -24 10 -33q10 -10 34 -10h106q24 0 33 10q10 9 10 33v252q0 24 -10 33q-9 9 -33 9z" />
    <glyph glyph-name="uni042a" unicode="&#x42a;" horiz-adv-x="800" 
d="M517 509h-125v175q0 24 -10 33q-9 10 -34 10h-293q-24 0 -33 -10q-10 -9 -10 -33v-24v-69q0 -25 10 -34q9 -9 33 -9h134v-505q0 -24 10 -33q9 -10 33 -10h61h223q119 0 191 67t72 189q0 121 -71 187t-191 66zM493 179h-101v151h101q36 0 56 -21q20 -20 20 -54t-20 -55
t-56 -21z" />
    <glyph glyph-name="uni042b" unicode="&#x42b;" horiz-adv-x="962" 
d="M95 0h40h243q120 0 192 67t72 189q0 121 -72 187q-71 66 -190 66h-126v175q0 24 -9 33q-9 10 -34 10h-116q-24 0 -34 -10q-10 -9 -10 -33v-94v-547q0 -24 10 -33q10 -10 34 -10zM707 686v-645q0 -23 9 -32q8 -9 32 -9h25h95q23 0 32 9t9 32v645q0 23 -9 32t-32 9h-120
q-24 0 -32 -9q-9 -9 -9 -32zM355 179h-101v151h101q36 0 57 -21q20 -20 20 -54t-20 -55q-21 -21 -57 -21z" />
    <glyph glyph-name="uni042c" unicode="&#x42c;" horiz-adv-x="663" 
d="M95 0h40h243q120 0 192 67t72 189q0 121 -72 187q-71 66 -190 66h-126v175q0 24 -9 33q-9 10 -34 10h-116q-24 0 -34 -10q-10 -9 -10 -33v-94v-547q0 -24 10 -33q10 -10 34 -10zM355 179h-101v151h101q36 0 57 -21q20 -20 20 -54t-20 -55q-21 -21 -57 -21z" />
    <glyph glyph-name="uni042d" unicode="&#x42d;" horiz-adv-x="671" 
d="M23 563q-8 -22 -2 -35q6 -12 29 -20q34 -12 101 -36q23 -8 35 -2q11 6 20 30q14 34 43 50q30 16 73 16q53 0 83 -23q29 -24 29 -71v-17h-171q-24 0 -34 -10q-9 -10 -9 -34v-86q0 -25 9 -35q10 -9 34 -9h171v-22q0 -48 -28 -73q-29 -25 -84 -25q-43 0 -73 17
q-30 16 -43 49q-9 24 -21 30q-11 6 -34 -2q-34 -12 -101 -36q-23 -8 -29 -20q-3 -6 -3 -13q0 -10 5 -22q32 -86 106 -133q74 -46 193 -46q151 0 233 77q82 76 82 209v185q0 133 -82 209q-82 77 -233 77q-119 0 -193 -46q-74 -47 -106 -133z" />
    <glyph glyph-name="uni042e" unicode="&#x42e;" horiz-adv-x="992" 
d="M346 478v-20h-92v226q0 24 -9 33q-9 10 -34 10h-116q-24 0 -34 -10q-10 -9 -10 -33v-94v-547q0 -24 10 -33q10 -10 34 -10h116q25 0 34 10q9 9 9 33v236h91v-23q0 -125 81 -198t224 -73q149 0 228 77q79 76 79 209v185q0 133 -79 209q-79 77 -228 77q-142 0 -223 -70
t-81 -194zM755 466v-205q0 -47 -27 -72t-78 -25q-49 0 -76 25q-26 25 -26 72v205q0 48 26 72q27 25 76 25q51 0 78 -25q27 -24 27 -72z" />
    <glyph glyph-name="uni042f" unicode="&#x42f;" horiz-adv-x="676" 
d="M35 480q0 -73 27 -126q27 -52 77 -82q-7 -10 -14 -22t-14 -25q-28 -58 -84 -175q-7 -15 -7 -25q0 -7 2 -11q6 -14 31 -14h112q41 0 60 8q18 7 30 35q20 49 60 146q12 30 28 41q16 12 51 12h28v-199q0 -24 9 -33q10 -10 34 -10h24h93q23 0 33 10q10 9 10 33v641
q0 24 -10 33q-10 10 -33 10h-293q-116 0 -185 -64t-69 -183zM312 548h110v-132h-110q-33 0 -50 17t-17 48t17 49t50 18z" />
    <glyph glyph-name="uni0430" unicode="&#x430;" horiz-adv-x="705" 
d="M700 42q-59 163 -236 651q-8 20 -19 27q-12 7 -34 7h-117q-22 0 -34 -7t-19 -29q-79 -216 -236 -649q-4 -12 -4 -21q0 -6 2 -10q6 -11 30 -11h107q39 0 53 10q14 9 22 33q8 25 24 74h221q6 -19 23 -74q6 -24 22 -33q15 -10 55 -10h24h87q23 0 30 11q3 5 3 12q0 8 -4 19z
M376 397q9 -30 38 -119h-128q9 30 38 120q15 52 17 97l2 46h10l4 -46q3 -45 19 -98z" />
    <glyph glyph-name="uni0431" unicode="&#x431;" horiz-adv-x="656" 
d="M547 728h-452q-24 0 -34 -10q-10 -9 -10 -34v-94v-549q0 -23 10 -32t33 -9h66h240q109 0 174 63t65 171q0 110 -65 173t-174 63h-146v91h293q24 0 33 9q10 10 10 34v80q0 25 -10 34q-9 10 -33 10zM432 236q0 -34 -19 -52q-20 -17 -56 -17h-103v136h103q36 0 56 -17
q19 -17 19 -50z" />
    <glyph glyph-name="uni0432" unicode="&#x432;" horiz-adv-x="674" 
d="M395 728h-300q-24 0 -34 -10q-10 -9 -10 -34v-94v-547q0 -24 10 -33q10 -10 34 -10h65h239q109 0 180 52q72 52 72 151q0 67 -27 110q-27 44 -76 66v4q39 27 56 63q18 36 18 88q0 93 -61 144q-60 50 -166 50zM416 506q0 -30 -16 -43q-16 -12 -47 -12h-99v112h99
q31 0 47 -13q16 -14 16 -44zM438 226q0 -32 -16 -46t-49 -14h-119v120h119q33 0 49 -15q16 -14 16 -45z" />
    <glyph glyph-name="uni0433" unicode="&#x433;" horiz-adv-x="544" 
d="M488 727h-393q-24 0 -34 -10q-10 -9 -10 -33v-94v-547q0 -24 10 -33q10 -10 34 -10h25h91q25 0 34 10q9 9 9 33v505h234q25 0 35 10q9 9 9 34v92q0 24 -9 33q-10 10 -35 10z" />
    <glyph glyph-name="uni0434" unicode="&#x434;" horiz-adv-x="808" 
d="M655 727h-446q-25 0 -34 -10q-10 -9 -10 -33v-233q0 -123 -22 -181q-21 -58 -60 -91h-23q-23 0 -33 -9t-10 -33v-49v-202q0 -23 10 -33t33 -10h114q24 0 33 10q10 10 10 33v114h375v-114q0 -23 10 -33q9 -10 34 -10h113q24 0 33 10q10 10 10 33v251q0 24 -10 33
q-9 9 -33 9h-50v505q0 24 -9 33q-10 10 -35 10zM364 452v96h133v-369h-182q23 47 36 113t13 160z" />
    <glyph glyph-name="uni0435" unicode="&#x435;" horiz-adv-x="602" 
d="M524 727h-429q-24 0 -34 -10q-10 -9 -10 -33v-94v-547q0 -24 10 -33q10 -10 34 -10h94h345q23 0 33 10q10 9 10 33v93q0 25 -10 34t-33 9h-280v99h216q25 0 34 9q10 10 10 35v92q0 24 -10 33q-9 10 -34 10h-216v91h270q25 0 35 10q9 9 9 34v92q0 24 -9 33q-10 10 -35 10z
" />
    <glyph glyph-name="uni0436" unicode="&#x436;" horiz-adv-x="1001" 
d="M953 727h-117q-40 0 -55 -6q-15 -7 -27 -32q-41 -78 -121 -233q-6 0 -12 1h-11h-8v227q0 24 -9 33q-10 10 -34 10h-117q-23 0 -33 -10q-10 -9 -10 -33v-227h-8h-10q-5 -1 -12 -1q-41 78 -121 233q-12 25 -27 32q-15 6 -55 6h-118q-23 0 -29 -12q-5 -12 5 -33
q54 -102 163 -307q-13 -14 -24 -31q-11 -16 -22 -38q-43 -85 -129 -256q-7 -13 -7 -24q0 -6 3 -11q6 -15 31 -15h111q40 0 59 8t32 35q28 63 84 188q11 26 24 37t42 11h8v-236q0 -24 10 -33q10 -10 33 -10h25h92q24 0 34 10q9 9 9 33v236h8q30 0 43 -11q12 -11 24 -37
q28 -62 84 -188q12 -27 31 -35t60 -8h111q25 0 31 15q2 5 2 11q0 11 -7 24q-43 86 -129 256q-11 22 -22 38q-11 17 -24 31q55 102 164 307q11 20 5 32q-7 13 -30 13z" />
    <glyph glyph-name="uni0437" unicode="&#x437;" horiz-adv-x="665" 
d="M614 529q0 106 -67 160q-68 53 -199 53q-133 0 -213 -46q-79 -47 -110 -133q-9 -22 -2 -35q6 -12 28 -20l102 -36q23 -8 34 -2q12 6 21 30q13 34 42 50t79 16q40 0 60 -13q20 -14 20 -43q0 -31 -16 -44q-15 -12 -47 -12h-81q-24 0 -34 -10t-10 -34v-85q0 -24 10 -34
q10 -9 34 -9h97q34 0 49 -14q15 -15 15 -47q0 -31 -20 -45q-20 -15 -73 -15q-52 0 -84 17q-31 16 -44 49q-9 24 -21 30q-11 6 -34 -2q-34 -12 -101 -36q-23 -8 -29 -20q-3 -6 -3 -13q0 -10 5 -22q32 -86 113 -133q81 -46 214 -46q149 0 220 57q70 58 70 165q0 55 -20 100
q-21 45 -84 74q40 22 60 58q19 36 19 90z" />
    <glyph glyph-name="uni0438" unicode="&#x438;" horiz-adv-x="722" 
d="M627 728h-123q-18 0 -27 -5t-16 -15q-47 -80 -139 -239q-22 -36 -36 -64q-13 -28 -27 -61q-8 -18 -17 -39q-8 -22 -19 -49h-7q9 28 15 51q6 22 10 42q8 36 11 71q2 34 2 89v175q0 24 -9 33q-9 10 -34 10h-116q-24 0 -34 -10q-10 -9 -10 -33v-94v-547q0 -24 10 -33
q10 -10 34 -10h27h97q17 0 27 4q9 5 15 16q47 81 141 241q12 20 21 36t17 32q15 28 27 60q13 32 32 83h8q-6 -25 -11 -45q-6 -20 -10 -37q-9 -41 -14 -76q-4 -36 -4 -96v-174q0 -25 10 -34q9 -10 34 -10h115q24 0 34 10q10 9 10 33v641q0 25 -10 34q-10 10 -34 10z" />
    <glyph glyph-name="uni0439" unicode="&#x439;" horiz-adv-x="722" 
d="M572 880q4 8 4 15q0 5 -2 8q-5 8 -22 15q-27 9 -82 27q-11 4 -18 4q-4 0 -7 -1q-7 -3 -16 -17q-11 -18 -26 -26q-15 -9 -37 -9q-23 0 -38 9q-15 8 -26 26q-8 14 -17 16q-9 3 -27 -3q-26 -9 -77 -26q-17 -7 -22 -15q-2 -4 -2 -9q0 -6 4 -14q23 -56 76 -86q53 -29 129 -29
q77 0 130 29q53 30 76 86zM627 728h-123q-18 0 -27 -5t-16 -15q-47 -80 -139 -239q-22 -36 -36 -64q-13 -28 -27 -61q-8 -18 -17 -39q-8 -22 -19 -49h-7q9 28 15 51q6 22 10 42q8 36 11 71q2 34 2 89v175q0 24 -9 33q-9 10 -34 10h-116q-24 0 -34 -10q-10 -9 -10 -33v-94
v-547q0 -24 10 -33q10 -10 34 -10h27h97q17 0 27 4q9 5 15 16q47 81 141 241q12 20 21 36t17 32q15 28 27 60q13 32 32 83h8q-6 -25 -11 -45q-6 -20 -10 -37q-9 -41 -14 -76q-4 -36 -4 -96v-174q0 -25 10 -34q9 -10 34 -10h115q24 0 34 10q10 9 10 33v641q0 25 -10 34
q-10 10 -34 10z" />
    <glyph glyph-name="uni043a" unicode="&#x43a;" horiz-adv-x="671" 
d="M659 50q-33 64 -135 256q-13 26 -28 46q-15 19 -34 33l186 297q12 20 6 32q-7 13 -30 13h-118q-40 0 -54 -7q-13 -7 -28 -31q-49 -77 -148 -232h-22v227q0 24 -9 33q-9 10 -34 10h-116q-24 0 -34 -10q-10 -9 -10 -33v-94v-547q0 -24 10 -33q10 -10 34 -10h25h91
q25 0 34 10q9 9 9 33v235h18q30 0 44 -14q14 -13 26 -38q30 -61 89 -183q13 -27 32 -35t59 -8h111q25 0 31 15q2 5 2 11q0 11 -7 24z" />
    <glyph glyph-name="uni043b" unicode="&#x43b;" horiz-adv-x="715" 
d="M620 727h-438q-24 0 -34 -10q-10 -9 -10 -33v-233q0 -51 -4 -89t-12 -65q-15 -52 -40 -77q-24 -25 -54 -43q-22 -12 -27 -25q-2 -4 -2 -9q0 -11 8 -25q20 -35 59 -105q11 -21 24 -26q4 -2 9 -2q10 0 25 8q59 29 107 77q48 47 76 135q15 46 23 107t8 140v96h123v-505
q0 -24 9 -33q9 -10 34 -10h116q24 0 34 10q10 9 10 33v641q0 24 -10 33q-10 10 -34 10z" />
    <glyph glyph-name="uni043c" unicode="&#x43c;" horiz-adv-x="845" 
d="M750 728h-103q-25 0 -36 -6q-10 -6 -21 -27q-56 -110 -169 -330q-42 82 -169 331q-11 20 -22 26q-12 6 -39 6h-96q-24 0 -34 -9t-10 -34v-94v-549q0 -24 10 -33t34 -9h105q24 0 34 9t10 33v145q0 35 -3 67q-2 32 -11 78q-5 25 -12 56q-7 30 -16 69h10q3 -10 7 -24
q5 -14 10 -31q11 -30 23 -63q13 -32 23 -51q21 -39 61 -116q8 -17 18 -23q10 -7 31 -7h69q20 0 30 8q10 7 19 22q19 39 57 116q11 20 25 53t25 63q6 17 11 30q5 14 8 23h11q-29 -102 -37 -160t-8 -109v-146q0 -24 9 -33t34 -9h24h88q24 0 34 9t10 33v643q0 25 -10 34t-34 9z
" />
    <glyph glyph-name="uni043d" unicode="&#x43d;" horiz-adv-x="707" 
d="M612 728h-116q-24 0 -34 -10q-9 -9 -9 -34v-226h-199v226q0 25 -9 34q-9 10 -34 10h-116q-24 0 -34 -10q-10 -9 -10 -34v-94v-547q0 -24 10 -33q10 -10 34 -10h116q25 0 34 10q9 9 9 33v236h199v-236q0 -24 9 -33q10 -10 34 -10h24h92q24 0 34 10q9 9 9 33v641
q0 25 -9 34q-10 10 -34 10z" />
    <glyph glyph-name="uni043e" unicode="&#x43e;" 
d="M34 456v-21v-164q0 -133 81 -209q82 -77 234 -77q151 0 233 77q82 76 82 209v185q0 133 -82 209q-82 77 -233 77q-152 0 -234 -77q-81 -76 -81 -209zM461 465v-203q0 -48 -30 -73q-29 -25 -82 -25q-54 0 -83 25t-29 73v203q0 48 29 73t83 25q53 0 82 -25q30 -25 30 -73z
" />
    <glyph glyph-name="uni043f" unicode="&#x43f;" horiz-adv-x="701" 
d="M607 727h-512q-24 0 -34 -10q-10 -9 -10 -33v-94v-547q0 -24 10 -33q10 -10 34 -10h116q25 0 34 10q9 9 9 33v505h193v-505q0 -24 10 -33q10 -10 33 -10h25h92q24 0 34 10q9 9 9 33v641q0 24 -9 33q-10 10 -34 10z" />
    <glyph glyph-name="uni0440" unicode="&#x440;" horiz-adv-x="663" 
d="M378 727h-283q-24 0 -34 -10q-10 -9 -10 -33v-94v-547q0 -24 10 -33q10 -10 34 -10h25h91q25 0 34 10q9 9 9 33v175h126q119 0 190 66q72 66 72 187q0 122 -72 189t-192 67zM355 397h-101v151h101q36 0 57 -21q20 -21 20 -55t-20 -54q-21 -21 -57 -21z" />
    <glyph glyph-name="uni0441" unicode="&#x441;" horiz-adv-x="667" 
d="M34 456v-21v-164q0 -133 82 -209q82 -77 233 -77q118 0 193 46q74 47 106 133q4 12 4 22q0 7 -2 13q-6 12 -29 20q-37 13 -110 39q-23 8 -35 2q-11 -6 -20 -30q-13 -33 -38 -49q-26 -17 -69 -17q-60 0 -86 26q-26 27 -26 80v187q0 53 26 80q26 26 86 26q43 0 68 -16
t39 -50q8 -24 20 -30q11 -5 35 2q36 13 110 39q23 8 29 20q6 13 -2 35q-32 86 -106 133q-75 46 -193 46q-151 0 -233 -77q-82 -76 -82 -209z" />
    <glyph glyph-name="uni0442" unicode="&#x442;" horiz-adv-x="617" 
d="M562 727h-507q-24 0 -33 -10q-10 -9 -10 -33v-14v-78q0 -25 10 -34q9 -10 33 -10h153v-505q0 -24 9 -33q9 -10 34 -10h24h92q24 0 34 10q10 9 10 33v505h151q25 0 34 10q10 9 10 34v92q0 24 -10 33q-9 10 -34 10z" />
    <glyph glyph-name="uni0443" unicode="&#x443;" horiz-adv-x="643" 
d="M613 727h-121q-35 0 -49 -6q-13 -6 -23 -32q-32 -76 -94 -227q-25 57 -100 227q-10 27 -26 33q-16 5 -53 5h-120q-24 0 -30 -11q-1 -4 -1 -9q0 -9 6 -23q72 -156 217 -469q-19 -43 -77 -172q-9 -20 -5 -31q5 -12 27 -12h28h102q34 0 47 7q14 7 24 31q90 215 270 646
q6 15 6 24q0 5 -1 8q-4 11 -27 11z" />
    <glyph glyph-name="uni0444" unicode="&#x444;" horiz-adv-x="883" 
d="M499 753h-115q-25 0 -34 -10q-10 -10 -10 -33v-44h-31q-143 0 -218 -72t-75 -201v-55q0 -128 75 -200q75 -71 218 -71h31v-44q0 -25 10 -35q9 -10 34 -10h29h86q24 0 34 10t10 35v44h30q143 0 218 71q75 72 75 200v55q0 129 -75 201t-218 72h-30v44q0 23 -10 33t-34 10z
M318 492h22v-251h-22q-47 0 -71 22t-24 68v70q0 46 24 68q24 23 71 23zM659 401v-70q0 -46 -24 -68t-71 -22h-21v251h21q47 0 71 -23q24 -22 24 -68z" />
    <glyph glyph-name="uni0445" unicode="&#x445;" horiz-adv-x="680" 
d="M671 43q-54 82 -213 328q50 79 202 315q11 17 6 29q-4 12 -26 12h-131q-35 0 -50 -5q-14 -5 -29 -31q-30 -52 -91 -157q-23 39 -92 157q-15 24 -30 30t-55 6h-122q-22 0 -27 -12t5 -29l201 -315q-52 -82 -210 -328q-8 -13 -8 -23q0 -4 1 -8q6 -12 29 -12h126q41 0 56 7
q14 7 29 31q31 56 94 168q24 -42 97 -168q15 -26 30 -32t54 -6h28h104q24 0 29 13q2 4 1 8q0 10 -8 22z" />
    <glyph glyph-name="uni0446" unicode="&#x446;" horiz-adv-x="750" 
d="M689 179h-42v505q0 24 -9 33q-9 10 -34 10h-116q-24 0 -34 -10q-10 -9 -10 -33v-505h-190v505q0 24 -9 33q-9 10 -34 10h-116q-24 0 -34 -10q-10 -9 -10 -33v-94v-547q0 -24 10 -33q10 -10 34 -10h446v-114q0 -24 9 -34t34 -10h105q25 0 34 10q10 10 10 34v251
q0 24 -10 33q-9 9 -34 9z" />
    <glyph glyph-name="uni0447" unicode="&#x447;" horiz-adv-x="674" 
d="M579 727h-116q-25 0 -34 -10q-10 -9 -10 -33v-251q-10 -2 -29 -5q-19 -2 -45 -2q-57 0 -85 23q-29 24 -29 71v164q0 24 -9 33q-10 10 -35 10h-115q-25 0 -34 -10q-9 -9 -9 -33v-24v-140q0 -139 66 -212q67 -72 219 -72q36 0 63 2q26 2 42 5v-200q0 -24 10 -33
q9 -10 34 -10h24h92q24 0 33 10q10 9 10 33v641q0 24 -10 33q-9 10 -33 10z" />
    <glyph glyph-name="uni0448" unicode="&#x448;" horiz-adv-x="973" 
d="M879 727h-117q-24 0 -34 -10q-9 -9 -9 -33v-505h-131v505q0 24 -9 33q-10 10 -34 10h-116q-25 0 -34 -10q-10 -9 -10 -33v-505h-131v505q0 24 -9 33q-9 10 -34 10h-116q-24 0 -34 -10q-10 -9 -10 -33v-94v-547q0 -24 10 -33q10 -10 34 -10h168h616q23 0 33 10q10 9 10 33
v641q0 24 -10 33q-10 10 -33 10z" />
    <glyph glyph-name="uni0449" unicode="&#x449;" horiz-adv-x="1024" 
d="M964 179h-42v505q0 24 -10 33q-10 10 -33 10h-117q-24 0 -34 -10q-9 -9 -9 -33v-505h-131v505q0 24 -9 33q-10 10 -34 10h-116q-25 0 -34 -10q-10 -9 -10 -33v-505h-131v505q0 24 -9 33q-9 10 -34 10h-116q-24 0 -34 -10q-10 -9 -10 -33v-94v-547q0 -24 10 -33
q10 -10 34 -10h719v-115q0 -24 10 -33q10 -10 34 -10h106q24 0 33 10q10 9 10 33v252q0 24 -10 33q-9 9 -33 9z" />
    <glyph glyph-name="uni044a" unicode="&#x44a;" horiz-adv-x="800" 
d="M517 509h-125v175q0 24 -10 33q-9 10 -34 10h-293q-24 0 -33 -10q-10 -9 -10 -33v-24v-69q0 -25 10 -34q9 -9 33 -9h134v-505q0 -24 10 -33q9 -10 33 -10h61h223q119 0 191 67t72 189q0 121 -71 187t-191 66zM493 179h-101v151h101q36 0 56 -21q20 -20 20 -54t-20 -55
t-56 -21z" />
    <glyph glyph-name="uni044b" unicode="&#x44b;" horiz-adv-x="962" 
d="M95 0h40h243q120 0 192 67t72 189q0 121 -72 187q-71 66 -190 66h-126v175q0 24 -9 33q-9 10 -34 10h-116q-24 0 -34 -10q-10 -9 -10 -33v-94v-547q0 -24 10 -33q10 -10 34 -10zM707 686v-645q0 -23 9 -32q8 -9 32 -9h25h95q23 0 32 9t9 32v645q0 23 -9 32t-32 9h-120
q-24 0 -32 -9q-9 -9 -9 -32zM355 179h-101v151h101q36 0 57 -21q20 -20 20 -54t-20 -55q-21 -21 -57 -21z" />
    <glyph glyph-name="uni044c" unicode="&#x44c;" horiz-adv-x="663" 
d="M95 0h40h243q120 0 192 67t72 189q0 121 -72 187q-71 66 -190 66h-126v175q0 24 -9 33q-9 10 -34 10h-116q-24 0 -34 -10q-10 -9 -10 -33v-94v-547q0 -24 10 -33q10 -10 34 -10zM355 179h-101v151h101q36 0 57 -21q20 -20 20 -54t-20 -55q-21 -21 -57 -21z" />
    <glyph glyph-name="uni044d" unicode="&#x44d;" horiz-adv-x="671" 
d="M23 563q-8 -22 -2 -35q6 -12 29 -20q34 -12 101 -36q23 -8 35 -2q11 6 20 30q14 34 43 50q30 16 73 16q53 0 83 -23q29 -24 29 -71v-17h-171q-24 0 -34 -10q-9 -10 -9 -34v-86q0 -25 9 -35q10 -9 34 -9h171v-22q0 -48 -28 -73q-29 -25 -84 -25q-43 0 -73 17
q-30 16 -43 49q-9 24 -21 30q-11 6 -34 -2q-34 -12 -101 -36q-23 -8 -29 -20q-3 -6 -3 -13q0 -10 5 -22q32 -86 106 -133q74 -46 193 -46q151 0 233 77q82 76 82 209v185q0 133 -82 209q-82 77 -233 77q-119 0 -193 -46q-74 -47 -106 -133z" />
    <glyph glyph-name="uni044e" unicode="&#x44e;" horiz-adv-x="992" 
d="M346 478v-20h-92v226q0 24 -9 33q-9 10 -34 10h-116q-24 0 -34 -10q-10 -9 -10 -33v-94v-547q0 -24 10 -33q10 -10 34 -10h116q25 0 34 10q9 9 9 33v236h91v-23q0 -125 81 -198t224 -73q149 0 228 77q79 76 79 209v185q0 133 -79 209q-79 77 -228 77q-142 0 -223 -70
t-81 -194zM755 466v-205q0 -47 -27 -72t-78 -25q-49 0 -76 25q-26 25 -26 72v205q0 48 26 72q27 25 76 25q51 0 78 -25q27 -24 27 -72z" />
    <glyph glyph-name="uni044f" unicode="&#x44f;" horiz-adv-x="676" 
d="M35 480q0 -73 27 -126q27 -52 77 -82q-7 -10 -14 -22t-14 -25q-28 -58 -84 -175q-7 -15 -7 -25q0 -7 2 -11q6 -14 31 -14h112q41 0 60 8q18 7 30 35q20 49 60 146q12 30 28 41q16 12 51 12h28v-199q0 -24 9 -33q10 -10 34 -10h24h93q23 0 33 10q10 9 10 33v641
q0 24 -10 33q-10 10 -33 10h-293q-116 0 -185 -64t-69 -183zM312 548h110v-132h-110q-33 0 -50 17t-17 48t17 49t50 18z" />
    <glyph glyph-name="uni0451" unicode="&#x451;" horiz-adv-x="602" 
d="M200 928h-9q-42 0 -57 -16q-16 -15 -16 -57v-13q0 -41 16 -57q15 -17 57 -17h9q42 0 58 17q16 16 16 57v13q0 42 -16 57q-16 16 -58 16zM420 928h-7q-43 0 -60 -16q-16 -15 -16 -57v-13q0 -41 16 -57q17 -17 60 -17h7q42 0 58 17q16 16 16 57v13q0 42 -16 57
q-16 16 -58 16zM524 727h-429q-24 0 -34 -10q-10 -9 -10 -33v-94v-547q0 -24 10 -33q10 -10 34 -10h94h345q23 0 33 10q10 9 10 33v93q0 25 -10 34t-33 9h-280v99h216q25 0 34 9q10 10 10 35v92q0 24 -10 33q-9 10 -34 10h-216v91h270q25 0 35 10q9 9 9 34v92q0 24 -9 33
q-10 10 -35 10z" />
    <glyph glyph-name="uni1e80" unicode="&#x1e80;" horiz-adv-x="962" 
d="M413 936q-13 -15 -53 -62q-13 -16 -13 -25t19 -15q62 -20 186 -58q18 -6 28 -6v0q11 0 19 10q9 12 28 35q11 13 12 22v1q-1 8 -14 16q-48 28 -145 85q-17 10 -35 12h-4q-15 0 -28 -15zM921 727h-114q-28 0 -41 -7t-17 -31q-15 -89 -43 -268q-7 -42 -11 -101t-5 -80h-8
q-1 23 -6 80q-4 57 -13 101q-21 89 -63 268q-5 24 -19 31t-38 7h-111q-24 0 -38 -7q-14 -6 -19 -31q-21 -89 -64 -268q-9 -42 -14 -100t-5 -81h-7q0 14 -2 46t-5 67q-1 19 -3 36q-2 18 -5 32q-15 89 -45 268q-4 24 -17 31t-40 7h-126q-24 0 -28 -10q-3 -5 -3 -12q0 -9 3 -20
l162 -651q5 -21 18 -27q13 -7 35 -7h118q22 0 34 7q13 7 19 29q18 79 55 236q10 50 16 96q5 45 6 89h8q1 -44 5 -90q5 -46 15 -95q18 -79 55 -238q5 -20 18 -27t35 -7h26h94q22 0 34 7q13 7 18 29q55 216 163 649q3 11 3 20q0 7 -2 12q-5 10 -28 10z" />
    <glyph glyph-name="uni1e81" unicode="&#x1e81;" horiz-adv-x="962" 
d="M413 936q-13 -15 -53 -62q-13 -16 -13 -25t19 -15q62 -20 186 -58q18 -6 28 -6v0q11 0 19 10q9 12 28 35q11 13 12 22v1q-1 8 -14 16q-48 28 -145 85q-17 10 -35 12h-4q-15 0 -28 -15zM921 727h-114q-28 0 -41 -7t-17 -31q-15 -89 -43 -268q-7 -42 -11 -101t-5 -80h-8
q-1 23 -6 80q-4 57 -13 101q-21 89 -63 268q-5 24 -19 31t-38 7h-111q-24 0 -38 -7q-14 -6 -19 -31q-21 -89 -64 -268q-9 -42 -14 -100t-5 -81h-7q0 14 -2 46t-5 67q-1 19 -3 36q-2 18 -5 32q-15 89 -45 268q-4 24 -17 31t-40 7h-126q-24 0 -28 -10q-3 -5 -3 -12q0 -9 3 -20
l162 -651q5 -21 18 -27q13 -7 35 -7h118q22 0 34 7q13 7 19 29q18 79 55 236q10 50 16 96q5 45 6 89h8q1 -44 5 -90q5 -46 15 -95q18 -79 55 -238q5 -20 18 -27t35 -7h26h94q22 0 34 7q13 7 18 29q55 216 163 649q3 11 3 20q0 7 -2 12q-5 10 -28 10z" />
    <glyph glyph-name="uni1e82" unicode="&#x1e82;" horiz-adv-x="962" 
d="M498 936q-36 -21 -145 -83q-13 -8 -14 -16v-1q1 -8 11 -22q10 -11 29 -34q8 -10 18 -10q11 0 29 5q62 19 185 58q20 6 20 16v0q0 10 -14 24q-17 20 -52 60q-13 15 -29 15h-3q-18 -2 -35 -12zM921 727h-114q-28 0 -41 -7t-17 -31q-15 -89 -43 -268q-7 -42 -11 -101t-5 -80
h-8q-1 23 -6 80q-4 57 -13 101q-21 89 -63 268q-5 24 -19 31t-38 7h-111q-24 0 -38 -7q-14 -6 -19 -31q-21 -89 -64 -268q-9 -42 -14 -100t-5 -81h-7q0 14 -2 46t-5 67q-1 19 -3 36q-2 18 -5 32q-15 89 -45 268q-4 24 -17 31t-40 7h-126q-24 0 -28 -10q-3 -5 -3 -12
q0 -9 3 -20l162 -651q5 -21 18 -27q13 -7 35 -7h118q22 0 34 7q13 7 19 29q18 79 55 236q10 50 16 96q5 45 6 89h8q1 -44 5 -90q5 -46 15 -95q18 -79 55 -238q5 -20 18 -27t35 -7h26h94q22 0 34 7q13 7 18 29q55 216 163 649q3 11 3 20q0 7 -2 12q-5 10 -28 10z" />
    <glyph glyph-name="uni1e83" unicode="&#x1e83;" horiz-adv-x="962" 
d="M498 936q-36 -21 -145 -83q-13 -8 -14 -16v-1q1 -8 11 -22q10 -11 29 -34q8 -10 18 -10q11 0 29 5q62 19 185 58q20 6 20 16v0q0 10 -14 24q-17 20 -52 60q-13 15 -29 15h-3q-18 -2 -35 -12zM921 727h-114q-28 0 -41 -7t-17 -31q-15 -89 -43 -268q-7 -42 -11 -101t-5 -80
h-8q-1 23 -6 80q-4 57 -13 101q-21 89 -63 268q-5 24 -19 31t-38 7h-111q-24 0 -38 -7q-14 -6 -19 -31q-21 -89 -64 -268q-9 -42 -14 -100t-5 -81h-7q0 14 -2 46t-5 67q-1 19 -3 36q-2 18 -5 32q-15 89 -45 268q-4 24 -17 31t-40 7h-126q-24 0 -28 -10q-3 -5 -3 -12
q0 -9 3 -20l162 -651q5 -21 18 -27q13 -7 35 -7h118q22 0 34 7q13 7 19 29q18 79 55 236q10 50 16 96q5 45 6 89h8q1 -44 5 -90q5 -46 15 -95q18 -79 55 -238q5 -20 18 -27t35 -7h26h94q22 0 34 7q13 7 18 29q55 216 163 649q3 11 3 20q0 7 -2 12q-5 10 -28 10z" />
    <glyph glyph-name="uni1e84" unicode="&#x1e84;" horiz-adv-x="962" 
d="M381 936h-8q-43 0 -58 -16q-16 -15 -16 -57v-13q0 -41 16 -57q15 -16 58 -16h8q42 0 58 16q17 16 17 57v13q0 42 -17 57q-16 16 -58 16zM601 936h-7q-43 0 -59 -16q-17 -15 -17 -57v-13q0 -41 17 -57q16 -16 59 -16h7q42 0 58 16t16 57v13q0 42 -16 57q-16 16 -58 16z
M921 727h-114q-28 0 -41 -7t-17 -31q-15 -89 -43 -268q-7 -42 -11 -101t-5 -80h-8q-1 23 -6 80q-4 57 -13 101q-21 89 -63 268q-5 24 -19 31t-38 7h-111q-24 0 -38 -7q-14 -6 -19 -31q-21 -89 -64 -268q-9 -42 -14 -100t-5 -81h-7q0 14 -2 46t-5 67q-1 19 -3 36q-2 18 -5 32
q-15 89 -45 268q-4 24 -17 31t-40 7h-126q-24 0 -28 -10q-3 -5 -3 -12q0 -9 3 -20l162 -651q5 -21 18 -27q13 -7 35 -7h118q22 0 34 7q13 7 19 29q18 79 55 236q10 50 16 96q5 45 6 89h8q1 -44 5 -90q5 -46 15 -95q18 -79 55 -238q5 -20 18 -27t35 -7h26h94q22 0 34 7
q13 7 18 29q55 216 163 649q3 11 3 20q0 7 -2 12q-5 10 -28 10z" />
    <glyph glyph-name="uni1e85" unicode="&#x1e85;" horiz-adv-x="962" 
d="M381 936h-8q-43 0 -58 -16q-16 -15 -16 -57v-13q0 -41 16 -57q15 -16 58 -16h8q42 0 58 16q17 16 17 57v13q0 42 -17 57q-16 16 -58 16zM601 936h-7q-43 0 -59 -16q-17 -15 -17 -57v-13q0 -41 17 -57q16 -16 59 -16h7q42 0 58 16t16 57v13q0 42 -16 57q-16 16 -58 16z
M921 727h-114q-28 0 -41 -7t-17 -31q-15 -89 -43 -268q-7 -42 -11 -101t-5 -80h-8q-1 23 -6 80q-4 57 -13 101q-21 89 -63 268q-5 24 -19 31t-38 7h-111q-24 0 -38 -7q-14 -6 -19 -31q-21 -89 -64 -268q-9 -42 -14 -100t-5 -81h-7q0 14 -2 46t-5 67q-1 19 -3 36q-2 18 -5 32
q-15 89 -45 268q-4 24 -17 31t-40 7h-126q-24 0 -28 -10q-3 -5 -3 -12q0 -9 3 -20l162 -651q5 -21 18 -27q13 -7 35 -7h118q22 0 34 7q13 7 19 29q18 79 55 236q10 50 16 96q5 45 6 89h8q1 -44 5 -90q5 -46 15 -95q18 -79 55 -238q5 -20 18 -27t35 -7h26h94q22 0 34 7
q13 7 18 29q55 216 163 649q3 11 3 20q0 7 -2 12q-5 10 -28 10z" />
    </font>
</defs>
</svg>
